<svg width="766" height="517" viewBox="0 0 766 517" fill="none" xmlns="http://www.w3.org/2000/svg">
<path opacity="0.4" d="M225.937 2.19903L226.53 22.0242L209.064 12.6249L225.937 2.19903Z" stroke="#6846ED" stroke-width="4" stroke-linejoin="round" stroke-dasharray="2 2"/>
<path opacity="0.6" d="M745.326 470.297L747.217 450.553L763.37 462.063L745.326 470.297Z" stroke="#6846ED" stroke-width="4" stroke-linejoin="round" stroke-dasharray="2 2"/>
<path opacity="0.5" d="M576.362 255.546L577.45 244.193L586.738 250.811L576.362 255.546Z" stroke="#6846ED" stroke-width="4" stroke-linejoin="round" stroke-dasharray="2 2"/>
<g opacity="0.9">
<path d="M720 295.72L703.8 316L669.635 310.571L685.835 290.291L720 295.72Z" fill="#3F37AA"/>
<path d="M685.835 290.291L669.635 310.571L666 279.28L682.252 259L685.835 290.291Z" fill="#523ECC"/>
<path d="M716.417 264.429L720 295.72L685.835 290.291L682.252 259L716.417 264.429Z" fill="#6846ED"/>
</g>
<g opacity="0.7" clip-path="url(#clip0)">
<path d="M395.4 144.374L411.03 133.282L434.279 144.052L418.649 155.143L395.4 144.374Z" fill="#3F37AA"/>
<path d="M418.649 155.143L434.279 144.052L430.562 166.966L414.895 178.046L418.649 155.143Z" fill="#523ECC"/>
<path d="M391.647 167.277L395.4 144.374L418.649 155.143L414.895 178.046L391.647 167.277Z" fill="#6846ED"/>
</g>
<g opacity="0.5" clip-path="url(#clip1)">
<path d="M400.988 451.688L411.524 444.212L427.194 451.472L416.659 458.948L400.988 451.688Z" fill="#3F37AA"/>
<path d="M416.659 458.948L427.194 451.472L424.689 466.917L414.129 474.386L416.659 458.948Z" fill="#523ECC"/>
<path d="M398.458 467.126L400.988 451.689L416.659 458.948L414.129 474.386L398.458 467.126Z" fill="#6846ED"/>
</g>
<path opacity="0.8" d="M733.128 77.6206C734.258 81.4663 733.629 85.7782 731.049 89.2394C726.693 95.0831 718.424 96.289 712.581 91.9329C706.737 87.5768 705.531 79.3083 709.887 73.4647C711.434 71.39 713.474 69.8999 715.723 69.0358" stroke="#6846ED" stroke-width="5" stroke-linejoin="round"/>
<path opacity="0.8" d="M4.57238 502.326C6.32727 501.435 8.46509 501.351 10.3674 502.286C13.5792 503.864 14.9035 507.747 13.3253 510.959C11.7471 514.171 7.86414 515.495 4.65239 513.917C3.51212 513.356 2.60977 512.506 1.99074 511.498" stroke="#6846ED" stroke-width="3" stroke-linejoin="round"/>
<g clip-path="url(#clip2)">
<path d="M637.138 306.734C636.706 308.438 635.594 310.088 634.053 311.31C633.954 311.376 633.837 311.523 633.738 311.588C633.224 311.995 632.644 312.304 631.998 312.513C629.66 315.535 627.322 318.557 624.206 320.739C623.692 321.146 623.129 321.373 622.483 321.583C622.681 321.879 622.814 322.076 623.029 322.291C624.468 323.692 626.006 325.029 627.528 326.447L663.833 360.699C663.916 360.716 663.899 360.798 663.982 360.814C664.048 360.913 664.131 360.93 664.279 361.046L664.362 361.062L664.445 361.079C664.528 361.096 664.528 361.096 664.594 361.195C664.594 361.195 664.594 361.195 664.677 361.212C664.759 361.229 664.826 361.327 664.908 361.344L664.991 361.361L665.074 361.378C665.157 361.395 665.157 361.395 665.239 361.411C665.322 361.428 665.488 361.462 665.554 361.561L665.637 361.577C665.719 361.594 665.802 361.611 665.802 361.611C665.885 361.628 666.05 361.662 666.133 361.678C666.133 361.678 666.133 361.678 666.216 361.695C666.299 361.712 666.382 361.729 666.464 361.746C666.547 361.763 666.63 361.779 666.713 361.796L666.795 361.813C666.795 361.813 666.795 361.813 666.878 361.83C667.044 361.864 667.226 361.815 667.391 361.849L667.474 361.866C667.474 361.866 667.474 361.866 667.557 361.883C667.64 361.899 667.64 361.899 667.739 361.834C667.822 361.851 667.921 361.786 668.004 361.803C668.087 361.82 668.186 361.755 668.186 361.755C668.269 361.772 668.369 361.706 668.534 361.74C668.617 361.757 668.617 361.757 668.716 361.692C668.799 361.709 668.816 361.627 668.899 361.644C669.163 361.612 669.346 361.564 669.627 361.451C669.71 361.467 669.727 361.385 669.81 361.402C669.81 361.402 669.892 361.419 669.909 361.337C669.909 361.337 669.992 361.354 670.008 361.272C670.29 361.159 670.654 361.062 670.953 360.867C671.035 360.884 671.052 360.802 671.152 360.737C671.251 360.672 671.35 360.607 671.433 360.623C671.632 360.493 671.814 360.445 672.013 360.315C672.113 360.25 672.113 360.25 672.195 360.267C672.295 360.202 672.477 360.153 672.593 360.006C672.792 359.876 673.09 359.681 673.289 359.551L673.388 359.486C673.488 359.42 673.587 359.355 673.604 359.273C673.703 359.208 673.803 359.143 673.919 358.996C674.018 358.931 674.035 358.849 674.134 358.784C674.234 358.719 674.234 358.719 674.333 358.654C674.35 358.572 674.433 358.589 674.449 358.507C674.565 358.36 674.764 358.23 674.88 358.083C674.88 358.083 674.897 358.001 674.98 358.018L675.079 357.953C675.179 357.888 675.278 357.823 675.295 357.741C675.56 357.709 675.676 357.562 675.792 357.415C675.792 357.415 675.792 357.415 675.808 357.333C675.908 357.268 676.024 357.121 676.123 357.056C676.24 356.909 676.356 356.762 676.455 356.697C676.588 356.468 676.687 356.403 676.803 356.256C676.919 356.109 677.035 355.962 677.135 355.897C677.251 355.75 677.367 355.603 677.4 355.439C677.516 355.292 677.533 355.21 677.649 355.063C677.765 354.916 677.799 354.752 677.915 354.605C677.931 354.523 678.047 354.376 678.064 354.294L678.081 354.213L678.097 354.131C678.213 353.984 678.247 353.82 678.363 353.673C678.379 353.591 678.379 353.591 678.479 353.526C678.496 353.444 678.496 353.444 678.595 353.379C678.612 353.297 678.628 353.215 678.711 353.232C678.827 353.085 678.877 352.839 678.91 352.675C678.96 352.429 679.093 352.201 679.126 352.037L679.143 351.955C679.176 351.791 679.193 351.709 679.226 351.545C679.243 351.463 679.276 351.299 679.293 351.218L679.31 351.136C679.343 350.972 679.376 350.808 679.41 350.644C679.426 350.562 679.46 350.398 679.476 350.316C679.51 350.153 679.543 349.989 679.493 349.808C679.51 349.726 679.543 349.562 679.56 349.481C679.593 349.317 679.544 349.136 679.577 348.972C679.594 348.89 679.61 348.808 679.544 348.71C679.512 348.447 679.479 348.184 679.446 347.922C679.413 347.659 679.281 347.462 679.231 347.281C679.248 347.199 679.165 347.182 679.099 347.084C679.033 346.985 678.984 346.804 678.917 346.706C678.851 346.607 678.851 346.607 678.785 346.508C678.719 346.409 678.653 346.311 678.587 346.212C678.521 346.113 678.438 346.096 678.372 345.997C678.306 345.899 678.24 345.8 678.157 345.783L637.436 307.392C637.353 307.375 637.287 307.276 637.287 307.276C637.37 306.867 637.204 306.833 637.138 306.734Z" fill="url(#paint0_linear)"/>
<path d="M629.982 308.862C625.69 312.169 622.157 317.251 622.071 320.219C621.984 323.187 625.412 322.861 629.622 319.537C633.915 316.23 637.448 311.148 637.534 308.18C637.703 305.228 634.275 305.555 629.982 308.862Z" fill="url(#paint1_linear)"/>
<path d="M630.18 309.585C626.468 312.583 623.233 317.044 623.065 319.568C622.896 322.093 625.811 321.748 629.524 318.749C633.236 315.751 636.47 311.29 636.639 308.765C636.89 306.257 633.976 306.603 630.18 309.585Z" fill="url(#paint2_radial)"/>
<path d="M630.51 310.505C627.394 313.113 624.658 316.822 624.341 318.804C624.024 320.787 626.276 320.307 629.31 317.682C632.426 315.074 635.162 311.365 635.479 309.383C635.879 307.417 633.61 307.979 630.51 310.505Z" fill="url(#paint3_linear)"/>
</g>
<defs>
<linearGradient id="paint0_linear" x1="660.495" y1="327.564" x2="646.413" y2="342.691" gradientUnits="userSpaceOnUse">
<stop stop-color="#3F37AA"/>
<stop offset="0.1544" stop-color="#4138AE"/>
<stop offset="0.3103" stop-color="#483ABA"/>
<stop offset="0.4515" stop-color="#523ECC"/>
<stop offset="0.8328" stop-color="#6846ED"/>
</linearGradient>
<linearGradient id="paint1_linear" x1="631.883" y1="325.789" x2="627.543" y2="299.856" gradientUnits="userSpaceOnUse">
<stop stop-color="#AFAEB3"/>
<stop offset="0.3157" stop-color="#A3A2A6"/>
<stop offset="0.899" stop-color="#838384"/>
<stop offset="1" stop-color="#7D7D7D"/>
</linearGradient>
<radialGradient id="paint2_radial" cx="0" cy="0" r="1" gradientUnits="userSpaceOnUse" gradientTransform="translate(629.896 314.182) rotate(-46.7556) scale(15.9654 6.13345)">
<stop stop-color="#F3D7D6"/>
<stop offset="0.2419" stop-color="#ECD2D1"/>
<stop offset="0.378" stop-color="#E7CBC8"/>
<stop offset="0.5989" stop-color="#D9B8B0"/>
<stop offset="0.6452" stop-color="#D5B3AA"/>
<stop offset="1" stop-color="#A98C7A"/>
</radialGradient>
<linearGradient id="paint3_linear" x1="629.549" y1="315.468" x2="628.151" y2="320.147" gradientUnits="userSpaceOnUse">
<stop stop-color="#D5B3AA"/>
<stop offset="1" stop-color="#A98C7A"/>
</linearGradient>
<clipPath id="clip0">
<rect width="40" height="42" fill="white" transform="translate(426.475 181.339) rotate(-164.126)"/>
</clipPath>
<clipPath id="clip1">
<rect width="26.9621" height="28.3102" fill="white" transform="translate(421.934 476.605) rotate(-164.126)"/>
</clipPath>
<clipPath id="clip2">
<rect width="48.4833" height="62.3357" fill="white" transform="translate(615.708 351.511) rotate(-78.5071)"/>
</clipPath>
</defs>
</svg>
