<svg width="293" height="566" viewBox="0 0 293 566" fill="none" xmlns="http://www.w3.org/2000/svg">
<path opacity="0.8" d="M6.57238 549.326C8.32727 548.435 10.4651 548.351 12.3674 549.286C15.5792 550.864 16.9035 554.747 15.3253 557.959C13.7471 561.171 9.86414 562.495 6.65239 560.917C5.51212 560.357 4.60977 559.506 3.99074 558.498" stroke="#6846ED" stroke-width="3" stroke-linejoin="round"/>
<path opacity="0.4" d="M117.243 2.46921L117.731 18.7964L103.347 11.0556L117.243 2.46921Z" stroke="#6846ED" stroke-width="4" stroke-linejoin="round" stroke-dasharray="2 2"/>
<g opacity="0.7" clip-path="url(#clip0)">
<path d="M192.69 167.364L202.595 160.335L217.329 167.16L207.424 174.19L192.69 167.364Z" fill="#3F37AA"/>
<path d="M207.424 174.19L217.329 167.16L214.974 181.682L205.045 188.705L207.424 174.19Z" fill="#523ECC"/>
<path d="M190.311 181.879L192.69 167.364L207.424 174.19L205.045 188.705L190.311 181.879Z" fill="#6846ED"/>
</g>
<g opacity="0.9">
<path d="M291 474.345L278.7 490L252.76 485.81L265.06 470.155L291 474.345Z" fill="#3F37AA"/>
<path d="M265.06 470.155L252.76 485.81L250 461.655L262.339 446L265.06 470.155Z" fill="#523ECC"/>
<path d="M288.28 450.19L291 474.345L265.06 470.155L262.339 446L288.28 450.19Z" fill="#6846ED"/>
</g>
<g clip-path="url(#clip1)">
<path d="M200.233 479.071C199.905 480.362 199.063 481.612 197.896 482.538C197.821 482.587 197.733 482.698 197.657 482.748C197.268 483.056 196.829 483.29 196.339 483.449C194.568 485.738 192.797 488.027 190.437 489.68C190.048 489.988 189.621 490.16 189.132 490.319C189.282 490.543 189.382 490.693 189.545 490.855C190.635 491.917 191.8 492.929 192.953 494.004L220.454 519.949C220.516 519.962 220.504 520.024 220.566 520.036C220.617 520.111 220.679 520.124 220.792 520.212L220.855 520.224L220.917 520.237C220.98 520.25 220.98 520.25 221.03 520.325C221.03 520.325 221.03 520.325 221.093 520.337C221.156 520.35 221.206 520.425 221.268 520.438L221.331 520.45L221.394 520.463C221.457 520.476 221.457 520.476 221.519 520.489C221.582 520.501 221.707 520.527 221.757 520.602L221.82 520.614C221.883 520.627 221.945 520.64 221.945 520.64C222.008 520.653 222.134 520.678 222.196 520.691C222.196 520.691 222.196 520.691 222.259 520.704C222.322 520.716 222.384 520.729 222.447 520.742C222.51 520.755 222.572 520.767 222.635 520.78L222.698 520.793C222.698 520.793 222.698 520.793 222.761 520.806C222.886 520.831 223.024 520.795 223.149 520.82L223.212 520.833C223.212 520.833 223.212 520.833 223.275 520.846C223.337 520.858 223.337 520.858 223.413 520.809C223.475 520.822 223.551 520.772 223.613 520.785C223.676 520.798 223.752 520.749 223.752 520.749C223.814 520.761 223.89 520.712 224.015 520.738C224.078 520.75 224.078 520.75 224.153 520.701C224.216 520.714 224.228 520.652 224.291 520.665C224.492 520.641 224.63 520.604 224.843 520.518C224.906 520.531 224.918 520.469 224.981 520.482C224.981 520.482 225.044 520.494 225.056 520.432C225.056 520.432 225.119 520.445 225.132 520.383C225.345 520.297 225.621 520.224 225.847 520.076C225.91 520.089 225.922 520.027 225.998 519.978C226.073 519.928 226.148 519.879 226.211 519.892C226.362 519.793 226.5 519.757 226.65 519.658C226.726 519.609 226.726 519.609 226.788 519.621C226.864 519.572 227.002 519.536 227.089 519.424C227.24 519.326 227.466 519.178 227.617 519.079L227.692 519.03C227.767 518.981 227.843 518.931 227.855 518.869C227.931 518.82 228.006 518.771 228.094 518.659C228.169 518.61 228.182 518.548 228.257 518.499C228.332 518.449 228.332 518.449 228.408 518.4C228.42 518.338 228.483 518.351 228.496 518.289C228.584 518.177 228.734 518.079 228.822 517.967C228.822 517.967 228.835 517.905 228.897 517.918L228.973 517.869C229.048 517.819 229.123 517.77 229.136 517.708C229.337 517.684 229.425 517.573 229.513 517.462C229.513 517.462 229.513 517.462 229.525 517.4C229.6 517.35 229.688 517.239 229.764 517.19C229.852 517.078 229.94 516.967 230.015 516.918C230.115 516.744 230.191 516.695 230.279 516.583C230.367 516.472 230.455 516.361 230.53 516.311C230.618 516.2 230.706 516.089 230.731 515.965C230.819 515.853 230.832 515.791 230.919 515.68C231.007 515.569 231.033 515.444 231.121 515.333C231.133 515.271 231.221 515.16 231.234 515.098L231.246 515.036L231.259 514.974C231.347 514.862 231.372 514.738 231.46 514.627C231.473 514.565 231.473 514.565 231.548 514.515C231.561 514.453 231.561 514.453 231.636 514.404C231.649 514.342 231.661 514.28 231.724 514.293C231.812 514.181 231.85 513.995 231.875 513.871C231.913 513.685 232.013 513.512 232.038 513.387L232.051 513.325C232.076 513.201 232.089 513.139 232.114 513.015C232.127 512.953 232.152 512.829 232.165 512.767L232.177 512.705C232.202 512.581 232.228 512.457 232.253 512.333C232.266 512.271 232.291 512.146 232.303 512.084C232.329 511.96 232.354 511.836 232.316 511.699C232.329 511.637 232.354 511.513 232.367 511.451C232.392 511.327 232.355 511.19 232.38 511.066C232.392 511.004 232.405 510.942 232.355 510.867C232.33 510.668 232.305 510.469 232.28 510.27C232.256 510.072 232.155 509.922 232.118 509.785C232.131 509.723 232.068 509.71 232.018 509.636C231.968 509.561 231.93 509.424 231.88 509.349C231.83 509.274 231.83 509.274 231.78 509.2C231.73 509.125 231.68 509.05 231.63 508.975C231.58 508.9 231.517 508.888 231.467 508.813C231.417 508.738 231.367 508.663 231.304 508.65L200.458 479.569C200.395 479.557 200.345 479.482 200.345 479.482C200.408 479.172 200.283 479.146 200.233 479.071Z" fill="url(#paint0_linear)"/>
<path d="M194.813 480.683C191.561 483.188 188.885 487.038 188.819 489.286C188.754 491.534 191.351 491.287 194.54 488.769C197.791 486.264 200.467 482.414 200.533 480.166C200.661 477.931 198.064 478.178 194.813 480.683Z" fill="url(#paint1_linear)"/>
<path d="M194.962 481.23C192.15 483.502 189.7 486.881 189.573 488.793C189.445 490.706 191.653 490.444 194.465 488.172C197.277 485.901 199.727 482.522 199.855 480.61C200.045 478.71 197.837 478.972 194.962 481.23Z" fill="url(#paint2_radial)"/>
<path d="M195.212 481.927C192.852 483.903 190.779 486.712 190.539 488.214C190.299 489.716 192.005 489.352 194.303 487.364C196.663 485.389 198.736 482.579 198.976 481.077C199.279 479.588 197.56 480.014 195.212 481.927Z" fill="url(#paint3_linear)"/>
</g>
<path opacity="0.5" d="M273.634 246.857L274.371 239.164L280.665 243.649L273.634 246.857Z" stroke="#6846ED" stroke-width="4" stroke-linejoin="round" stroke-dasharray="2 2"/>
<path opacity="0.8" d="M289.368 68.4742C290.216 71.3612 289.744 74.5981 287.807 77.1965C284.537 81.5833 278.33 82.4885 273.943 79.2184C269.556 75.9483 268.651 69.7411 271.921 65.3543C273.082 63.7969 274.613 62.6783 276.302 62.0295" stroke="#6846ED" stroke-width="5" stroke-linejoin="round"/>
<g opacity="0.5" clip-path="url(#clip2)">
<path d="M201.402 306.608L208.588 301.509L219.276 306.46L212.09 311.559L201.402 306.608Z" fill="#3F37AA"/>
<path d="M212.09 311.559L219.276 306.46L217.567 316.994L210.365 322.088L212.09 311.559Z" fill="#523ECC"/>
<path d="M199.677 317.137L201.402 306.608L212.09 311.559L210.365 322.088L199.677 317.137Z" fill="#6846ED"/>
</g>
<defs>
<linearGradient id="paint0_linear" x1="217.925" y1="494.85" x2="207.259" y2="506.308" gradientUnits="userSpaceOnUse">
<stop stop-color="#3F37AA"/>
<stop offset="0.1544" stop-color="#4138AE"/>
<stop offset="0.3103" stop-color="#483ABA"/>
<stop offset="0.4515" stop-color="#523ECC"/>
<stop offset="0.8328" stop-color="#6846ED"/>
</linearGradient>
<linearGradient id="paint1_linear" x1="196.252" y1="493.505" x2="192.965" y2="473.861" gradientUnits="userSpaceOnUse">
<stop stop-color="#AFAEB3"/>
<stop offset="0.3157" stop-color="#A3A2A6"/>
<stop offset="0.899" stop-color="#838384"/>
<stop offset="1" stop-color="#7D7D7D"/>
</linearGradient>
<radialGradient id="paint2_radial" cx="0" cy="0" r="1" gradientUnits="userSpaceOnUse" gradientTransform="translate(194.747 484.713) rotate(-46.7556) scale(12.0936 4.64602)">
<stop stop-color="#F3D7D6"/>
<stop offset="0.2419" stop-color="#ECD2D1"/>
<stop offset="0.378" stop-color="#E7CBC8"/>
<stop offset="0.5989" stop-color="#D9B8B0"/>
<stop offset="0.6452" stop-color="#D5B3AA"/>
<stop offset="1" stop-color="#A98C7A"/>
</radialGradient>
<linearGradient id="paint3_linear" x1="194.484" y1="485.687" x2="193.425" y2="489.231" gradientUnits="userSpaceOnUse">
<stop stop-color="#D5B3AA"/>
<stop offset="1" stop-color="#A98C7A"/>
</linearGradient>
<clipPath id="clip0">
<rect width="25.3502" height="26.6177" fill="white" transform="translate(212.383 190.792) rotate(-164.126)"/>
</clipPath>
<clipPath id="clip1">
<rect width="36.7255" height="47.2186" fill="white" transform="translate(184 512.989) rotate(-78.5071)"/>
</clipPath>
<clipPath id="clip2">
<rect width="18.389" height="19.3085" fill="white" transform="translate(215.688 323.602) rotate(-164.126)"/>
</clipPath>
</defs>
</svg>
