<svg width="332" height="413" viewBox="0 0 332 413" fill="none" xmlns="http://www.w3.org/2000/svg">
<rect x="1" y="0.941406" width="34.2353" height="34.2353" stroke="#2BEBC8" stroke-width="0.713235"/>
<rect x="35.2354" y="0.941406" width="34.2353" height="34.2353" stroke="#2BEBC8" stroke-width="0.713235"/>
<rect x="69.4706" y="0.941406" width="34.2353" height="34.2353" stroke="#2BEBC8" stroke-width="0.713235"/>
<rect x="103.706" y="0.941406" width="34.2353" height="34.2353" stroke="#2BEBC8" stroke-width="0.713235"/>
<rect x="137.941" y="0.941406" width="34.2353" height="34.2353" stroke="#2BEBC8" stroke-width="0.713235"/>
<rect x="172.177" y="0.941406" width="34.2353" height="34.2353" stroke="#2BEBC8" stroke-width="0.713235"/>
<rect x="206.412" y="0.941406" width="34.2353" height="34.2353" stroke="#2BEBC8" stroke-width="0.713235"/>
<rect x="240.647" y="0.941406" width="34.2353" height="34.2353" stroke="#2BEBC8" stroke-width="0.713235"/>
<rect x="274.882" y="0.941406" width="34.2353" height="34.2353" stroke="#2BEBC8" stroke-width="0.713235"/>
<rect x="309.118" y="0.941406" width="34.2353" height="34.2353" stroke="#2BEBC8" stroke-width="0.713235"/>
<rect x="1" y="35.1763" width="34.2353" height="34.2353" stroke="#2BEBC8" stroke-width="0.713235"/>
<rect x="35.2354" y="35.1763" width="34.2353" height="34.2353" stroke="#2BEBC8" stroke-width="0.713235"/>
<rect x="69.4706" y="35.1763" width="34.2353" height="34.2353" stroke="#2BEBC8" stroke-width="0.713235"/>
<rect x="103.706" y="35.1763" width="34.2353" height="34.2353" stroke="#2BEBC8" stroke-width="0.713235"/>
<rect x="137.941" y="35.1763" width="34.2353" height="34.2353" stroke="#2BEBC8" stroke-width="0.713235"/>
<rect x="172.177" y="35.1763" width="34.2353" height="34.2353" stroke="#2BEBC8" stroke-width="0.713235"/>
<rect x="206.412" y="35.1763" width="34.2353" height="34.2353" stroke="#2BEBC8" stroke-width="0.713235"/>
<rect x="240.647" y="35.1763" width="34.2353" height="34.2353" stroke="#2BEBC8" stroke-width="0.713235"/>
<rect x="274.882" y="35.1763" width="34.2353" height="34.2353" stroke="#2BEBC8" stroke-width="0.713235"/>
<rect x="309.118" y="35.1763" width="34.2353" height="34.2353" stroke="#2BEBC8" stroke-width="0.713235"/>
<rect x="1" y="69.4116" width="34.2353" height="34.2353" stroke="#2BEBC8" stroke-width="0.713235"/>
<rect x="35.2354" y="69.4116" width="34.2353" height="34.2353" stroke="#2BEBC8" stroke-width="0.713235"/>
<rect x="69.4706" y="69.4116" width="34.2353" height="34.2353" stroke="#2BEBC8" stroke-width="0.713235"/>
<rect x="103.706" y="69.4116" width="34.2353" height="34.2353" stroke="#2BEBC8" stroke-width="0.713235"/>
<rect x="137.941" y="69.4116" width="34.2353" height="34.2353" stroke="#2BEBC8" stroke-width="0.713235"/>
<rect x="172.177" y="69.4116" width="34.2353" height="34.2353" stroke="#2BEBC8" stroke-width="0.713235"/>
<rect x="206.412" y="69.4116" width="34.2353" height="34.2353" stroke="#2BEBC8" stroke-width="0.713235"/>
<rect x="240.647" y="69.4116" width="34.2353" height="34.2353" stroke="#2BEBC8" stroke-width="0.713235"/>
<rect x="274.882" y="69.4116" width="34.2353" height="34.2353" stroke="#2BEBC8" stroke-width="0.713235"/>
<rect x="309.118" y="69.4116" width="34.2353" height="34.2353" stroke="#2BEBC8" stroke-width="0.713235"/>
<rect x="1" y="103.647" width="34.2353" height="34.2353" stroke="#2BEBC8" stroke-width="0.713235"/>
<rect x="35.2354" y="103.647" width="34.2353" height="34.2353" stroke="#2BEBC8" stroke-width="0.713235"/>
<rect x="69.4706" y="103.647" width="34.2353" height="34.2353" stroke="#2BEBC8" stroke-width="0.713235"/>
<rect x="103.706" y="103.647" width="34.2353" height="34.2353" stroke="#2BEBC8" stroke-width="0.713235"/>
<rect x="137.941" y="103.647" width="34.2353" height="34.2353" stroke="#2BEBC8" stroke-width="0.713235"/>
<rect x="172.177" y="103.647" width="34.2353" height="34.2353" stroke="#2BEBC8" stroke-width="0.713235"/>
<rect x="206.412" y="103.647" width="34.2353" height="34.2353" stroke="#2BEBC8" stroke-width="0.713235"/>
<rect x="240.647" y="103.647" width="34.2353" height="34.2353" stroke="#2BEBC8" stroke-width="0.713235"/>
<rect x="274.882" y="103.647" width="34.2353" height="34.2353" stroke="#2BEBC8" stroke-width="0.713235"/>
<rect x="309.118" y="103.647" width="34.2353" height="34.2353" stroke="#2BEBC8" stroke-width="0.713235"/>
<rect x="1" y="137.882" width="34.2353" height="34.2353" stroke="#2BEBC8" stroke-width="0.713235"/>
<rect x="35.2354" y="137.882" width="34.2353" height="34.2353" stroke="#2BEBC8" stroke-width="0.713235"/>
<rect x="69.4706" y="137.882" width="34.2353" height="34.2353" stroke="#2BEBC8" stroke-width="0.713235"/>
<rect x="103.706" y="137.882" width="34.2353" height="34.2353" stroke="#2BEBC8" stroke-width="0.713235"/>
<rect x="137.941" y="137.882" width="34.2353" height="34.2353" stroke="#2BEBC8" stroke-width="0.713235"/>
<rect x="172.177" y="137.882" width="34.2353" height="34.2353" stroke="#2BEBC8" stroke-width="0.713235"/>
<rect x="206.412" y="137.882" width="34.2353" height="34.2353" stroke="#2BEBC8" stroke-width="0.713235"/>
<rect x="240.647" y="137.882" width="34.2353" height="34.2353" stroke="#2BEBC8" stroke-width="0.713235"/>
<rect x="274.882" y="137.882" width="34.2353" height="34.2353" stroke="#2BEBC8" stroke-width="0.713235"/>
<rect x="309.118" y="137.882" width="34.2353" height="34.2353" stroke="#2BEBC8" stroke-width="0.713235"/>
<rect x="1" y="172.118" width="34.2353" height="34.2353" stroke="#2BEBC8" stroke-width="0.713235"/>
<rect x="35.2354" y="172.118" width="34.2353" height="34.2353" stroke="#2BEBC8" stroke-width="0.713235"/>
<rect x="69.4706" y="172.118" width="34.2353" height="34.2353" stroke="#2BEBC8" stroke-width="0.713235"/>
<rect x="103.706" y="172.118" width="34.2353" height="34.2353" stroke="#2BEBC8" stroke-width="0.713235"/>
<rect x="137.941" y="172.118" width="34.2353" height="34.2353" stroke="#2BEBC8" stroke-width="0.713235"/>
<rect x="172.177" y="172.118" width="34.2353" height="34.2353" stroke="#2BEBC8" stroke-width="0.713235"/>
<rect x="206.412" y="172.118" width="34.2353" height="34.2353" stroke="#2BEBC8" stroke-width="0.713235"/>
<rect x="240.647" y="172.118" width="34.2353" height="34.2353" stroke="#2BEBC8" stroke-width="0.713235"/>
<rect x="274.882" y="172.118" width="34.2353" height="34.2353" stroke="#2BEBC8" stroke-width="0.713235"/>
<rect x="309.118" y="172.118" width="34.2353" height="34.2353" stroke="#2BEBC8" stroke-width="0.713235"/>
<rect x="1" y="206.353" width="34.2353" height="34.2353" stroke="#2BEBC8" stroke-width="0.713235"/>
<rect x="35.2354" y="206.353" width="34.2353" height="34.2353" stroke="#2BEBC8" stroke-width="0.713235"/>
<rect x="69.4706" y="206.353" width="34.2353" height="34.2353" stroke="#2BEBC8" stroke-width="0.713235"/>
<rect x="103.706" y="206.353" width="34.2353" height="34.2353" stroke="#2BEBC8" stroke-width="0.713235"/>
<rect x="137.941" y="206.353" width="34.2353" height="34.2353" stroke="#2BEBC8" stroke-width="0.713235"/>
<rect x="172.177" y="206.353" width="34.2353" height="34.2353" stroke="#2BEBC8" stroke-width="0.713235"/>
<rect x="206.412" y="206.353" width="34.2353" height="34.2353" stroke="#2BEBC8" stroke-width="0.713235"/>
<rect x="240.647" y="206.353" width="34.2353" height="34.2353" stroke="#2BEBC8" stroke-width="0.713235"/>
<rect x="274.882" y="206.353" width="34.2353" height="34.2353" stroke="#2BEBC8" stroke-width="0.713235"/>
<rect x="309.118" y="206.353" width="34.2353" height="34.2353" stroke="#2BEBC8" stroke-width="0.713235"/>
<rect x="1" y="240.588" width="34.2353" height="34.2353" stroke="#2BEBC8" stroke-width="0.713235"/>
<rect x="35.2354" y="240.588" width="34.2353" height="34.2353" stroke="#2BEBC8" stroke-width="0.713235"/>
<rect x="69.4706" y="240.588" width="34.2353" height="34.2353" stroke="#2BEBC8" stroke-width="0.713235"/>
<rect x="103.706" y="240.588" width="34.2353" height="34.2353" stroke="#2BEBC8" stroke-width="0.713235"/>
<rect x="137.941" y="240.588" width="34.2353" height="34.2353" stroke="#2BEBC8" stroke-width="0.713235"/>
<rect x="172.177" y="240.588" width="34.2353" height="34.2353" stroke="#2BEBC8" stroke-width="0.713235"/>
<rect x="206.412" y="240.588" width="34.2353" height="34.2353" stroke="#2BEBC8" stroke-width="0.713235"/>
<rect x="240.647" y="240.588" width="34.2353" height="34.2353" stroke="#2BEBC8" stroke-width="0.713235"/>
<rect x="274.882" y="240.588" width="34.2353" height="34.2353" stroke="#2BEBC8" stroke-width="0.713235"/>
<rect x="309.118" y="240.588" width="34.2353" height="34.2353" stroke="#2BEBC8" stroke-width="0.713235"/>
<rect x="1" y="274.824" width="34.2353" height="34.2353" stroke="#2BEBC8" stroke-width="0.713235"/>
<rect x="35.2354" y="274.824" width="34.2353" height="34.2353" stroke="#2BEBC8" stroke-width="0.713235"/>
<rect x="69.4706" y="274.824" width="34.2353" height="34.2353" stroke="#2BEBC8" stroke-width="0.713235"/>
<rect x="103.706" y="274.824" width="34.2353" height="34.2353" stroke="#2BEBC8" stroke-width="0.713235"/>
<rect x="137.941" y="274.824" width="34.2353" height="34.2353" stroke="#2BEBC8" stroke-width="0.713235"/>
<rect x="172.177" y="274.824" width="34.2353" height="34.2353" stroke="#2BEBC8" stroke-width="0.713235"/>
<rect x="206.412" y="274.824" width="34.2353" height="34.2353" stroke="#2BEBC8" stroke-width="0.713235"/>
<rect x="240.647" y="274.824" width="34.2353" height="34.2353" stroke="#2BEBC8" stroke-width="0.713235"/>
<rect x="274.882" y="274.824" width="34.2353" height="34.2353" stroke="#2BEBC8" stroke-width="0.713235"/>
<rect x="309.118" y="274.824" width="34.2353" height="34.2353" stroke="#2BEBC8" stroke-width="0.713235"/>
<rect x="1" y="309.059" width="34.2353" height="34.2353" stroke="#2BEBC8" stroke-width="0.713235"/>
<rect x="35.2354" y="309.059" width="34.2353" height="34.2353" stroke="#2BEBC8" stroke-width="0.713235"/>
<rect x="69.4706" y="309.059" width="34.2353" height="34.2353" stroke="#2BEBC8" stroke-width="0.713235"/>
<rect x="103.706" y="309.059" width="34.2353" height="34.2353" stroke="#2BEBC8" stroke-width="0.713235"/>
<rect x="137.941" y="309.059" width="34.2353" height="34.2353" stroke="#2BEBC8" stroke-width="0.713235"/>
<rect x="172.177" y="309.059" width="34.2353" height="34.2353" stroke="#2BEBC8" stroke-width="0.713235"/>
<rect x="206.412" y="309.059" width="34.2353" height="34.2353" stroke="#2BEBC8" stroke-width="0.713235"/>
<rect x="240.647" y="309.059" width="34.2353" height="34.2353" stroke="#2BEBC8" stroke-width="0.713235"/>
<rect x="274.882" y="309.059" width="34.2353" height="34.2353" stroke="#2BEBC8" stroke-width="0.713235"/>
<rect x="309.118" y="309.059" width="34.2353" height="34.2353" stroke="#2BEBC8" stroke-width="0.713235"/>
<rect x="1" y="343.294" width="34.2353" height="34.2353" stroke="#2BEBC8" stroke-width="0.713235"/>
<rect x="35.2354" y="343.294" width="34.2353" height="34.2353" stroke="#2BEBC8" stroke-width="0.713235"/>
<rect x="69.4706" y="343.294" width="34.2353" height="34.2353" stroke="#2BEBC8" stroke-width="0.713235"/>
<rect x="103.706" y="343.294" width="34.2353" height="34.2353" stroke="#2BEBC8" stroke-width="0.713235"/>
<rect x="137.941" y="343.294" width="34.2353" height="34.2353" stroke="#2BEBC8" stroke-width="0.713235"/>
<rect x="172.177" y="343.294" width="34.2353" height="34.2353" stroke="#2BEBC8" stroke-width="0.713235"/>
<rect x="206.412" y="343.294" width="34.2353" height="34.2353" stroke="#2BEBC8" stroke-width="0.713235"/>
<rect x="240.647" y="343.294" width="34.2353" height="34.2353" stroke="#2BEBC8" stroke-width="0.713235"/>
<rect x="274.882" y="343.294" width="34.2353" height="34.2353" stroke="#2BEBC8" stroke-width="0.713235"/>
<rect x="309.118" y="343.294" width="34.2353" height="34.2353" stroke="#2BEBC8" stroke-width="0.713235"/>
<rect x="1" y="377.529" width="34.2353" height="34.2353" stroke="#2BEBC8" stroke-width="0.713235"/>
<rect x="35.2354" y="377.529" width="34.2353" height="34.2353" stroke="#2BEBC8" stroke-width="0.713235"/>
<rect x="69.4706" y="377.529" width="34.2353" height="34.2353" stroke="#2BEBC8" stroke-width="0.713235"/>
<rect x="103.706" y="377.529" width="34.2353" height="34.2353" stroke="#2BEBC8" stroke-width="0.713235"/>
<rect x="137.941" y="377.529" width="34.2353" height="34.2353" stroke="#2BEBC8" stroke-width="0.713235"/>
<rect x="172.177" y="377.529" width="34.2353" height="34.2353" stroke="#2BEBC8" stroke-width="0.713235"/>
<rect x="206.412" y="377.529" width="34.2353" height="34.2353" stroke="#2BEBC8" stroke-width="0.713235"/>
<rect x="240.647" y="377.529" width="34.2353" height="34.2353" stroke="#2BEBC8" stroke-width="0.713235"/>
<rect x="274.882" y="377.529" width="34.2353" height="34.2353" stroke="#2BEBC8" stroke-width="0.713235"/>
<rect x="309.118" y="377.529" width="34.2353" height="34.2353" stroke="#2BEBC8" stroke-width="0.713235"/>
</svg>
