<svg width="96" height="103" viewBox="0 0 96 103" fill="none" xmlns="http://www.w3.org/2000/svg">
<g opacity="0.5" clip-path="url(#clip0)">
<path d="M95.2183 58.1702C94.9056 58.0151 94.5929 57.8599 94.2802 57.8599C93.6548 57.8599 93.1857 58.1702 92.873 58.6355C92.7167 58.9458 92.5603 59.256 92.5603 59.5663C92.5603 59.7214 92.5603 60.0316 92.7167 60.1867C93.0294 60.8072 93.4984 61.2726 94.2802 61.2726C94.5929 61.2726 94.9056 61.1175 95.2183 60.9623C95.531 60.8072 95.6873 60.497 95.8437 60.1867C96 60.0316 96 59.7214 96 59.5663C96 59.256 95.8437 58.9458 95.6873 58.6355C95.531 58.4804 95.3746 58.3253 95.2183 58.1702Z" fill="white"/>
<path d="M77.3942 24.509C76.6124 24.509 75.8307 25.1295 75.6743 25.9051C75.6743 26.0602 75.6743 26.0602 75.6743 26.2154C75.6743 27.1461 76.4561 27.9217 77.3942 27.9217C78.3323 27.9217 79.114 27.1461 79.114 26.2154C79.114 26.0602 79.114 26.0602 79.114 25.9051C78.9577 25.1295 78.3323 24.509 77.3942 24.509Z" fill="white"/>
<path d="M77.3942 11.1687C77.8632 11.1687 78.1759 11.0136 78.4886 10.7033C77.5505 10.0828 76.7688 9.46235 75.8307 8.84187C75.6743 8.99699 75.6743 9.30723 75.6743 9.46235C75.8307 10.3931 76.4561 11.1687 77.3942 11.1687Z" fill="white"/>
<path d="M69.1076 16.1325C68.1695 16.1325 67.3877 16.9081 67.3877 17.8389C67.3877 18.7696 68.1695 19.5452 69.1076 19.5452C70.0457 19.5452 70.8274 18.7696 70.8274 17.8389C70.6711 16.9081 69.8893 16.1325 69.1076 16.1325Z" fill="white"/>
<path d="M85.8372 19.5452C86.3063 19.5452 86.7753 19.3901 87.088 19.0798C86.3063 18.1491 85.6808 17.3735 84.8991 16.5979C84.43 16.9081 84.2737 17.3735 84.2737 17.994C84.1173 18.7696 84.8991 19.5452 85.8372 19.5452Z" fill="white"/>
<path d="M60.9773 24.509C60.8209 24.509 60.8209 24.509 60.6646 24.509C60.5082 24.509 60.1955 24.509 60.0392 24.6642C59.5701 24.8193 59.1011 25.2846 59.1011 25.9051C59.1011 26.0602 59.1011 26.0602 59.1011 26.2154C59.1011 26.8358 59.5701 27.4563 60.1955 27.7666C60.3519 27.9217 60.6646 27.9217 60.8209 27.9217C60.9773 27.9217 60.9773 27.9217 61.1336 27.9217C61.9154 27.7666 62.5408 27.1461 62.5408 26.2154C62.5408 26.0602 62.5408 26.0602 62.5408 25.9051C62.0718 25.1295 61.6027 24.6642 60.9773 24.509Z" fill="white"/>
<path d="M60.9772 7.75602C60.8208 7.75602 60.8208 7.75602 60.6645 7.75602C60.5081 7.75602 60.1954 7.75602 60.039 7.91114C59.4136 8.22138 58.9446 8.68675 58.9446 9.46235C58.9446 10.238 59.4136 10.7033 60.039 11.0136C60.1954 11.1687 60.5081 11.1687 60.6645 11.1687C60.8208 11.1687 60.8208 11.1687 60.9772 11.1687C61.7589 11.0136 62.3843 10.3931 62.3843 9.46235C62.3843 8.53163 61.7589 7.91114 60.9772 7.75602Z" fill="white"/>
<path d="M77.3942 57.8599C76.7688 57.8599 76.2997 58.1702 75.987 58.6355C75.8307 58.9458 75.6743 59.256 75.6743 59.5663C75.6743 59.7214 75.6743 60.0316 75.8307 60.1867C76.1434 60.8072 76.6124 61.2726 77.3942 61.2726C78.0196 61.2726 78.645 60.8072 78.9577 60.1867C79.114 60.0316 79.114 59.7214 79.114 59.5663C79.114 59.256 78.9577 58.9458 78.8013 58.6355C78.4886 58.1702 78.0196 57.8599 77.3942 57.8599Z" fill="white"/>
<path d="M94.2802 44.5196C94.5929 44.5196 94.9056 44.3645 95.2183 44.2093C95.6873 43.8991 96 43.4337 96 42.8133C96 42.1928 95.6873 41.7274 95.2183 41.4172C94.9056 41.262 94.5929 41.1069 94.2802 41.1069C93.3421 41.1069 92.5603 41.8825 92.5603 42.8133C92.5603 43.744 93.3421 44.5196 94.2802 44.5196Z" fill="white"/>
<path d="M77.3942 41.262C76.4561 41.262 75.6743 42.0377 75.6743 42.9684C75.6743 43.8991 76.4561 44.6747 77.3942 44.6747C78.3323 44.6747 79.114 43.8991 79.114 42.9684C79.114 42.0377 78.3323 41.262 77.3942 41.262Z" fill="white"/>
<path d="M69.1076 49.4834C68.1695 49.4834 67.3877 50.259 67.3877 51.1898C67.3877 52.1205 68.1695 52.8961 69.1076 52.8961C70.0457 52.8961 70.8274 52.1205 70.8274 51.1898C70.6711 50.259 69.8893 49.4834 69.1076 49.4834Z" fill="white"/>
<path d="M85.8371 49.4834C84.899 49.4834 84.1172 50.259 84.1172 51.1898C84.1172 52.1205 84.899 52.8961 85.8371 52.8961C86.7752 52.8961 87.5569 52.1205 87.5569 51.1898C87.5569 50.259 86.7752 49.4834 85.8371 49.4834Z" fill="white"/>
<path d="M69.1076 32.8855C68.1695 32.8855 67.3877 33.6611 67.3877 34.5919C67.3877 35.5226 68.1695 36.2982 69.1076 36.2982C70.0457 36.2982 70.8274 35.5226 70.8274 34.5919C70.6711 33.6611 69.8893 32.8855 69.1076 32.8855Z" fill="white"/>
<path d="M85.8371 32.8855C84.899 32.8855 84.1172 33.6611 84.1172 34.5919C84.1172 35.5226 84.899 36.2982 85.8371 36.2982C86.7752 36.2982 87.5569 35.5226 87.5569 34.5919C87.5569 33.6611 86.7752 32.8855 85.8371 32.8855Z" fill="white"/>
<path d="M60.9772 58.0151C60.8208 58.0151 60.8208 58.0151 60.6645 58.0151C60.5081 58.0151 60.1954 58.0151 60.039 58.1702C59.7263 58.3253 59.4136 58.4804 59.2573 58.7907C59.1009 59.1009 58.9446 59.4111 58.9446 59.7214C58.9446 59.8765 58.9446 60.1867 59.1009 60.3419C59.2573 60.8072 59.57 61.1175 60.039 61.2726C60.1954 61.4277 60.5081 61.4277 60.6645 61.4277C60.8208 61.4277 60.8208 61.4277 60.9772 61.4277C61.6026 61.2726 61.9153 60.9623 62.228 60.497C62.3843 60.3419 62.3843 60.0316 62.3843 59.8765C62.3843 59.5663 62.228 59.256 62.0716 58.9458C61.7589 58.3253 61.4462 58.0151 60.9772 58.0151Z" fill="white"/>
<path d="M60.9772 41.262C60.8208 41.262 60.8208 41.262 60.6645 41.262C60.5081 41.262 60.1954 41.262 60.039 41.4172C59.4136 41.7274 58.9446 42.1928 58.9446 42.9684C58.9446 43.5889 59.4136 44.2093 60.039 44.5196C60.1954 44.6747 60.5081 44.6747 60.6645 44.6747C60.8208 44.6747 60.8208 44.6747 60.9772 44.6747C61.7589 44.5196 62.3843 43.8991 62.3843 42.9684C62.228 42.0377 61.7589 41.4172 60.9772 41.262Z" fill="white"/>
<path d="M78.3323 91.6762C78.1759 91.5211 78.0196 91.5211 77.7069 91.366C77.5505 91.366 77.5505 91.366 77.3942 91.366C77.2378 91.366 77.2378 91.366 77.0815 91.366C76.9251 91.366 76.6124 91.5211 76.4561 91.6762C76.2997 91.6762 76.2997 91.8313 76.1434 91.8313C75.987 91.9864 75.6743 92.2967 75.6743 92.6069C75.6743 92.7621 75.6743 92.7621 75.6743 92.9172C75.6743 93.3825 75.8307 93.6928 76.1434 94.003C76.6124 93.6928 77.2378 93.2274 77.7069 92.9172C78.0196 92.6069 78.4886 92.2967 78.8013 91.9864C78.8013 91.8313 78.645 91.8313 78.645 91.6762C78.4886 91.6762 78.4886 91.6762 78.3323 91.6762Z" fill="white"/>
<path d="M77.3942 74.6129C76.4561 74.6129 75.6743 75.3886 75.6743 76.3193C75.6743 77.25 76.4561 78.0256 77.3942 78.0256C78.3323 78.0256 79.114 77.25 79.114 76.3193C79.114 75.3886 78.3323 74.6129 77.3942 74.6129Z" fill="white"/>
<path d="M69.1076 82.9895C68.1695 82.9895 67.3877 83.7651 67.3877 84.6958C67.3877 85.6265 68.1695 86.4021 69.1076 86.4021C70.0457 86.4021 70.8274 85.6265 70.8274 84.6958C70.6711 83.7651 69.8893 82.9895 69.1076 82.9895Z" fill="white"/>
<path d="M85.8371 82.9895C84.8989 82.9895 84.1172 83.7651 84.1172 84.6958C84.1172 85.4714 84.5862 85.9367 85.2116 86.247C85.9934 85.4714 86.6188 84.6958 87.2442 83.7651C87.0879 83.2997 86.4625 82.9895 85.8371 82.9895Z" fill="white"/>
<path d="M69.1076 66.2365C68.1695 66.2365 67.3877 67.012 67.3877 67.9428C67.3877 68.8735 68.1695 69.6491 69.1076 69.6491C70.0457 69.6491 70.8274 68.8735 70.8274 67.9428C70.6711 67.012 69.8893 66.2365 69.1076 66.2365Z" fill="white"/>
<path d="M85.8371 66.2365C84.899 66.2365 84.1172 67.012 84.1172 67.9428C84.1172 68.8735 84.899 69.6491 85.8371 69.6491C86.7752 69.6491 87.5569 68.8735 87.5569 67.9428C87.5569 67.012 86.7752 66.2365 85.8371 66.2365Z" fill="white"/>
<path d="M61.759 91.8313C61.759 91.8313 61.6027 91.6762 61.4463 91.6762C61.29 91.5211 61.1336 91.5211 60.8209 91.366C60.6646 91.366 60.6646 91.366 60.5082 91.366C60.3519 91.366 60.3518 91.366 60.1955 91.366C60.0391 91.366 60.0391 91.366 59.8828 91.5211C59.7264 91.5211 59.7264 91.6762 59.5701 91.6762C59.4137 91.6762 59.4137 91.8313 59.2574 91.8313C59.101 91.9864 58.7883 92.2967 58.7883 92.6069C58.7883 92.762 58.7883 92.762 58.7883 92.9172C58.7883 93.5377 59.2574 94.1581 59.8828 94.4684C60.0391 94.6235 60.3519 94.6235 60.5082 94.6235C60.6646 94.6235 60.6646 94.6235 60.8209 94.6235C61.6027 94.4684 62.2281 93.8479 62.2281 92.9172C62.2281 92.762 62.2281 92.762 62.2281 92.6069C62.2281 92.2967 62.0717 91.9864 61.759 91.8313Z" fill="white"/>
<path d="M60.9772 74.6129C60.8208 74.6129 60.8208 74.6129 60.6645 74.6129C60.5081 74.6129 60.1954 74.6129 60.039 74.7681C59.4136 75.0783 58.9446 75.5437 58.9446 76.3193C58.9446 77.0949 59.4136 77.5602 60.039 77.8705C60.1954 78.0256 60.5081 78.0256 60.6645 78.0256C60.8208 78.0256 60.8208 78.0256 60.9772 78.0256C61.7589 77.8705 62.3843 77.25 62.3843 76.3193C62.228 75.5437 61.7589 74.7681 60.9772 74.6129Z" fill="white"/>
<path d="M43.7785 24.509C42.9967 24.509 42.2149 25.1295 42.0586 25.9051C42.0586 26.0602 42.0586 26.0602 42.0586 26.2154C42.0586 27.1461 42.8404 27.9217 43.7785 27.9217C44.7166 27.9217 45.4983 27.1461 45.4983 26.2154C45.4983 26.0602 45.4983 26.0602 45.4983 25.9051C45.342 25.1295 44.5602 24.509 43.7785 24.509Z" fill="white"/>
<path d="M43.7785 7.75602C42.8404 7.75602 42.0586 8.53163 42.0586 9.46235C42.0586 10.3931 42.8404 11.1687 43.7785 11.1687C44.7166 11.1687 45.4983 10.3931 45.4983 9.46235C45.4983 8.53163 44.7166 7.75602 43.7785 7.75602Z" fill="white"/>
<path d="M35.3356 16.1325C34.3975 16.1325 33.6157 16.9081 33.6157 17.8389C33.6157 18.7696 34.3975 19.5452 35.3356 19.5452C36.2737 19.5452 37.0555 18.7696 37.0555 17.8389C37.0555 16.9081 36.2737 16.1325 35.3356 16.1325Z" fill="white"/>
<path d="M52.2216 16.1325C51.2835 16.1325 50.5017 16.9081 50.5017 17.8389C50.5017 18.7696 51.2835 19.5452 52.2216 19.5452C53.1597 19.5452 53.9415 18.7696 53.9415 17.8389C53.9415 16.9081 53.1597 16.1325 52.2216 16.1325Z" fill="white"/>
<path d="M33.772 1.39609C33.9283 2.17169 34.5537 2.79217 35.4918 2.79217C36.43 2.79217 37.2117 2.01657 37.2117 1.08584C37.2117 0.930724 37.2117 0.775603 37.2117 0.620483C35.8045 0.930724 34.7101 1.08584 33.772 1.39609Z" fill="white"/>
<path d="M50.9708 0C50.6581 0.310241 50.5017 0.620482 50.5017 1.08584C50.5017 2.01657 51.2835 2.79217 52.2216 2.79217C53.1597 2.79217 53.9415 2.01657 53.9415 1.08584C53.9415 0.775602 53.7851 0.465361 53.7851 0.310241C52.6906 0.15512 51.9089 0 50.9708 0Z" fill="white"/>
<path d="M27.8305 24.8193C27.5178 24.6642 27.2051 24.509 26.8924 24.509C26.736 24.509 26.4233 24.509 26.267 24.6642C25.7979 24.8193 25.3289 25.2846 25.3289 25.9051C25.3289 26.0602 25.3289 26.0602 25.3289 26.2154C25.3289 26.8358 25.7979 27.4563 26.4233 27.7666C26.5797 27.9217 26.8924 27.9217 27.0487 27.9217C27.3614 27.9217 27.6741 27.7666 27.9868 27.6114C28.4559 27.3012 28.7686 26.8358 28.7686 26.2154C28.7686 26.0602 28.7686 26.0602 28.7686 25.9051C28.4559 25.4398 28.2995 24.9744 27.8305 24.8193Z" fill="white"/>
<path d="M27.8306 8.06626C27.6742 7.91114 27.3615 7.75602 26.8925 7.75602C26.7361 7.75602 26.4234 7.75602 26.2671 7.91114C25.6417 8.22138 25.1726 8.68675 25.1726 9.46235C25.1726 10.238 25.6417 10.7033 26.2671 11.0136C26.4234 11.1687 26.7361 11.1687 26.8925 11.1687C27.2052 11.1687 27.5179 11.0136 27.8306 10.8584C28.2996 10.5482 28.6123 10.0828 28.6123 9.46235C28.6123 8.84187 28.2996 8.37651 27.8306 8.06626Z" fill="white"/>
<path d="M43.7785 57.8599C43.1531 57.8599 42.684 58.1702 42.3713 58.6355C42.2149 58.9458 42.0586 59.256 42.0586 59.5663C42.0586 59.7214 42.0586 60.0316 42.2149 60.1867C42.5276 60.8072 42.9967 61.2726 43.7785 61.2726C44.4039 61.2726 45.0293 60.8072 45.342 60.1867C45.4983 60.0316 45.4983 59.7214 45.4983 59.5663C45.4983 59.256 45.342 58.9458 45.1856 58.6355C44.8729 58.1702 44.4039 57.8599 43.7785 57.8599Z" fill="white"/>
<path d="M43.7785 41.262C42.8404 41.262 42.0586 42.0377 42.0586 42.9684C42.0586 43.8991 42.8404 44.6747 43.7785 44.6747C44.7166 44.6747 45.4983 43.8991 45.4983 42.9684C45.4983 42.0377 44.7166 41.262 43.7785 41.262Z" fill="white"/>
<path d="M35.3356 49.4834C34.3975 49.4834 33.6157 50.259 33.6157 51.1898C33.6157 52.1205 34.3975 52.8961 35.3356 52.8961C36.2737 52.8961 37.0555 52.1205 37.0555 51.1898C37.0555 50.259 36.2737 49.4834 35.3356 49.4834Z" fill="white"/>
<path d="M52.2216 49.4834C51.2835 49.4834 50.5017 50.259 50.5017 51.1898C50.5017 52.1205 51.2835 52.8961 52.2216 52.8961C53.1597 52.8961 53.9415 52.1205 53.9415 51.1898C53.9415 50.259 53.1597 49.4834 52.2216 49.4834Z" fill="white"/>
<path d="M35.3356 32.8855C34.3975 32.8855 33.6157 33.6611 33.6157 34.5919C33.6157 35.5226 34.3975 36.2982 35.3356 36.2982C36.2737 36.2982 37.0555 35.5226 37.0555 34.5919C37.0555 33.6611 36.2737 32.8855 35.3356 32.8855Z" fill="white"/>
<path d="M52.2216 32.8855C51.2835 32.8855 50.5017 33.6611 50.5017 34.5919C50.5017 35.5226 51.2835 36.2982 52.2216 36.2982C53.1597 36.2982 53.9415 35.5226 53.9415 34.5919C53.9415 33.6611 53.1597 32.8855 52.2216 32.8855Z" fill="white"/>
<path d="M27.8306 58.1702C27.5179 58.0151 27.2052 57.8599 26.8925 57.8599C26.7361 57.8599 26.4234 57.8599 26.2671 58.0151C25.9544 58.1702 25.6417 58.3253 25.4853 58.6355C25.329 58.9458 25.1726 59.256 25.1726 59.5663C25.1726 59.7214 25.1726 60.0316 25.329 60.1867C25.4853 60.6521 25.798 60.9624 26.2671 61.1175C26.4234 61.2726 26.7361 61.2726 26.8925 61.2726C27.2052 61.2726 27.5179 61.1175 27.8306 60.9623C28.1433 60.8072 28.2996 60.497 28.456 60.1867C28.6123 60.0316 28.6123 59.7214 28.6123 59.5663C28.6123 59.256 28.456 58.9458 28.2996 58.6355C28.1433 58.4804 27.9869 58.3253 27.8306 58.1702Z" fill="white"/>
<path d="M27.8306 41.4172C27.5179 41.262 27.2052 41.1069 26.8925 41.1069C26.7361 41.1069 26.4234 41.1069 26.2671 41.262C25.6417 41.5723 25.1726 42.0377 25.1726 42.8133C25.1726 43.4337 25.6417 44.0542 26.2671 44.3645C26.4234 44.5196 26.7361 44.5196 26.8925 44.5196C27.2052 44.5196 27.5179 44.3645 27.8306 44.2093C28.2996 43.8991 28.6123 43.4337 28.6123 42.8133C28.6123 42.3479 28.2996 41.7274 27.8306 41.4172Z" fill="white"/>
<path d="M45.0293 91.8313C45.0293 91.8313 44.8729 91.6762 44.7166 91.6762C44.5602 91.5211 44.4039 91.5211 44.0912 91.366C43.9348 91.366 43.9348 91.366 43.7785 91.366C43.6221 91.366 43.6221 91.366 43.4658 91.366C43.3094 91.366 42.9967 91.5211 42.8404 91.6762C42.684 91.6762 42.684 91.8313 42.5277 91.8313C42.3713 91.9864 42.0586 92.2967 42.0586 92.6069C42.0586 92.762 42.0586 92.762 42.0586 92.9172C42.0586 93.8479 42.8404 94.6235 43.7785 94.6235C44.7166 94.6235 45.4983 93.8479 45.4983 92.9172C45.4983 92.762 45.4983 92.762 45.4983 92.6069C45.342 92.2967 45.1856 91.9864 45.0293 91.8313Z" fill="white"/>
<path d="M43.7785 74.6129C42.8404 74.6129 42.0586 75.3886 42.0586 76.3193C42.0586 77.25 42.8404 78.0256 43.7785 78.0256C44.7166 78.0256 45.4983 77.25 45.4983 76.3193C45.4983 75.3886 44.7166 74.6129 43.7785 74.6129Z" fill="white"/>
<path d="M35.3356 82.9895C34.3975 82.9895 33.6157 83.7651 33.6157 84.6958C33.6157 85.6265 34.3975 86.4021 35.3356 86.4021C36.2737 86.4021 37.0555 85.6265 37.0555 84.6958C37.0555 83.7651 36.2737 82.9895 35.3356 82.9895Z" fill="white"/>
<path d="M52.2216 82.9895C51.2835 82.9895 50.5017 83.7651 50.5017 84.6958C50.5017 85.6265 51.2835 86.4021 52.2216 86.4021C53.1597 86.4021 53.9415 85.6265 53.9415 84.6958C53.9415 83.7651 53.1597 82.9895 52.2216 82.9895Z" fill="white"/>
<path d="M35.3356 66.2365C34.3975 66.2365 33.6157 67.012 33.6157 67.9428C33.6157 68.8735 34.3975 69.6491 35.3356 69.6491C36.2737 69.6491 37.0555 68.8735 37.0555 67.9428C37.0555 67.012 36.2737 66.2365 35.3356 66.2365Z" fill="white"/>
<path d="M52.2216 66.2365C51.2835 66.2365 50.5017 67.012 50.5017 67.9428C50.5017 68.8735 51.2835 69.6491 52.2216 69.6491C53.1597 69.6491 53.9415 68.8735 53.9415 67.9428C53.9415 67.012 53.1597 66.2365 52.2216 66.2365Z" fill="white"/>
<path d="M28.1433 91.8313C28.1433 91.8313 27.9869 91.6762 27.8306 91.6762C27.6742 91.5211 27.5179 91.5211 27.2052 91.366C27.0488 91.366 27.0488 91.366 26.8925 91.366C26.7361 91.366 26.7361 91.366 26.5798 91.366C26.4234 91.366 26.4234 91.366 26.2671 91.5211C26.1107 91.5211 26.1107 91.6762 25.9544 91.6762C25.798 91.6762 25.798 91.8313 25.6417 91.8313C25.4853 91.9864 25.1726 92.2967 25.1726 92.6069C25.1726 92.762 25.1726 92.762 25.1726 92.9172C25.1726 93.5377 25.6417 94.1581 26.2671 94.4684C26.4234 94.6235 26.7361 94.6235 26.8925 94.6235C27.2052 94.6235 27.5179 94.4684 27.8306 94.3132C28.2996 94.003 28.6123 93.5377 28.6123 92.9172C28.6123 92.762 28.6123 92.762 28.6123 92.6069C28.456 92.2967 28.2996 91.9864 28.1433 91.8313Z" fill="white"/>
<path d="M27.8306 74.9232C27.5179 74.7681 27.2052 74.6129 26.8925 74.6129C26.7361 74.6129 26.4234 74.6129 26.2671 74.7681C25.6417 75.0783 25.1726 75.5437 25.1726 76.3193C25.1726 77.0949 25.6417 77.5602 26.2671 77.8705C26.4234 78.0256 26.7361 78.0256 26.8925 78.0256C27.2052 78.0256 27.5179 77.8705 27.8306 77.7154C28.2996 77.4051 28.6123 76.9398 28.6123 76.3193C28.6123 75.6988 28.2996 75.2334 27.8306 74.9232Z" fill="white"/>
<path d="M35.3356 99.7425C34.3975 99.7425 33.6157 100.518 33.6157 101.449C33.6157 101.604 33.6157 101.604 33.6157 101.759C34.5538 102.069 35.6483 102.224 36.5864 102.38C36.7428 102.069 36.8991 101.759 36.8991 101.449C37.0555 100.363 36.2737 99.7425 35.3356 99.7425Z" fill="white"/>
<path d="M52.2216 99.7425C51.2835 99.7425 50.5017 100.518 50.5017 101.449C50.5017 102.224 51.1271 103 51.9089 103.155C52.2216 103.155 52.5343 103 52.847 103C53.4724 102.69 53.7851 102.224 53.7851 101.449C53.9415 100.363 53.1597 99.7425 52.2216 99.7425Z" fill="white"/>
<path d="M10.1627 24.509C9.38098 24.509 8.59922 25.1295 8.44287 25.9051C8.44287 26.0602 8.44287 26.0602 8.44287 26.2154C8.44287 27.1461 9.22463 27.9217 10.1627 27.9217C11.1009 27.9217 11.8826 27.1461 11.8826 26.2154C11.8826 26.0602 11.8826 26.0602 11.8826 25.9051C11.5699 25.1295 10.9445 24.509 10.1627 24.509Z" fill="white"/>
<path d="M18.4494 16.1325C17.5113 16.1325 16.7295 16.9081 16.7295 17.8389C16.7295 18.7696 17.5113 19.5452 18.4494 19.5452C19.3875 19.5452 20.1692 18.7696 20.1692 17.8389C20.1692 16.9081 19.3875 16.1325 18.4494 16.1325Z" fill="white"/>
<path d="M10.1627 57.8599C9.53733 57.8599 9.06828 58.1702 8.75557 58.6355C8.59922 58.9458 8.44287 59.256 8.44287 59.5663C8.44287 59.7214 8.44287 60.0316 8.59922 60.1867C8.91193 60.8072 9.38098 61.2726 10.1627 61.2726C10.7881 61.2726 11.4136 60.8072 11.7263 60.1867C11.8826 60.0316 11.8826 59.7214 11.8826 59.5663C11.8826 59.256 11.7263 58.9458 11.5699 58.6355C11.2572 58.1702 10.6318 57.8599 10.1627 57.8599Z" fill="white"/>
<path d="M10.1627 41.262C9.22463 41.262 8.44287 42.0377 8.44287 42.9684C8.44287 43.8991 9.22463 44.6747 10.1627 44.6747C11.1009 44.6747 11.8826 43.8991 11.8826 42.9684C11.8826 42.0377 11.1009 41.262 10.1627 41.262Z" fill="white"/>
<path d="M1.71987 49.4834C0.781759 49.4834 0 50.259 0 51.1898C0 52.1205 0.781759 52.8961 1.71987 52.8961C2.65798 52.8961 3.43974 52.1205 3.43974 51.1898C3.43974 50.259 2.65798 49.4834 1.71987 49.4834Z" fill="white"/>
<path d="M18.4494 49.4834C17.5113 49.4834 16.7295 50.259 16.7295 51.1898C16.7295 52.1205 17.5113 52.8961 18.4494 52.8961C19.3875 52.8961 20.1692 52.1205 20.1692 51.1898C20.1692 50.259 19.3875 49.4834 18.4494 49.4834Z" fill="white"/>
<path d="M1.71987 32.8855C0.781759 32.8855 0 33.6611 0 34.5919C0 35.5226 0.781759 36.2982 1.71987 36.2982C2.65798 36.2982 3.43974 35.5226 3.43974 34.5919C3.43974 33.6611 2.65798 32.8855 1.71987 32.8855Z" fill="white"/>
<path d="M18.4494 32.8855C17.5113 32.8855 16.7295 33.6611 16.7295 34.5919C16.7295 35.5226 17.5113 36.2982 18.4494 36.2982C19.3875 36.2982 20.1692 35.5226 20.1692 34.5919C20.1692 33.6611 19.3875 32.8855 18.4494 32.8855Z" fill="white"/>
<path d="M10.1627 74.6129C9.22463 74.6129 8.44287 75.3886 8.44287 76.3193C8.44287 77.25 9.22463 78.0256 10.1627 78.0256C11.1009 78.0256 11.8826 77.25 11.8826 76.3193C11.7263 75.3886 11.1009 74.6129 10.1627 74.6129Z" fill="white"/>
<path d="M18.4494 82.9895C17.5113 82.9895 16.7295 83.7651 16.7295 84.6958C16.7295 85.6265 17.5113 86.4021 18.4494 86.4021C19.3875 86.4021 20.1692 85.6265 20.1692 84.6958C20.1692 83.7651 19.3875 82.9895 18.4494 82.9895Z" fill="white"/>
<path d="M1.71987 66.2365C0.781759 66.2365 0 67.012 0 67.9428C0 68.8735 0.781759 69.6491 1.71987 69.6491C2.65798 69.6491 3.43974 68.8735 3.43974 67.9428C3.43974 67.012 2.65798 66.2365 1.71987 66.2365Z" fill="white"/>
<path d="M18.4494 66.2365C17.5113 66.2365 16.7295 67.012 16.7295 67.9428C16.7295 68.8735 17.5113 69.6491 18.4494 69.6491C19.3875 69.6491 20.1692 68.8735 20.1692 67.9428C20.1692 67.012 19.3875 66.2365 18.4494 66.2365Z" fill="white"/>
</g>
<defs>
<clipPath id="clip0">
<rect width="96" height="103" fill="white"/>
</clipPath>
</defs>
</svg>
