<svg width="696" height="611" viewBox="0 0 696 611" fill="none" xmlns="http://www.w3.org/2000/svg">
<g clip-path="url(#clip0)">
<path d="M547.058 93.8835H238.519C210.211 93.8835 187.264 116.896 187.264 145.283V374.6C187.264 402.987 210.211 426 238.519 426H547.058C575.365 426 598.313 402.987 598.313 374.6V145.283C598.313 116.896 575.365 93.8835 547.058 93.8835Z" fill="#2BEBC8"/>
<line x1="495.024" y1="137.647" x2="633.24" y2="16.976" stroke="white" stroke-width="0.5" stroke-linecap="round"/>
<line x1="95.0223" y1="488.647" x2="195.647" y2="399.978" stroke="white" stroke-width="0.5" stroke-linecap="round"/>
<line x1="129.022" y1="470.647" x2="229.647" y2="381.978" stroke="white" stroke-width="0.5" stroke-linecap="round"/>
<line x1="505.022" y1="147.647" x2="605.647" y2="58.9777" stroke="white" stroke-width="0.5" stroke-linecap="round"/>
<path opacity="0.9" d="M226.249 78.5H534.751C562.173 78.5 584.5 101.61 584.5 130.239V367.761C584.5 396.39 562.173 419.5 534.751 419.5H226.249C198.827 419.5 176.5 396.39 176.5 367.761V130.239C176.5 101.61 198.827 78.5 226.249 78.5Z" stroke="#6846ED" stroke-width="3"/>
<path d="M333.169 88.4838C334.056 89.6826 334.479 91.401 334.629 92.9395C334.96 96.4807 334.736 100.052 333.966 103.524C333.613 105.118 333.254 107.046 332.472 108.474C331.77 109.718 330.714 109.189 329.518 109.388C328.728 109.537 327.978 109.852 327.317 110.313C326.657 110.773 326.102 111.369 325.688 112.061C324.303 114.424 324.253 117.311 323.496 119.943C322.241 124.309 319.103 127.82 316.453 131.507C304.678 147.906 302.008 169.02 300.683 189.186C300.578 190.764 300.269 192.657 298.81 193.267C293.136 167.127 299.203 139.614 309.992 115.143C314.042 105.957 318.839 96.9406 325.723 89.6427C327.845 87.3899 330.206 86.3159 333.02 87.8095C333.648 88.1701 334.218 88.6249 334.709 89.1581C336.459 90.974 338.323 92.6774 340.287 94.2582C344.323 97.3361 348.63 100.04 353.154 102.335C362.618 107.33 372.58 111.396 382.542 115.353C401.5 122.875 421.26 130.138 441.633 129.279C457.074 128.625 461.766 129.669 474.104 120.288C474.373 120.078 475.937 119.064 477.865 117.79C479.464 116.731 483.768 112.75 484.53 124.224C484.689 126.607 486.358 111.851 486.423 111.506C486.647 110.293 485.77 109.174 484.898 108.304C482.201 105.596 479.03 103.408 475.544 101.851C470.867 99.7678 465.766 98.8787 460.72 98.0045L443.64 95.0474C415.97 90.2571 388.245 85.4617 360.242 83.4187C351.649 82.7943 342.504 82.5446 335.017 86.8204" fill="#0C0C0C"/>
<path d="M505.505 132.886C505.427 136.493 505.11 140.09 504.554 143.655C501.857 163.136 497.462 182.343 491.419 201.054C490.672 203.362 488.958 206.194 486.647 205.49C489.371 189.03 489.407 172.235 486.752 155.763C485.601 148.645 483.947 141.542 484.122 134.334C484.211 130.723 484.759 127.081 484.181 123.515C483.873 121.597 483.24 119.733 483.041 117.805C482.722 114.808 480.052 107.815 480.769 104.878C482.433 98.1694 487.504 95.4171 489.162 88.7086C489.989 85.3819 491.349 81.4807 494.672 80.6615C497.162 80.0421 499.837 81.6605 501.217 83.8434C502.596 86.0263 502.98 88.7086 503.244 91.2911C503.872 97.4152 503.817 103.479 503.742 109.618C503.702 113.954 504.41 118.365 504.823 122.676C505.225 126.065 505.453 129.473 505.505 132.886Z" fill="#0C0C0C"/>
<path d="M363.883 14.2611C377.93 17.463 388.739 28.4923 397.954 39.5914C401.44 43.8023 405.032 49.3669 402.79 54.3621C401.734 56.7098 399.582 58.3582 397.47 59.8117C385.934 67.8339 367.225 79.2328 353.746 83.2289C353.926 86.1961 362.807 84.8973 365.656 85.7265C369.641 86.8704 374.024 85.5417 378.109 86.1111C383.165 86.8154 388.335 86.6106 393.331 87.6646C399.508 88.9434 405.146 92.0204 411.079 94.1583C423.795 98.7788 437.708 99.1185 450.574 103.309C457.089 105.432 463.365 108.549 470.164 109.398C476.964 110.248 484.754 108.195 488.211 102.265C489.74 99.6429 490.263 96.556 491.538 93.8036C492.813 91.0513 495.309 88.4538 498.332 88.5937C499.329 88.6437 500.474 88.9833 501.321 88.4389C502.317 87.8095 502.382 86.3859 502.317 85.202C501.849 78.8 500.603 72.4793 498.606 66.3804C495.85 58.1852 492.07 50.3724 487.359 43.128C479.389 30.6402 469.098 19.3212 455.978 12.5778C450.3 9.6656 444.208 7.66755 438.096 5.84932C430.55 3.60151 422.904 1.61345 415.094 0.649387C408.354 -0.178775 401.543 -0.235754 394.791 0.47955C387.68 1.23035 380.68 2.81119 373.935 5.18996C370.566 6.37689 367.271 7.76468 364.067 9.34591C362.467 10.1351 360.889 10.9677 359.335 11.8435C358.563 12.2831 357.806 12.7676 357.029 13.2022C356.252 13.6367 355.405 13.7766 354.608 14.1712C341.588 20.6649 331.601 31.839 321.947 42.7434C319.342 45.6855 316.722 48.6576 314.764 52.0643C313.041 55.0614 311.87 58.3582 310.705 61.625L302.934 83.4837C300.942 89.1082 298.949 94.7427 297.455 100.532C294.347 112.885 293.764 125.718 293.291 138.45C292.902 148.89 292.643 159.714 296.678 169.35C299.558 152.124 304.961 135.42 312.712 119.778C315.462 114.234 318.5 108.834 321.539 103.439C324.527 98.1594 327.934 92.2801 333.628 89.5827C334.405 89.2131 335.122 88.8734 335.964 89.0383C337.09 89.2531 338.22 89.3979 339.341 89.6377C340.862 89.9578 342.351 90.4159 343.789 91.0064C346.633 92.1097 349.132 93.9549 351.027 96.3512C351.645 97.1685 352.16 98.0594 352.561 99.0036C353.338 100.842 353.657 102.84 354.13 104.783C354.835 107.678 355.891 110.476 357.273 113.115C352.444 110.115 347.913 106.655 343.744 102.785C342.693 101.786 341.672 100.787 340.726 99.7129C339.009 97.8135 337.658 95.6118 336.741 93.2192C336.475 92.6019 336.331 91.9385 336.318 91.2661C336.382 89.7676 337.812 89.318 338.968 88.8285C346.092 85.8488 353.503 83.6125 361.084 82.155C370.408 80.3667 379.967 79.7673 389.097 77.1599C398.228 74.5524 407.189 69.5523 411.896 61.2903C417.275 51.8345 415.96 39.4366 410.107 30.2705C404.255 21.1045 394.462 14.9554 384.071 11.7885C379.394 10.3699 374.503 9.49077 369.626 9.79048C364.944 10.1682 360.37 11.4042 356.132 13.4369" fill="#0C0C0C"/>
<path d="M359.036 154.584C353.298 152.477 347.212 151.485 341.104 151.662C335.58 151.552 330.016 151.448 324.567 152.357C323.272 152.571 321.285 152.147 321.648 150.883C321.757 150.611 321.928 150.368 322.146 150.174C327.626 144.389 335.979 142.531 343.859 141.467C346.021 141.095 348.222 140.996 350.409 141.173C351.946 141.395 353.462 141.744 354.942 142.216L362.737 144.469C369.118 146.312 375.534 148.171 381.481 151.133C383.713 152.242 385.869 153.505 388.001 154.809C389.934 155.988 391.921 157.282 393.032 159.26C394.143 161.238 394.028 164.1 392.19 165.419C390.89 166.343 389.087 166.273 387.623 165.644C386.044 164.959 384.968 163.795 383.752 162.647C383.175 162.102 382.368 161.947 381.63 161.712L378.562 160.748L366.05 156.802L359.036 154.584Z" fill="#0C0C0C"/>
<path d="M329.344 108.589C331.108 111.771 333.533 114.535 336.455 116.694C339.377 118.854 342.727 120.359 346.28 121.107C341.518 116.197 340.751 108.704 341.204 101.911C341.418 98.7788 341.812 95.5269 340.706 92.5898C339.162 88.4988 334.499 86.0212 330.245 86.5956C329.354 86.7155 328.203 86.8354 327.835 87.7595C327.398 88.9525 327.065 90.1808 326.838 91.4309C326.281 94.1741 326.176 96.9907 326.53 99.7678C326.91 102.859 327.864 105.851 329.344 108.589Z" fill="#0C0C0C"/>
<path d="M448.317 155.793C451.346 155.444 454.434 155.139 457.433 155.703C459.764 156.138 461.96 157.082 464.137 158.016C470.568 160.783 477.392 163.885 481.073 169.85C481.76 170.968 482.268 172.572 481.312 173.476C480.171 174.545 478.373 173.476 477.158 172.477C470.711 167.306 462.747 164.406 454.494 164.225C442.943 164.005 431.765 169.15 420.224 168.721C419.387 168.758 418.556 168.557 417.828 168.141C416.896 167.492 416.558 166.273 416.423 165.144C416.276 163.96 416.276 162.762 416.423 161.578C416.538 160.693 416.837 160.414 417.693 160.274L424.951 159.095C429.907 158.296 434.863 157.526 439.834 156.837C442.674 156.483 445.493 156.118 448.317 155.793Z" fill="#0C0C0C"/>
<path d="M334.589 163.985C332.676 165.184 330.748 166.802 330.385 169.035C332.278 169.535 334.081 168.121 335.645 166.947C339.004 164.334 342.928 162.548 347.101 161.732C353.846 160.564 360.685 162.602 367.225 164.62C368.541 164.964 369.806 165.478 370.991 166.148C371.539 166.493 372.062 167.247 372.659 167.452C372.418 166.96 372.079 166.523 371.663 166.168C370.933 165.358 370.144 164.603 369.302 163.91C367.205 162.202 364.435 161.223 361.875 160.464C358.962 159.601 355.946 159.131 352.909 159.065C349.876 158.994 346.847 159.321 343.898 160.039C340.969 160.753 338.153 161.876 335.535 163.376C335.241 163.586 334.913 163.785 334.589 163.985Z" fill="#0C0C0C"/>
<path d="M447.416 170.184C452.464 170.356 457.379 171.856 461.668 174.532C465.957 177.209 469.469 180.968 471.853 185.434L469.492 187.088C467.161 186.733 466.005 184.166 465.059 181.993C464.364 180.221 463.427 178.555 462.274 177.043C459.585 173.721 455.341 171.942 451.097 171.493C446.853 171.043 442.579 171.788 438.43 172.757C436.587 173.193 434.76 173.669 432.951 174.185C432.031 174.452 431.109 174.726 430.186 175.009C429.688 175.164 429.011 175.509 428.498 175.439C429.374 174.71 430.734 174.255 431.77 173.781C432.972 173.231 434.196 172.732 435.441 172.282C437.887 171.396 440.42 170.773 442.998 170.424C444.462 170.235 445.939 170.155 447.416 170.184Z" fill="#0C0C0C"/>
<path d="M354.832 164.884C356.481 164.981 358.112 165.28 359.689 165.773C361.134 166.287 362.536 166.915 363.883 167.652C366.871 169.18 369.86 170.729 372.465 172.872C375.07 175.014 377.197 177.867 377.919 181.129C376.007 181.129 374.532 179.535 373.177 178.181C370.908 175.908 368.349 173.946 365.566 172.347C365.367 172.197 365.139 172.09 364.896 172.034C364.653 171.977 364.402 171.971 364.157 172.017C363.659 172.187 363.414 172.737 363.195 173.221C362.575 174.623 361.655 175.871 360.499 176.876C359.344 177.881 357.982 178.618 356.511 179.036C355.029 179.423 353.469 179.4 351.999 178.969C350.529 178.538 349.203 177.715 348.162 176.588C346.17 174.28 345.801 170.594 347.525 168.096C346.049 167.71 344.486 167.847 343.1 168.484C341.714 169.121 340.59 170.22 339.919 171.593C339.784 172 339.554 172.368 339.246 172.667C338.817 172.919 338.314 173.016 337.822 172.941L334.215 172.807L332.362 172.737C331.899 172.737 331.247 172.692 331.795 172.202C333.331 170.893 335.011 169.762 336.801 168.83C340.325 166.913 344.166 165.647 348.138 165.094C350.362 164.87 352.598 164.8 354.832 164.884Z" fill="#0C0C0C"/>
<path d="M342.21 177.527C339.321 176.473 336.382 175.094 334.579 172.597C334.566 173.133 334.686 173.664 334.93 174.141C335.174 174.618 335.532 175.027 335.974 175.329C336.865 175.921 337.85 176.356 338.888 176.613C342.609 177.777 346.359 178.931 350.14 179.83C353.922 180.778 357.791 181.338 361.686 181.503C362.772 181.54 363.858 181.528 364.944 181.468C365.472 181.443 366 181.403 366.528 181.353C367.05 181.359 367.571 181.287 368.072 181.138C367.932 180.734 366.234 181.069 365.845 181.089C364.984 181.133 364.127 181.158 363.265 181.163C361.532 181.163 359.778 181.114 358.07 180.974C354.608 180.703 351.177 180.131 347.814 179.265C345.918 178.781 344.048 178.2 342.21 177.527Z" fill="#0C0C0C"/>
<path d="M367.763 183.831C362.986 185.484 357.756 186.593 352.91 185.16C352.133 184.927 351.373 184.643 350.633 184.31C350.04 184.046 348.97 183.736 348.526 183.257C347.943 182.622 348.8 182.542 349.234 182.577C350.09 182.647 350.947 182.732 351.799 182.822C355.206 183.177 358.608 183.636 362.035 183.821C362.996 183.871 363.958 183.906 364.924 183.906C365.422 183.906 365.885 183.906 366.368 183.906C366.835 183.941 367.303 183.916 367.763 183.831Z" fill="#0C0C0C"/>
<path d="M428.433 183.431C434.659 177.437 441.817 173.661 450.195 175.729C453.682 176.583 457.497 177.777 460.571 179.62L467.988 184.056C468.486 184.37 469.098 184.795 469.083 185.404C469.042 185.645 468.951 185.873 468.815 186.076C468.68 186.278 468.503 186.449 468.296 186.578C466.021 188.461 463.623 190.19 461.119 191.753C464.725 185.569 464.202 185.484 459.898 181.848C458.519 180.684 453.921 178.631 452.322 179.43C452.99 184.146 449.01 188.991 444.268 189.236C439.526 189.48 435.068 185.08 435.237 180.319C432.801 181.623 430.336 182.992 429.882 185.729C429.822 186.099 428.886 186.763 428.109 187.063C427.332 187.362 426.615 186.993 425.937 186.563C424.533 185.714 427.735 184.101 428.433 183.431Z" fill="#0C0C0C"/>
<path d="M457.597 191.923C453.398 193.571 448.746 193.761 444.273 193.202C440.857 192.771 437.484 192.048 434.191 191.039C433.802 190.919 433.17 190.684 433 190.285C433.563 190.23 434.415 190.699 434.993 190.854C435.775 191.074 436.562 191.269 437.354 191.433C438.956 191.762 440.576 191.999 442.206 192.143C445.508 192.403 448.825 192.438 452.133 192.248C453.059 192.208 453.981 192.158 454.902 192.098L456.282 192.013C456.722 192.04 457.164 192.009 457.597 191.923Z" fill="#0C0C0C"/>
<path d="M372.645 235.536C372.548 235.765 372.52 236.017 372.564 236.262C372.609 236.507 372.723 236.734 372.894 236.914C373.239 237.27 373.653 237.552 374.109 237.743C375.487 238.433 376.877 239.099 378.278 239.741C378.981 240.076 379.688 240.401 380.4 240.74C380.734 240.895 381.222 241.24 381.486 240.85C381.984 240.066 380.928 239.042 380.425 238.633C379.38 237.778 378.23 237.061 377.003 236.5C375.636 235.87 374.15 235.541 372.645 235.536Z" fill="#0C0C0C"/>
<path d="M386.148 242.169C390.826 246.02 397.715 246.255 403.373 244.097C404.867 243.528 406.297 242.813 407.776 242.199C410 241.28 412.314 240.597 414.68 240.161C415.502 240.006 416.523 239.966 416.981 240.66C417.629 241.66 416.483 242.823 415.427 243.373C409.519 246.442 402.677 247.177 396.255 245.431" fill="#0C0C0C"/>
<path d="M383.658 225.555C383.942 220.46 386.148 215.84 387.488 210.995C387.689 210.303 387.826 209.594 387.897 208.877C387.428 210.91 387.159 212.998 386.721 215.041C386.223 217.348 385.64 219.641 384.938 221.894C384.744 222.513 384.539 223.128 384.33 223.737C384.146 224.262 383.688 225.006 383.658 225.555Z" fill="#0C0C0C"/>
<path d="M408.787 185.814C408.359 188.836 408.917 192.008 407.936 194.9C408.355 193.392 408.688 191.861 408.932 190.315C409.264 188.766 409.576 187.218 409.868 185.669C410.142 184.295 410.581 182.837 410.615 181.433C410.615 181.168 410.695 180.434 410.496 180.199C410.297 179.965 410.177 180.594 410.102 180.829C409.528 182.451 409.088 184.119 408.787 185.814Z" fill="#0C0C0C"/>
<path d="M340.88 244.477C339.75 245.061 338.509 245.721 338.041 246.909C344.402 245.91 349.717 241.6 354.269 237.034C354.957 236.345 355.634 235.645 356.287 234.921C356.785 234.382 357.462 233.792 357.642 233.058C357.861 232.139 357.014 233.158 356.75 233.398C356.083 234.012 355.405 234.606 354.718 235.196C351.996 237.51 349.111 239.623 346.085 241.52C344.389 242.579 342.654 243.564 340.88 244.477Z" fill="#0C0C0C"/>
<path d="M288.962 208.517C289.122 213.557 289.784 219.506 294.153 222.004C294.974 222.473 296.07 223.178 295.727 224.067C292.564 223.352 290.208 220.54 289.127 217.473C288.046 214.406 288.021 211.084 288.011 207.833L287.951 190.989L287.921 182.457C287.921 180.12 287.747 177.612 288.723 175.429C289.221 174.285 289.968 172.722 290.93 171.898C290.666 172.407 290.435 172.932 290.237 173.471C289.98 174.668 289.792 175.879 289.675 177.098C289.341 179.62 289.112 182.148 288.957 184.685C288.644 189.745 288.634 194.82 288.728 199.885C288.803 202.758 288.873 205.635 288.962 208.517Z" fill="#0C0C0C"/>
<path d="M488.714 227.963C489.122 230.765 490.073 233.612 489.416 236.365C488.918 238.563 487.424 240.361 485.989 242.124L482.587 246.26C484.89 244.967 486.838 243.121 488.254 240.888C489.67 238.654 490.511 236.103 490.701 233.463C490.945 229.516 489.705 225.625 489.615 221.669C489.632 218.965 489.958 216.271 490.587 213.642C491.05 211.404 491.892 209.001 491.732 206.694C491.697 206.194 491.702 205.22 491.294 204.86C491.05 205.13 491.06 205.63 491 205.979L490.582 208.402L489.76 213.172C489.135 216.327 488.711 219.519 488.489 222.728C488.392 224.476 488.467 226.23 488.714 227.963Z" fill="#0C0C0C"/>
<path d="M299.413 211.894C298.611 215.8 296.967 219.491 296.125 223.382C295.388 226.784 295.278 230.291 295.169 233.767L294.705 248.383C294.656 249.926 294.616 251.515 295.169 252.954C295.667 254.212 296.568 255.266 297.126 256.5C298.461 259.457 297.729 263.298 299.886 265.716C300.384 266.286 301.031 266.715 301.495 267.34C302.063 268.21 302.431 269.196 302.571 270.227C303.537 275.032 304.095 280.147 306.934 284.138C308.737 286.676 311.332 288.559 313.14 291.086C314.242 292.762 315.194 294.533 315.985 296.376C318.747 302.171 322.143 307.639 326.111 312.68C326.714 313.445 327.745 314.269 328.527 313.679C328.709 313.529 328.856 313.342 328.96 313.13C331.341 309.009 330.33 303.679 328.064 299.498C325.797 295.317 322.415 291.851 319.79 287.885C315.178 280.926 313.011 272.669 310.954 264.567C307.965 252.804 305.066 240.995 303.253 228.992C302.553 224.577 302.101 220.126 301.898 215.66C301.644 208.986 302.715 202.008 300.802 195.614C300.568 194.85 300.304 185.459 299.572 185.779C299.144 186.638 298.476 196.444 298.825 197.393C299.173 198.342 298.969 199.016 299.203 199.99C299.803 202.502 300.048 205.087 299.931 207.668C299.871 209.088 299.698 210.501 299.413 211.894Z" fill="#0C0C0C"/>
<path d="M395.752 248.278C393.999 247.804 392.898 250.111 392.554 251.9L390.472 262.709C390.198 264.138 388.903 265.781 390.198 266.43C391.493 267.08 394.771 267.569 395.593 267.929C400.484 269.927 405.59 269.727 409.953 272.709C413.201 274.927 415.93 279.313 417.509 280.377C419.97 282.015 423.985 279.792 425.977 281.95C427.093 283.139 427.262 284.912 427.292 286.546C427.576 302.161 420.513 317.486 422.466 333.001C422.734 335.144 423.656 337.736 425.798 337.971C427.028 338.101 428.164 337.351 429.175 336.637L433.25 333.755C435.795 331.957 438.44 330.043 439.84 327.261C441.488 323.974 441.115 320.018 440.079 316.492C439.043 312.965 437.389 309.628 436.527 306.052C435.904 303.186 435.6 300.259 435.621 297.325C435.483 293.758 435.762 290.188 436.452 286.686C437.21 283.234 438.589 279.942 439.267 276.476C439.944 273.009 439.845 269.173 437.867 266.256C433.802 260.261 424.418 261.021 419.029 256.18C418.087 255.336 417.295 254.332 416.309 253.538C411.955 250.041 405.634 251.54 400.061 251.14C400.031 249.267 402.242 248.303 404.045 247.839L411.716 245.841C413.355 245.416 415.298 244.672 415.552 242.998L403.508 245.496C399.378 246.355 395.224 247.429 391.055 248.063C390.129 248.185 389.193 248.222 388.26 248.173C385.969 248.103 383.693 247.754 381.396 247.674C375.882 247.449 370.438 248.748 364.959 249.452C359.48 250.156 353.667 250.226 348.735 247.739C348.252 247.432 347.702 247.245 347.132 247.194C346.56 247.245 346.012 247.451 345.548 247.789C340.796 250.676 336.223 255.141 336.158 260.711C336.113 264.268 337.931 267.574 338.474 271.091C339.401 277.085 336.562 282.979 333.807 288.394L328.557 298.709C327.96 299.796 327.46 300.935 327.063 302.111C326.296 304.678 326.565 307.426 326.794 310.103C327.118 313.45 327.471 316.906 329.11 319.838C330.33 322.011 332.178 323.745 334.016 325.423C338.684 329.679 342.903 335.413 347.829 339.379C349.741 340.903 351.939 342.025 354.292 342.679C356.645 343.332 359.106 343.505 361.527 343.186C362.15 343.133 362.748 342.916 363.26 342.556C363.797 342.045 364.183 341.395 364.376 340.678C365.538 337.43 366.164 334.013 366.229 330.563C366.284 327.691 365.791 324.499 363.574 322.671C362.125 321.472 360.187 321.082 358.503 320.253C356.152 319.094 354.324 317.096 352.755 314.993C347.585 308.046 344.656 299.68 344.362 291.017C344.219 288.694 344.477 286.363 345.124 284.128C346.619 279.548 350.379 276.136 354.005 273.009C355.5 271.715 362.07 268.049 363.23 268.179C368.321 268.738 375.778 267.22 380.814 266.281C383.474 265.781 388.534 268.379 390.611 264.747C391.453 263.249 390.044 263.024 391.04 261.645C391.707 260.864 392.421 260.123 393.177 259.427C395.169 257.269 395.667 254.028 394.821 251.27C394.497 250.206 396.629 248.273 395.453 247.874C395.319 247.829 392.33 247.839 392.19 247.839" fill="#0C0C0C"/>
<path d="M372.4 284.293C373.138 284.793 373.959 285.352 374.124 286.226C374.288 287.1 373.77 287.865 373.307 288.584C370.188 293.488 368.559 299.196 368.62 305.013L373.282 302.515C373.56 304.83 373.313 307.178 372.56 309.384C373.983 307.137 375.953 305.289 378.283 304.014C379.035 307.545 373.023 310.507 374.742 313.659L382.711 307.361L382.781 310.463C384.38 310.997 385.142 308.18 386.766 307.8C388.818 307.301 390.497 310.907 392.365 309.928C392.762 309.645 393.114 309.301 393.406 308.909C394.104 308.231 395.037 307.849 396.01 307.844C396.982 307.838 397.919 308.209 398.626 308.879C398.521 306.821 398.79 304.184 400.753 303.569C402.631 302.98 404.499 304.843 406.456 304.643C406.566 302.425 406.635 300.033 405.41 298.15C404.767 297.175 403.816 296.436 403.179 295.457C401.057 292.18 403.801 288.254 404.369 284.583C401.171 285.617 392.778 285.082 390.193 284.468C383.658 282.969 380.126 283.664 373.526 279.757C370.677 278.074 366.747 277.2 366.054 273.953C370.099 273.454 373.566 276.606 377.322 278.204C385.456 281.666 394.9 277.704 403.592 279.268C404.857 279.498 406.162 279.877 407.079 280.766C407.995 281.656 407.911 282.47 407.203 283.544C409.694 283.479 417.23 280.352 417.24 279.762C417.24 279.293 415.701 278.389 415.417 278.014C410.107 271.021 400.369 269.522 391.712 268.024C388.833 267.524 385.924 267.025 383.005 267.17C379.688 267.305 376.45 268.169 373.153 268.603C370.79 268.901 368.404 268.96 366.03 268.778C364.675 268.673 360.585 266.106 359.903 267.779C359.38 269.063 361.771 272.609 362.393 273.718C363.483 275.59 364.778 277.334 366.254 278.918C368.071 280.96 370.136 282.765 372.4 284.293Z" fill="#0C0C0C"/>
<path d="M365.806 319.204C366.996 319.704 368.102 320.513 369.387 320.618C373.422 320.952 375.12 314.848 379.055 313.919C378.841 315.368 378.637 316.916 379.215 318.245C379.793 319.574 381.471 320.563 382.751 319.853C383.349 319.524 383.748 318.894 384.375 318.615C386.168 317.8 387.618 320.158 389.132 321.417C391.289 323.21 394.99 322.551 396.405 320.128C396.828 322.746 398.133 326.122 400.763 325.813C400.569 324.973 401.58 324.269 402.437 324.369C403.293 324.469 404.001 325.048 404.738 325.498C409.634 328.495 418.879 323.29 424.02 320.723C423.82 324.219 423.751 327.146 426.057 329.769C427.173 331.038 426.968 335.653 426.859 337.341C426.714 339.549 424.119 340.548 422.052 341.337C417.285 343.151 413.231 346.423 408.778 348.91C400.492 353.51 390.964 355.354 381.566 354.175C376.744 353.556 372.062 352.147 367.41 350.748C361.348 348.92 355.042 346.957 350.474 342.566C348.416 340.58 346.8 338.18 345.732 335.523C345.241 334.466 345.033 333.299 345.129 332.136C345.333 330.723 346.275 329.534 347.241 328.48C349.398 326.126 351.837 324.048 354.504 322.296C355.042 321.941 355.604 321.687 356.162 321.377C356.671 321.021 357.158 320.636 357.622 320.223C358.719 319.431 359.987 318.909 361.323 318.7C362.835 318.442 364.388 318.617 365.806 319.204Z" fill="#0C0C0C"/>
<path d="M461.014 303.015C458.862 304.643 458.783 304.943 456.626 307.226C456.083 307.8 454.489 310.083 453.996 310.722C453.139 311.806 445.757 320.238 444.666 321.042C442.529 322.606 441.414 324.579 439.755 326.647C438.096 328.715 435.909 330.643 433.279 330.823L432.662 320.772C432.51 319.454 432.574 318.119 432.851 316.821C433.598 314.044 436.134 312.191 438.48 310.532C445.349 305.677 452.108 300.437 457.119 293.669C459.789 290.062 461.911 286.091 464.028 282.13L468.062 274.572C470.408 270.177 472.814 265.581 473.043 260.586C473.035 259.631 473.091 258.676 473.213 257.729C473.43 256.767 473.747 255.832 474.159 254.937C476.236 249.867 477.646 244.552 478.871 239.222C480.097 233.892 481.207 228.422 482.697 223.103C483.065 221.794 483.459 220.485 483.882 219.191C484.186 218.262 486.373 204.835 487.21 204.256C487.708 203.931 485.84 215.745 485.745 216.244C485.606 216.974 485.426 217.693 485.247 218.417C484.933 219.871 484.624 221.319 484.321 222.773C483.12 228.547 482.019 234.347 481.222 240.191C480.391 246.029 479.962 251.917 479.937 257.814C479.937 258.533 479.937 259.257 479.937 259.977C479.992 262.299 480.126 264.642 479.763 266.935C479.335 269.617 478.239 272.14 477.153 274.627C475.738 277.859 474.314 281.121 472.266 283.988C471.433 285.085 470.828 286.339 470.488 287.675C470.408 288.074 468.805 290.172 468.695 290.557C468.008 292.092 467.208 293.575 466.304 294.993C463.674 298.689 465.472 299.488 461.771 302.38C461.029 302.96 460.581 303.235 460.312 304.189C459.609 306.686 459.081 309.184 458.369 311.681C456.944 316.645 455.256 321.529 453.313 326.312C449.431 335.89 444.554 345.031 438.764 353.585C436.273 357.249 433.616 360.803 430.794 364.25C428.093 367.61 425.148 370.764 421.982 373.686C408.668 385.749 389.78 391.613 372.122 388.417C366.319 387.363 360.725 385.419 355.186 383.327C347.57 380.459 339.889 377.277 333.707 371.973C329.374 368.251 325.922 363.601 322.884 358.755C318.59 351.842 314.635 345.973 312.817 337.981C312.159 335.099 309.509 326.272 308.608 323.45C307.666 320.493 303.711 292.695 304.439 279.263C304.608 276.116 304.742 272.849 303.537 269.937C300.349 271.436 300.05 275.781 300.24 279.308L300.912 292.63C301.614 306.481 302.342 320.503 306.486 333.73C311.765 350.293 322.01 364.82 335.824 375.329C349.679 385.769 366.29 391.889 383.588 392.927C386.656 393.112 389.77 393.132 392.763 392.428C395.757 391.723 398.556 390.335 401.316 388.956C411.776 383.706 422.515 378.281 430.53 369.715C434.236 365.749 437.269 361.223 440.283 356.692C452.237 338.76 464.062 321.637 463.943 300.063C463.046 301.237 463.041 301.506 461.886 302.246" fill="#0C0C0C"/>
<path d="M296.798 259.682C292.901 264.708 289.956 270.409 288.111 276.501C287.004 280.269 286.224 284.126 285.78 288.029C283.876 303.61 285.626 319.421 290.89 334.204C292.949 339.754 295.298 345.192 297.928 350.494C299.934 354.815 302.185 359.017 304.668 363.081C313.634 377.297 327.446 387.982 342.574 395.255C340.581 394.101 338.589 392.947 336.597 391.718C323.475 383.446 312.626 372.013 305.036 358.461C303.482 355.678 302.078 352.821 300.673 349.969C297.415 343.35 294.143 336.702 291.976 329.649C287.697 315.697 287.926 300.812 288.19 286.216C288.275 281.511 288.43 276.561 290.84 272.524C292.37 269.967 294.686 267.999 296.603 265.716C297.968 264.098 299.169 262.22 299.592 260.097C299.717 259.502 300.035 257.999 299.169 257.774C298.302 257.549 297.201 259.157 296.798 259.682Z" fill="#0C0C0C"/>
<path d="M477.163 292.425C472.276 321.612 457.537 348.271 440.233 372.242C437.065 376.633 433.757 380.994 429.653 384.51C423.098 390.115 414.849 393.272 406.695 396.059C393.316 400.635 379.394 404.551 365.277 403.857C379.797 401.504 394.377 398.657 407.881 392.817C421.384 386.978 435.441 374.21 441.513 365.279C447.585 356.348 452.362 348.935 456.252 342.302C459.138 337.506 461.727 332.536 464.002 327.421C466.334 322.326 471.703 308.774 473.083 298.259C473.651 293.914 475.075 288.884 475.26 284.503C475.345 282.262 475.568 280.028 475.927 277.814C476.11 276.705 476.324 275.605 476.57 274.513C476.729 273.813 476.839 272.085 477.566 271.735C478.194 273.069 478.144 275.182 478.243 276.655C478.362 278.416 478.389 280.182 478.323 281.945C478.164 285.46 477.776 288.961 477.163 292.425Z" fill="#0C0C0C"/>
<path d="M356.013 372.772C358.408 369.825 362.956 370.314 366.523 369.02C371.11 367.357 374.074 362.652 378.642 360.943C381.132 360.009 383.892 360.069 386.562 360.139C388.649 360.189 391.144 360.489 392.086 362.357C392.917 363.995 392.031 366.028 390.731 367.352C389.431 368.676 387.742 369.525 386.477 370.849C385.29 372.106 384.498 373.686 384.199 375.391C383.901 377.096 384.109 378.852 384.798 380.439C385.59 382.158 386.93 383.591 387.578 385.37C388.225 387.148 387.822 389.585 386.083 390.245C383.702 391.134 381.755 388.282 380.604 386.014C378.049 381.019 373.536 376.169 367.937 376.383C363.136 376.573 359.44 380.23 355.086 381.778C353.803 382.232 352.46 382.498 351.101 382.567C350.319 382.607 348.397 382.867 347.839 382.133C346.708 380.634 349.647 379.096 350.578 378.716C351.805 378.224 352.895 377.443 353.756 376.438C354.658 375.319 355.096 373.896 356.013 372.772Z" fill="#0C0C0C"/>
<path d="M320.139 374.475L341.657 386.164C329.979 380.171 319.741 371.699 311.656 361.338C329.329 374.915 347.52 388.771 368.879 395.125L341.842 386.933C346.011 389.086 350.225 391.169 354.349 393.397C349.592 391.963 344.626 390.54 340.033 388.611C335.725 386.798 331.705 383.906 327.989 381.119C325.244 379.062 322.623 376.843 320.139 374.475Z" fill="#0C0C0C"/>
<path d="M307.029 288.474C306.675 291.286 307.676 294.133 309.235 296.501C310.795 298.869 312.877 300.822 314.944 302.755C315.108 302.958 315.313 303.124 315.544 303.244C315.775 303.365 316.029 303.436 316.289 303.454C313.652 300.175 311.403 296.602 309.584 292.805C308.797 291.156 308.06 289.598 307.891 287.765C307.831 287.14 304.987 278.479 304.454 278.114C304.15 277.904 304.254 285.402 304.234 285.107C305.056 295.762 307.462 304.433 312.543 313.824C313.539 315.712 314.57 318.62 315.093 319.699C314.097 316.647 313.101 313.589 312.179 310.507C310.595 305.143 309.26 299.678 308.693 294.098C308.478 292.091 308.157 290.097 307.731 288.124" fill="#0C0C0C"/>
<path d="M431.88 253.468C433.673 255.991 435.536 258.583 438.151 260.236C437.394 259.327 436.497 258.553 435.66 257.704C432.278 254.207 430.321 249.627 427.292 245.85C426.71 245.121 425.723 243.583 424.752 243.418C425.218 244.247 425.762 245.03 426.376 245.756L428.204 248.323L431.88 253.468Z" fill="#0C0C0C"/>
<path d="M409.062 232.768C409.44 232.109 408.743 231.385 408.26 230.77C407.149 229.416 407.044 227.518 406.994 225.775L406.666 214.701C406.616 212.903 406.511 211.089 406.521 209.286C406.521 208.842 406.521 206.019 407.189 205.914C407.856 205.809 407.722 210.125 407.722 210.585C407.722 213.867 407.657 217.133 407.816 220.415C408.016 224.552 408.432 228.675 409.062 232.768Z" fill="#0C0C0C"/>
<path d="M439.137 197.737C441.234 198.362 443.471 198.302 445.662 198.237C443.222 197.994 440.834 197.372 438.584 196.394C436.313 195.402 434.145 194.191 432.109 192.777C431.561 192.408 431.028 192.018 430.49 191.638C430.359 191.523 430.207 191.434 430.042 191.379C430.189 191.625 430.382 191.842 430.609 192.018C431.078 192.467 431.561 192.902 432.054 193.332C433.297 194.44 434.63 195.442 436.039 196.329C437.006 196.932 438.047 197.405 439.137 197.737Z" fill="#0C0C0C"/>
<path d="M294.103 202.113C294.676 204.89 295.896 207.573 295.871 210.41C294.656 210.125 294.377 208.557 294.222 207.313C293.809 203.981 292.484 200.744 292.688 197.393C292.863 195.694 293.221 194.019 293.754 192.397L294.427 190.005C294.541 189.61 294.586 189.006 294.89 188.721C295.791 189.805 294.696 192.452 294.392 193.566C293.623 196.352 293.524 199.281 294.103 202.113Z" fill="#0C0C0C"/>
<path d="M485.665 229.152C485.167 228.827 485.486 226.26 485.541 225.74C485.678 224.588 485.897 223.448 486.198 222.328C486.487 221.184 486.816 220.051 487.095 218.907C487.219 218.372 487.633 217.408 487.404 216.879C486.562 217.378 486.094 219.276 485.82 220.155C485.126 222.218 484.712 224.366 484.589 226.539C484.56 227.518 484.794 228.587 485.665 229.152Z" fill="#0C0C0C"/>
<path d="M364.775 402.183C363.719 401.849 362.339 401.933 361.228 401.764C360.117 401.594 358.882 401.359 357.741 401.099C355.389 400.57 353.076 399.881 350.817 399.036C349.986 398.727 348.641 398.467 348.118 397.683C347.44 396.684 348.312 396.933 349.034 397.183L356.506 399.556L364.775 402.183Z" fill="#0C0C0C"/>
<path d="M461.238 396.394C464.819 388.811 467.655 380.896 469.706 372.762C471.764 364.586 473.377 356.303 474.538 347.951C474.84 345.873 475.13 343.792 475.409 341.707C475.658 339.814 476.097 337.831 476.092 335.923C476.092 335.493 475.967 333.115 475.385 333.425C475.006 333.645 474.812 335.923 474.712 336.367C474.468 337.491 474.214 338.62 473.97 339.744C472.004 348.655 470.027 357.567 468.037 366.478C466.048 375.389 464.021 384.321 461.956 393.272C461.736 394.246 461.647 395.515 461.238 396.394Z" fill="#0C0C0C"/>
<path d="M320.483 406.499C315.307 399.356 312.687 390.814 309.325 382.752C308.9 381.753 308.462 380.744 308.01 379.725C307.656 378.951 307.377 377.887 306.62 377.407C305.863 376.928 305.624 377.078 305.749 377.832C305.893 378.891 306.496 380.055 306.859 381.064C308.415 385.347 310.258 389.519 312.378 393.552C314.765 398.057 317.474 402.385 320.483 406.499Z" fill="#0C0C0C"/>
<path d="M282.328 280.821L281.416 343.216C281.252 354.49 281.087 365.814 282.532 377.003C283.269 382.737 284.425 388.402 285.585 394.066C287.428 403.097 289.301 412.218 293.141 420.59L283.921 403.916C284.374 408.381 285.306 412.784 286.701 417.049C284.372 411.828 282.483 406.421 281.052 400.884C277.471 387.143 276.569 372.862 275.688 358.691C275.414 354.295 275.14 349.904 274.985 345.508C274.197 323.404 276.356 301.293 281.406 279.762C281.92 287.312 281.938 294.888 281.461 302.44C281.461 302.89 281.291 303.439 280.843 303.514C280.395 303.589 280.594 302.59 280.873 302.945" fill="#0C0C0C"/>
<path d="M178.098 323.904C176.524 324.819 174.711 326.207 175.04 328C191.253 314.344 211.581 306.871 230.614 297.57C247.956 289.086 264.44 278.942 279.837 267.28C283.373 264.602 287.562 261.955 290.571 258.688C283.289 262.215 276.35 266.9 269.337 270.971L247.246 283.789L203.058 309.424L178.098 323.904Z" fill="#0C0C0C"/>
<path d="M562.509 288.404C580.65 295.432 598.926 302.85 614.507 314.514L562.922 294.573C552.138 290.407 541.354 286.241 530.635 281.915C519.816 277.555 509.062 273.034 498.447 268.199C495.459 266.837 492.47 265.443 489.481 264.018C486.786 262.734 483.31 261.625 480.979 259.787C481.89 257.944 493.536 263.079 495.454 263.748C500.87 265.63 506.279 267.538 511.682 269.472C522.584 273.372 533.456 277.368 544.298 281.461C550.378 283.745 556.449 286.06 562.509 288.404Z" fill="#0C0C0C"/>
<path d="M358 170.933C357.835 170.944 357.675 170.993 357.533 171.078C357.391 171.163 357.272 171.281 357.184 171.422C357.097 171.563 357.045 171.723 357.032 171.888C357.018 172.053 357.045 172.219 357.109 172.372C357.196 172.514 357.318 172.632 357.462 172.715C357.607 172.798 357.77 172.843 357.936 172.847C358.103 172.85 358.267 172.812 358.415 172.735C358.563 172.658 358.689 172.545 358.782 172.407L358.857 171.008L357.781 170.973" fill="white"/>
<path d="M447.515 178.841L446.913 178.886C446.654 179.339 446.569 179.872 446.674 180.384H448.337C448.492 179.675 448.457 178.656 447.74 178.551" fill="white"/>
<path d="M355.983 171.488C355.853 171.418 355.71 171.376 355.563 171.364C355.416 171.351 355.268 171.369 355.128 171.416C354.989 171.463 354.86 171.537 354.75 171.636C354.64 171.734 354.551 171.854 354.488 171.987C354.833 172.117 355.204 172.159 355.569 172.11C355.934 172.061 356.281 171.923 356.58 171.708C356.51 171.582 356.396 171.487 356.26 171.439C356.125 171.391 355.977 171.394 355.843 171.448" fill="white"/>
<path d="M446.001 179.97L444.681 180.829C444.809 180.93 444.963 180.993 445.125 181.012C445.286 181.032 445.45 181.006 445.599 180.939C445.747 180.872 445.874 180.765 445.966 180.63C446.058 180.495 446.112 180.338 446.121 180.175" fill="white"/>
<path d="M373.695 228.777C373.254 228.96 372.859 229.241 372.541 229.598C372.223 229.955 371.989 230.38 371.857 230.84C371.687 231.375 371.589 231.932 371.569 232.493C371.569 232.803 371.504 233.283 371.733 233.537C371.778 233.248 371.793 232.955 371.778 232.663C371.813 232.307 371.878 231.955 371.972 231.609C372.16 230.917 372.47 230.264 372.888 229.681C373.124 229.351 373.394 229.048 373.695 228.777Z" fill="#0C0C0C"/>
<path d="M418.754 239.442C418.919 239.072 419.148 238.737 419.297 238.358C419.453 237.96 419.57 237.549 419.646 237.129C419.8 236.295 419.8 235.44 419.646 234.607C419.581 234.19 419.462 233.784 419.292 233.398C419.65 234.963 419.622 236.591 419.213 238.143C419.093 238.587 418.94 239.021 418.754 239.442Z" fill="#0C0C0C"/>
<g opacity="0.9">
<path opacity="0.9" d="M574.443 185.629C574.936 185.629 575.417 185.776 575.827 186.05C576.237 186.325 576.556 186.715 576.744 187.171C576.933 187.627 576.982 188.13 576.886 188.614C576.79 189.098 576.553 189.543 576.204 189.893C575.856 190.242 575.412 190.48 574.929 190.576C574.446 190.673 573.945 190.623 573.49 190.434C573.035 190.245 572.646 189.925 572.372 189.514C572.099 189.104 571.953 188.621 571.953 188.127C571.953 187.464 572.215 186.829 572.682 186.361C573.149 185.892 573.783 185.629 574.443 185.629Z" fill="white"/>
<path opacity="0.9" d="M581.073 185.889C581.515 185.888 581.947 186.018 582.314 186.264C582.682 186.509 582.969 186.858 583.138 187.267C583.308 187.676 583.353 188.126 583.267 188.56C583.182 188.995 582.97 189.394 582.658 189.707C582.346 190.021 581.948 190.234 581.515 190.321C581.082 190.408 580.633 190.364 580.225 190.195C579.817 190.025 579.469 189.739 579.223 189.371C578.978 189.002 578.847 188.57 578.847 188.127C578.847 187.534 579.081 186.966 579.498 186.546C579.916 186.127 580.482 185.89 581.073 185.889Z" fill="white"/>
<path opacity="0.9" d="M587.703 190.115C588.798 190.115 589.685 189.225 589.685 188.127C589.685 187.029 588.798 186.139 587.703 186.139C586.608 186.139 585.72 187.029 585.72 188.127C585.72 189.225 586.608 190.115 587.703 190.115Z" fill="white"/>
<path opacity="0.9" d="M594.338 186.383C594.682 186.382 595.019 186.484 595.305 186.675C595.592 186.866 595.815 187.138 595.948 187.456C596.08 187.774 596.115 188.125 596.048 188.464C595.982 188.802 595.817 189.113 595.574 189.358C595.331 189.602 595.021 189.768 594.684 189.836C594.347 189.904 593.997 189.869 593.679 189.738C593.361 189.606 593.089 189.382 592.898 189.096C592.707 188.809 592.604 188.472 592.604 188.127C592.604 187.665 592.787 187.222 593.112 186.896C593.437 186.569 593.878 186.385 594.338 186.383Z" fill="white"/>
<path opacity="0.9" d="M600.972 186.628C601.268 186.628 601.557 186.716 601.803 186.881C602.048 187.045 602.24 187.279 602.353 187.553C602.466 187.827 602.496 188.128 602.438 188.419C602.38 188.71 602.238 188.977 602.029 189.186C601.82 189.396 601.554 189.539 601.264 189.596C600.974 189.654 600.674 189.625 600.4 189.511C600.127 189.398 599.894 189.206 599.73 188.959C599.566 188.713 599.478 188.423 599.478 188.127C599.478 187.729 599.635 187.348 599.916 187.067C600.196 186.786 600.576 186.628 600.972 186.628Z" fill="white"/>
<path opacity="0.9" d="M607.592 186.878C607.839 186.877 608.08 186.949 608.285 187.086C608.491 187.223 608.651 187.417 608.746 187.645C608.841 187.873 608.867 188.125 608.819 188.367C608.772 188.61 608.654 188.833 608.48 189.008C608.306 189.183 608.084 189.303 607.842 189.351C607.6 189.4 607.35 189.375 607.122 189.281C606.894 189.187 606.699 189.027 606.562 188.821C606.425 188.616 606.352 188.374 606.352 188.127C606.352 187.796 606.483 187.48 606.715 187.245C606.947 187.011 607.263 186.879 607.592 186.878Z" fill="white"/>
<path opacity="0.9" d="M614.237 187.128C614.434 187.128 614.627 187.186 614.79 187.296C614.954 187.406 615.082 187.562 615.157 187.744C615.233 187.927 615.252 188.128 615.214 188.322C615.176 188.515 615.081 188.693 614.941 188.833C614.802 188.973 614.625 189.068 614.431 189.107C614.238 189.145 614.038 189.125 613.856 189.05C613.674 188.974 613.518 188.846 613.409 188.682C613.299 188.517 613.241 188.324 613.241 188.127C613.241 187.862 613.346 187.608 613.533 187.42C613.719 187.233 613.973 187.128 614.237 187.128Z" fill="white"/>
<path opacity="0.9" d="M620.867 187.377C621.015 187.377 621.159 187.421 621.282 187.504C621.405 187.586 621.501 187.703 621.557 187.84C621.614 187.977 621.628 188.128 621.6 188.273C621.571 188.418 621.5 188.552 621.395 188.657C621.291 188.761 621.158 188.833 621.013 188.862C620.868 188.891 620.717 188.876 620.581 188.819C620.444 188.762 620.328 188.666 620.246 188.543C620.163 188.42 620.12 188.275 620.12 188.127C620.121 187.928 620.2 187.739 620.34 187.598C620.48 187.458 620.669 187.379 620.867 187.377Z" fill="white"/>
<path opacity="0.9" d="M627.517 187.627C627.615 187.627 627.711 187.656 627.793 187.711C627.875 187.766 627.939 187.844 627.977 187.936C628.015 188.027 628.024 188.127 628.005 188.224C627.986 188.321 627.939 188.41 627.869 188.48C627.799 188.55 627.71 188.597 627.614 188.617C627.517 188.636 627.417 188.626 627.326 188.588C627.235 188.55 627.157 188.486 627.103 188.404C627.048 188.322 627.019 188.225 627.019 188.127C627.019 187.994 627.071 187.867 627.164 187.774C627.258 187.68 627.385 187.627 627.517 187.627Z" fill="white"/>
<path opacity="0.9" d="M574.443 178.196C574.936 178.196 575.417 178.343 575.827 178.617C576.237 178.892 576.556 179.282 576.744 179.738C576.933 180.195 576.982 180.697 576.886 181.181C576.79 181.666 576.553 182.111 576.204 182.46C575.856 182.809 575.412 183.047 574.929 183.144C574.446 183.24 573.945 183.19 573.49 183.001C573.035 182.812 572.646 182.492 572.372 182.082C572.099 181.671 571.953 181.188 571.953 180.694C571.953 180.032 572.215 179.396 572.682 178.928C573.149 178.46 573.783 178.196 574.443 178.196Z" fill="white"/>
<path opacity="0.9" d="M581.073 182.917C582.303 182.917 583.3 181.917 583.3 180.684C583.3 179.451 582.303 178.451 581.073 178.451C579.844 178.451 578.847 179.451 578.847 180.684C578.847 181.917 579.844 182.917 581.073 182.917Z" fill="white"/>
<path opacity="0.9" d="M587.703 182.672C588.798 182.672 589.685 181.782 589.685 180.684C589.685 179.586 588.798 178.696 587.703 178.696C586.608 178.696 585.72 179.586 585.72 180.684C585.72 181.782 586.608 182.672 587.703 182.672Z" fill="white"/>
<path opacity="0.9" d="M594.338 178.941C594.682 178.94 595.019 179.041 595.306 179.232C595.592 179.424 595.816 179.696 595.948 180.015C596.08 180.333 596.115 180.684 596.048 181.023C595.981 181.362 595.816 181.673 595.572 181.917C595.329 182.161 595.019 182.327 594.681 182.394C594.343 182.461 593.993 182.426 593.675 182.294C593.357 182.161 593.086 181.937 592.895 181.649C592.705 181.362 592.604 181.024 592.604 180.679C592.604 180.218 592.787 179.776 593.112 179.45C593.437 179.124 593.878 178.941 594.338 178.941Z" fill="white"/>
<path opacity="0.9" d="M600.972 179.185C601.268 179.185 601.557 179.273 601.803 179.438C602.048 179.603 602.24 179.837 602.353 180.11C602.466 180.384 602.496 180.686 602.438 180.976C602.38 181.267 602.238 181.534 602.029 181.744C601.82 181.953 601.554 182.096 601.264 182.154C600.974 182.212 600.674 182.182 600.4 182.068C600.127 181.955 599.894 181.763 599.73 181.517C599.566 181.27 599.478 180.98 599.478 180.684C599.478 180.287 599.635 179.905 599.916 179.624C600.196 179.343 600.576 179.185 600.972 179.185Z" fill="white"/>
<path opacity="0.9" d="M607.592 179.435C607.839 179.434 608.081 179.507 608.286 179.644C608.492 179.78 608.652 179.975 608.747 180.204C608.842 180.432 608.867 180.684 608.819 180.926C608.771 181.169 608.652 181.392 608.478 181.567C608.303 181.742 608.081 181.861 607.839 181.909C607.597 181.957 607.346 181.932 607.118 181.837C606.891 181.742 606.696 181.581 606.56 181.375C606.423 181.169 606.351 180.926 606.352 180.679C606.353 180.35 606.484 180.034 606.717 179.801C606.949 179.568 607.264 179.437 607.592 179.435Z" fill="white"/>
<path opacity="0.9" d="M614.232 181.683C614.782 181.683 615.228 181.236 615.228 180.684C615.228 180.132 614.782 179.685 614.232 179.685C613.682 179.685 613.236 180.132 613.236 180.684C613.236 181.236 613.682 181.683 614.232 181.683Z" fill="white"/>
<path opacity="0.9" d="M620.867 181.433C621.279 181.433 621.614 181.098 621.614 180.684C621.614 180.27 621.279 179.935 620.867 179.935C620.454 179.935 620.12 180.27 620.12 180.684C620.12 181.098 620.454 181.433 620.867 181.433Z" fill="white"/>
<path opacity="0.9" d="M627.517 180.179C627.615 180.179 627.711 180.209 627.793 180.264C627.875 180.319 627.939 180.397 627.977 180.488C628.015 180.579 628.024 180.68 628.005 180.776C627.986 180.873 627.939 180.962 627.869 181.032C627.799 181.102 627.71 181.15 627.614 181.169C627.517 181.188 627.417 181.178 627.326 181.14C627.235 181.103 627.157 181.039 627.103 180.956C627.048 180.874 627.019 180.778 627.019 180.679C627.019 180.546 627.071 180.419 627.164 180.326C627.258 180.232 627.385 180.179 627.517 180.179Z" fill="white"/>
<path opacity="0.9" d="M574.443 170.754C574.936 170.754 575.417 170.9 575.827 171.175C576.237 171.449 576.556 171.839 576.744 172.295C576.933 172.752 576.982 173.254 576.886 173.738C576.79 174.223 576.553 174.668 576.204 175.017C575.856 175.367 575.412 175.604 574.929 175.701C574.446 175.797 573.945 175.748 573.49 175.559C573.035 175.37 572.646 175.05 572.372 174.639C572.099 174.228 571.953 173.745 571.953 173.251C571.953 172.589 572.215 171.954 572.682 171.485C573.149 171.017 573.783 170.754 574.443 170.754Z" fill="white"/>
<path opacity="0.9" d="M581.073 170.998C581.515 170.997 581.947 171.128 582.314 171.373C582.682 171.618 582.969 171.968 583.138 172.376C583.308 172.785 583.353 173.235 583.267 173.67C583.182 174.104 582.97 174.503 582.658 174.817C582.346 175.13 581.948 175.344 581.515 175.431C581.082 175.517 580.633 175.473 580.225 175.304C579.817 175.135 579.469 174.848 579.223 174.48C578.978 174.112 578.847 173.679 578.847 173.236C578.847 172.644 579.081 172.075 579.498 171.656C579.916 171.236 580.482 171 581.073 170.998Z" fill="white"/>
<path opacity="0.9" d="M587.708 171.248C588.102 171.248 588.487 171.365 588.815 171.585C589.142 171.804 589.398 172.117 589.549 172.482C589.699 172.847 589.739 173.248 589.662 173.636C589.585 174.024 589.395 174.38 589.117 174.659C588.838 174.939 588.483 175.129 588.096 175.206C587.71 175.283 587.309 175.243 586.945 175.092C586.581 174.941 586.27 174.685 586.051 174.356C585.832 174.028 585.715 173.641 585.715 173.246C585.715 172.716 585.925 172.208 586.299 171.833C586.673 171.459 587.179 171.248 587.708 171.248Z" fill="white"/>
<path opacity="0.9" d="M594.338 171.493C594.682 171.492 595.019 171.593 595.305 171.784C595.592 171.975 595.815 172.247 595.948 172.566C596.08 172.884 596.115 173.235 596.048 173.573C595.982 173.912 595.817 174.223 595.574 174.467C595.331 174.711 595.021 174.878 594.684 174.946C594.347 175.013 593.997 174.979 593.679 174.847C593.361 174.716 593.089 174.492 592.898 174.205C592.707 173.918 592.604 173.581 592.604 173.236C592.604 172.775 592.787 172.332 593.112 172.005C593.437 171.679 593.878 171.494 594.338 171.493Z" fill="white"/>
<path opacity="0.9" d="M600.972 171.743C601.268 171.743 601.557 171.831 601.803 171.995C602.048 172.16 602.24 172.394 602.353 172.668C602.466 172.942 602.496 173.243 602.438 173.534C602.38 173.824 602.238 174.091 602.029 174.301C601.82 174.51 601.554 174.653 601.264 174.711C600.974 174.769 600.674 174.739 600.4 174.626C600.127 174.512 599.894 174.32 599.73 174.074C599.566 173.827 599.478 173.538 599.478 173.241C599.478 172.844 599.635 172.463 599.916 172.182C600.196 171.901 600.576 171.743 600.972 171.743Z" fill="white"/>
<path opacity="0.9" d="M607.592 171.987C607.839 171.986 608.08 172.059 608.285 172.195C608.491 172.332 608.651 172.527 608.746 172.755C608.841 172.983 608.867 173.234 608.819 173.477C608.772 173.719 608.654 173.942 608.48 174.117C608.306 174.293 608.084 174.412 607.842 174.461C607.6 174.509 607.35 174.485 607.122 174.39C606.894 174.296 606.699 174.136 606.562 173.931C606.425 173.725 606.352 173.483 606.352 173.236C606.352 172.906 606.483 172.589 606.715 172.355C606.947 172.121 607.263 171.989 607.592 171.987Z" fill="white"/>
<path opacity="0.9" d="M614.237 172.237C614.434 172.237 614.627 172.296 614.79 172.406C614.954 172.515 615.082 172.671 615.157 172.854C615.233 173.036 615.252 173.237 615.214 173.431C615.176 173.625 615.081 173.803 614.941 173.943C614.802 174.082 614.625 174.178 614.431 174.216C614.238 174.255 614.038 174.235 613.856 174.159C613.674 174.084 613.518 173.956 613.409 173.791C613.299 173.627 613.241 173.434 613.241 173.236C613.241 172.971 613.346 172.717 613.533 172.53C613.719 172.342 613.973 172.237 614.237 172.237Z" fill="white"/>
<path opacity="0.9" d="M620.867 172.487C621.015 172.487 621.159 172.531 621.282 172.613C621.405 172.696 621.501 172.813 621.557 172.949C621.614 173.086 621.628 173.237 621.6 173.382C621.571 173.528 621.5 173.661 621.395 173.766C621.291 173.871 621.158 173.942 621.013 173.971C620.868 174 620.717 173.985 620.581 173.928C620.444 173.872 620.328 173.776 620.246 173.652C620.163 173.529 620.12 173.384 620.12 173.236C620.121 173.038 620.2 172.848 620.34 172.708C620.48 172.568 620.669 172.488 620.867 172.487Z" fill="white"/>
<path opacity="0.9" d="M627.517 172.732C627.615 172.732 627.711 172.761 627.793 172.816C627.875 172.871 627.939 172.949 627.977 173.04C628.015 173.131 628.024 173.232 628.005 173.329C627.986 173.426 627.939 173.515 627.869 173.584C627.799 173.654 627.71 173.702 627.614 173.721C627.517 173.74 627.417 173.731 627.326 173.693C627.235 173.655 627.157 173.591 627.103 173.509C627.048 173.427 627.019 173.33 627.019 173.231C627.019 173.099 627.071 172.972 627.164 172.878C627.258 172.784 627.385 172.732 627.517 172.732Z" fill="white"/>
<path opacity="0.9" d="M574.443 163.306C574.936 163.306 575.417 163.452 575.827 163.727C576.237 164.001 576.556 164.391 576.744 164.848C576.933 165.304 576.982 165.806 576.886 166.291C576.79 166.775 576.553 167.22 576.204 167.57C575.856 167.919 575.412 168.157 574.929 168.253C574.446 168.349 573.945 168.3 573.49 168.111C573.035 167.922 572.646 167.602 572.372 167.191C572.099 166.78 571.953 166.297 571.953 165.803C571.953 165.141 572.215 164.506 572.682 164.037C573.149 163.569 573.783 163.306 574.443 163.306Z" fill="white"/>
<path opacity="0.9" d="M581.073 168.026C582.303 168.026 583.3 167.027 583.3 165.793C583.3 164.56 582.303 163.561 581.073 163.561C579.844 163.561 578.847 164.56 578.847 165.793C578.847 167.027 579.844 168.026 581.073 168.026Z" fill="white"/>
<path opacity="0.9" d="M587.708 163.8C588.102 163.8 588.487 163.918 588.815 164.137C589.142 164.357 589.398 164.669 589.549 165.034C589.699 165.399 589.739 165.801 589.662 166.188C589.585 166.576 589.395 166.932 589.117 167.211C588.838 167.491 588.483 167.681 588.096 167.758C587.71 167.835 587.309 167.796 586.945 167.644C586.581 167.493 586.27 167.237 586.051 166.909C585.832 166.58 585.715 166.194 585.715 165.798C585.715 165.269 585.925 164.76 586.299 164.386C586.673 164.011 587.179 163.8 587.708 163.8Z" fill="white"/>
<path opacity="0.9" d="M594.338 164.05C594.682 164.049 595.019 164.151 595.306 164.342C595.592 164.533 595.816 164.805 595.948 165.124C596.08 165.443 596.115 165.794 596.048 166.132C595.981 166.471 595.816 166.782 595.572 167.026C595.329 167.27 595.019 167.436 594.681 167.504C594.343 167.571 593.993 167.536 593.675 167.403C593.357 167.271 593.086 167.046 592.895 166.759C592.705 166.471 592.604 166.134 592.604 165.788C592.604 165.327 592.787 164.885 593.112 164.559C593.437 164.233 593.878 164.05 594.338 164.05Z" fill="white"/>
<path opacity="0.9" d="M600.972 164.295C601.268 164.295 601.557 164.383 601.803 164.547C602.048 164.712 602.24 164.946 602.353 165.22C602.466 165.494 602.496 165.795 602.438 166.086C602.38 166.376 602.238 166.644 602.029 166.853C601.82 167.063 601.554 167.205 601.264 167.263C600.974 167.321 600.674 167.291 600.4 167.178C600.127 167.065 599.894 166.872 599.73 166.626C599.566 166.38 599.478 166.09 599.478 165.793C599.478 165.396 599.635 165.015 599.916 164.734C600.196 164.453 600.576 164.295 600.972 164.295Z" fill="white"/>
<path opacity="0.9" d="M607.602 167.037C608.287 167.037 608.842 166.48 608.842 165.793C608.842 165.107 608.287 164.55 607.602 164.55C606.917 164.55 606.362 165.107 606.362 165.793C606.362 166.48 606.917 167.037 607.602 167.037Z" fill="white"/>
<path opacity="0.9" d="M614.237 164.794C614.434 164.794 614.627 164.853 614.79 164.963C614.954 165.073 615.082 165.229 615.157 165.411C615.233 165.594 615.252 165.795 615.214 165.988C615.176 166.182 615.081 166.36 614.941 166.5C614.802 166.64 614.625 166.735 614.431 166.773C614.238 166.812 614.038 166.792 613.856 166.716C613.674 166.641 613.518 166.513 613.409 166.349C613.299 166.184 613.241 165.991 613.241 165.793C613.241 165.529 613.346 165.274 613.533 165.087C613.719 164.9 613.973 164.794 614.237 164.794Z" fill="white"/>
<path opacity="0.9" d="M620.867 165.039C621.015 165.039 621.159 165.083 621.282 165.165C621.405 165.248 621.501 165.365 621.557 165.502C621.614 165.639 621.628 165.789 621.6 165.935C621.571 166.08 621.5 166.213 621.395 166.318C621.291 166.423 621.158 166.494 621.013 166.523C620.868 166.552 620.717 166.537 620.581 166.481C620.444 166.424 620.328 166.328 620.246 166.205C620.163 166.082 620.12 165.937 620.12 165.788C620.121 165.59 620.2 165.4 620.34 165.26C620.48 165.12 620.669 165.04 620.867 165.039Z" fill="white"/>
<path opacity="0.9" d="M627.517 165.289C627.615 165.289 627.711 165.318 627.793 165.373C627.875 165.428 627.939 165.506 627.977 165.597C628.015 165.689 628.024 165.789 628.005 165.886C627.986 165.983 627.939 166.072 627.869 166.142C627.799 166.212 627.71 166.259 627.614 166.278C627.517 166.298 627.417 166.288 627.326 166.25C627.235 166.212 627.157 166.148 627.103 166.066C627.048 165.984 627.019 165.887 627.019 165.788C627.019 165.656 627.071 165.529 627.164 165.435C627.258 165.342 627.385 165.289 627.517 165.289Z" fill="white"/>
<path opacity="0.9" d="M574.443 155.863C574.936 155.863 575.417 156.01 575.827 156.284C576.237 156.559 576.556 156.949 576.744 157.405C576.933 157.861 576.982 158.363 576.886 158.848C576.79 159.332 576.553 159.777 576.204 160.127C575.856 160.476 575.412 160.714 574.929 160.81C574.446 160.907 573.945 160.857 573.49 160.668C573.035 160.479 572.646 160.159 572.372 159.748C572.099 159.338 571.953 158.855 571.953 158.361C571.953 157.698 572.215 157.063 572.682 156.595C573.149 156.126 573.783 155.863 574.443 155.863Z" fill="white"/>
<path opacity="0.9" d="M581.073 156.108C581.515 156.107 581.947 156.237 582.314 156.483C582.682 156.728 582.969 157.077 583.138 157.486C583.308 157.895 583.353 158.345 583.267 158.779C583.182 159.214 582.97 159.613 582.658 159.926C582.346 160.24 581.948 160.453 581.515 160.54C581.082 160.627 580.633 160.583 580.225 160.414C579.817 160.244 579.469 159.958 579.223 159.59C578.978 159.221 578.847 158.789 578.847 158.346C578.847 157.753 579.081 157.185 579.498 156.765C579.916 156.346 580.482 156.109 581.073 156.108Z" fill="white"/>
<path opacity="0.9" d="M587.703 160.334C588.798 160.334 589.685 159.444 589.685 158.346C589.685 157.248 588.798 156.358 587.703 156.358C586.608 156.358 585.72 157.248 585.72 158.346C585.72 159.444 586.608 160.334 587.703 160.334Z" fill="white"/>
<path opacity="0.9" d="M594.338 156.602C594.682 156.601 595.019 156.703 595.305 156.894C595.592 157.085 595.815 157.357 595.948 157.675C596.08 157.994 596.115 158.344 596.048 158.683C595.982 159.021 595.817 159.332 595.574 159.577C595.331 159.821 595.021 159.987 594.684 160.055C594.347 160.123 593.997 160.089 593.679 159.957C593.361 159.825 593.089 159.602 592.898 159.315C592.707 159.028 592.604 158.691 592.604 158.346C592.604 157.884 592.787 157.442 593.112 157.115C593.437 156.788 593.878 156.604 594.338 156.602Z" fill="white"/>
<path opacity="0.9" d="M600.972 156.852C601.268 156.852 601.557 156.94 601.803 157.105C602.048 157.269 602.24 157.503 602.353 157.777C602.466 158.051 602.496 158.352 602.438 158.643C602.38 158.934 602.238 159.201 602.029 159.41C601.82 159.62 601.554 159.763 601.264 159.82C600.974 159.878 600.674 159.849 600.4 159.735C600.127 159.622 599.894 159.43 599.73 159.183C599.566 158.937 599.478 158.647 599.478 158.351C599.478 157.953 599.635 157.572 599.916 157.291C600.196 157.01 600.576 156.852 600.972 156.852Z" fill="white"/>
<path opacity="0.9" d="M607.602 159.59C608.287 159.59 608.842 159.033 608.842 158.346C608.842 157.659 608.287 157.102 607.602 157.102C606.917 157.102 606.362 157.659 606.362 158.346C606.362 159.033 606.917 159.59 607.602 159.59Z" fill="white"/>
<path opacity="0.9" d="M614.237 157.347C614.434 157.347 614.627 157.405 614.79 157.515C614.954 157.625 615.082 157.781 615.157 157.963C615.233 158.146 615.252 158.347 615.214 158.541C615.176 158.734 615.081 158.912 614.941 159.052C614.802 159.192 614.625 159.287 614.431 159.326C614.238 159.364 614.038 159.344 613.856 159.269C613.674 159.193 613.518 159.065 613.409 158.901C613.299 158.736 613.241 158.543 613.241 158.346C613.241 158.081 613.346 157.827 613.533 157.639C613.719 157.452 613.973 157.347 614.237 157.347Z" fill="white"/>
<path opacity="0.9" d="M620.867 159.095C621.279 159.095 621.614 158.76 621.614 158.346C621.614 157.932 621.279 157.596 620.867 157.596C620.454 157.596 620.12 157.932 620.12 158.346C620.12 158.76 620.454 159.095 620.867 159.095Z" fill="white"/>
<path opacity="0.9" d="M627.517 157.841C627.615 157.841 627.711 157.87 627.793 157.925C627.875 157.98 627.939 158.058 627.977 158.15C628.015 158.241 628.024 158.341 628.005 158.438C627.986 158.535 627.939 158.624 627.869 158.694C627.799 158.764 627.71 158.811 627.614 158.831C627.517 158.85 627.417 158.84 627.326 158.802C627.235 158.764 627.157 158.7 627.103 158.618C627.048 158.536 627.019 158.439 627.019 158.341C627.019 158.208 627.071 158.081 627.164 157.987C627.258 157.894 627.385 157.841 627.517 157.841Z" fill="white"/>
<path opacity="0.9" d="M574.443 148.415C574.936 148.415 575.417 148.562 575.827 148.836C576.237 149.111 576.556 149.501 576.744 149.957C576.933 150.414 576.982 150.916 576.886 151.4C576.79 151.885 576.553 152.33 576.204 152.679C575.856 153.028 575.412 153.266 574.929 153.363C574.446 153.459 573.945 153.409 573.49 153.22C573.035 153.031 572.646 152.711 572.372 152.301C572.099 151.89 571.953 151.407 571.953 150.913C571.953 150.251 572.215 149.615 572.682 149.147C573.149 148.679 573.783 148.415 574.443 148.415Z" fill="white"/>
<path opacity="0.9" d="M581.073 153.136C582.303 153.136 583.3 152.136 583.3 150.903C583.3 149.67 582.303 148.67 581.073 148.67C579.844 148.67 578.847 149.67 578.847 150.903C578.847 152.136 579.844 153.136 581.073 153.136Z" fill="white"/>
<path opacity="0.9" d="M587.703 152.891C588.798 152.891 589.685 152.001 589.685 150.903C589.685 149.805 588.798 148.915 587.703 148.915C586.608 148.915 585.72 149.805 585.72 150.903C585.72 152.001 586.608 152.891 587.703 152.891Z" fill="white"/>
<path opacity="0.9" d="M594.338 149.165C594.682 149.164 595.019 149.265 595.306 149.456C595.592 149.648 595.816 149.92 595.948 150.239C596.08 150.557 596.115 150.908 596.048 151.247C595.981 151.585 595.816 151.897 595.572 152.141C595.329 152.385 595.019 152.551 594.681 152.618C594.343 152.685 593.993 152.65 593.675 152.518C593.357 152.385 593.086 152.161 592.895 151.873C592.705 151.586 592.604 151.248 592.604 150.903C592.604 150.442 592.787 150 593.112 149.674C593.437 149.348 593.878 149.165 594.338 149.165Z" fill="white"/>
<path opacity="0.9" d="M600.972 149.409C601.268 149.409 601.557 149.497 601.803 149.662C602.048 149.827 602.24 150.061 602.353 150.335C602.466 150.608 602.496 150.91 602.438 151.2C602.38 151.491 602.238 151.758 602.029 151.968C601.82 152.177 601.554 152.32 601.264 152.378C600.974 152.436 600.674 152.406 600.4 152.292C600.127 152.179 599.894 151.987 599.73 151.741C599.566 151.494 599.478 151.204 599.478 150.908C599.478 150.511 599.635 150.129 599.916 149.848C600.196 149.567 600.576 149.409 600.972 149.409Z" fill="white"/>
<path opacity="0.9" d="M607.592 149.664C607.839 149.663 608.081 149.736 608.286 149.873C608.492 150.009 608.652 150.204 608.747 150.433C608.842 150.661 608.867 150.913 608.819 151.155C608.771 151.398 608.652 151.621 608.478 151.796C608.303 151.971 608.081 152.09 607.839 152.138C607.597 152.186 607.346 152.161 607.118 152.066C606.891 151.971 606.696 151.81 606.56 151.604C606.423 151.398 606.351 151.155 606.352 150.908C606.353 150.579 606.484 150.263 606.717 150.03C606.949 149.797 607.264 149.666 607.592 149.664Z" fill="white"/>
<path opacity="0.9" d="M614.232 151.902C614.782 151.902 615.228 151.455 615.228 150.903C615.228 150.351 614.782 149.904 614.232 149.904C613.682 149.904 613.236 150.351 613.236 150.903C613.236 151.455 613.682 151.902 614.232 151.902Z" fill="white"/>
<path opacity="0.9" d="M620.867 151.652C621.279 151.652 621.614 151.317 621.614 150.903C621.614 150.489 621.279 150.154 620.867 150.154C620.454 150.154 620.12 150.489 620.12 150.903C620.12 151.317 620.454 151.652 620.867 151.652Z" fill="white"/>
<path opacity="0.9" d="M627.517 150.398C627.615 150.398 627.711 150.428 627.793 150.483C627.875 150.538 627.939 150.616 627.977 150.707C628.015 150.798 628.024 150.899 628.005 150.995C627.986 151.092 627.939 151.181 627.869 151.251C627.799 151.321 627.71 151.369 627.614 151.388C627.517 151.407 627.417 151.397 627.326 151.359C627.235 151.322 627.157 151.258 627.103 151.175C627.048 151.093 627.019 150.997 627.019 150.898C627.019 150.765 627.071 150.638 627.164 150.545C627.258 150.451 627.385 150.398 627.517 150.398Z" fill="white"/>
<path opacity="0.9" d="M574.443 140.973C574.936 140.973 575.417 141.119 575.827 141.394C576.237 141.668 576.556 142.058 576.744 142.514C576.933 142.971 576.982 143.473 576.886 143.957C576.79 144.442 576.553 144.887 576.204 145.236C575.856 145.586 575.412 145.823 574.929 145.92C574.446 146.016 573.945 145.967 573.49 145.778C573.035 145.589 572.646 145.269 572.372 144.858C572.099 144.447 571.953 143.964 571.953 143.47C571.953 142.808 572.215 142.173 572.682 141.704C573.149 141.236 573.783 140.973 574.443 140.973Z" fill="white"/>
<path opacity="0.9" d="M581.073 141.217C581.515 141.216 581.947 141.347 582.314 141.592C582.682 141.837 582.969 142.187 583.138 142.595C583.308 143.004 583.353 143.454 583.267 143.889C583.182 144.323 582.97 144.722 582.658 145.036C582.346 145.349 581.948 145.563 581.515 145.65C581.082 145.736 580.633 145.692 580.225 145.523C579.817 145.354 579.469 145.067 579.223 144.699C578.978 144.331 578.847 143.898 578.847 143.455C578.847 142.863 579.081 142.294 579.498 141.875C579.916 141.455 580.482 141.219 581.073 141.217Z" fill="white"/>
<path opacity="0.9" d="M587.703 145.443C588.798 145.443 589.685 144.553 589.685 143.455C589.685 142.357 588.798 141.467 587.703 141.467C586.608 141.467 585.72 142.357 585.72 143.455C585.72 144.553 586.608 145.443 587.703 145.443Z" fill="white"/>
<path opacity="0.9" d="M594.338 141.717C594.681 141.717 595.016 141.819 595.301 142.01C595.586 142.201 595.808 142.472 595.939 142.79C596.071 143.108 596.105 143.457 596.038 143.794C595.971 144.132 595.806 144.441 595.564 144.684C595.321 144.927 595.012 145.093 594.676 145.16C594.34 145.227 593.991 145.193 593.675 145.061C593.358 144.93 593.087 144.707 592.897 144.421C592.706 144.135 592.604 143.799 592.604 143.455C592.604 142.994 592.787 142.552 593.112 142.226C593.437 141.9 593.878 141.717 594.338 141.717Z" fill="white"/>
<path opacity="0.9" d="M600.972 141.962C601.268 141.962 601.557 142.05 601.803 142.214C602.048 142.379 602.24 142.613 602.353 142.887C602.466 143.161 602.496 143.462 602.438 143.753C602.38 144.043 602.238 144.31 602.029 144.52C601.82 144.729 601.554 144.872 601.264 144.93C600.974 144.988 600.674 144.958 600.4 144.845C600.127 144.731 599.894 144.539 599.73 144.293C599.566 144.046 599.478 143.757 599.478 143.46C599.478 143.063 599.635 142.682 599.916 142.401C600.196 142.12 600.576 141.962 600.972 141.962Z" fill="white"/>
<path opacity="0.9" d="M607.592 142.211C607.838 142.211 608.077 142.284 608.281 142.421C608.485 142.558 608.644 142.752 608.738 142.979C608.832 143.207 608.857 143.457 608.809 143.698C608.761 143.939 608.643 144.161 608.469 144.335C608.296 144.509 608.075 144.627 607.834 144.675C607.594 144.723 607.344 144.698 607.118 144.604C606.891 144.51 606.697 144.351 606.561 144.146C606.425 143.942 606.352 143.701 606.352 143.455C606.352 143.125 606.483 142.809 606.715 142.576C606.948 142.342 607.263 142.211 607.592 142.211Z" fill="white"/>
<path opacity="0.9" d="M614.237 142.456C614.434 142.456 614.627 142.515 614.79 142.625C614.954 142.734 615.082 142.89 615.157 143.073C615.233 143.255 615.252 143.456 615.214 143.65C615.176 143.844 615.081 144.022 614.941 144.162C614.802 144.301 614.625 144.397 614.431 144.435C614.238 144.474 614.038 144.454 613.856 144.378C613.674 144.303 613.518 144.175 613.409 144.01C613.299 143.846 613.241 143.653 613.241 143.455C613.241 143.19 613.346 142.936 613.533 142.749C613.719 142.561 613.973 142.456 614.237 142.456Z" fill="white"/>
<path opacity="0.9" d="M620.867 144.204C621.279 144.204 621.614 143.869 621.614 143.455C621.614 143.041 621.279 142.706 620.867 142.706C620.454 142.706 620.12 143.041 620.12 143.455C620.12 143.869 620.454 144.204 620.867 144.204Z" fill="white"/>
<path opacity="0.9" d="M627.517 142.951C627.615 142.951 627.711 142.98 627.793 143.035C627.875 143.09 627.939 143.168 627.977 143.259C628.015 143.35 628.024 143.451 628.005 143.548C627.986 143.645 627.939 143.734 627.869 143.803C627.799 143.873 627.71 143.921 627.614 143.94C627.517 143.959 627.417 143.949 627.326 143.912C627.235 143.874 627.157 143.81 627.103 143.728C627.048 143.646 627.019 143.549 627.019 143.45C627.019 143.318 627.071 143.191 627.164 143.097C627.258 143.003 627.385 142.951 627.517 142.951Z" fill="white"/>
<path opacity="0.9" d="M574.443 133.525C574.936 133.525 575.417 133.671 575.827 133.946C576.237 134.22 576.556 134.61 576.744 135.067C576.933 135.523 576.982 136.025 576.886 136.51C576.79 136.994 576.553 137.439 576.204 137.789C575.856 138.138 575.412 138.376 574.929 138.472C574.446 138.568 573.945 138.519 573.49 138.33C573.035 138.141 572.646 137.821 572.372 137.41C572.099 136.999 571.953 136.516 571.953 136.022C571.953 135.36 572.215 134.725 572.682 134.256C573.149 133.788 573.783 133.525 574.443 133.525Z" fill="white"/>
<path opacity="0.9" d="M581.073 138.245C582.303 138.245 583.3 137.246 583.3 136.012C583.3 134.779 582.303 133.78 581.073 133.78C579.844 133.78 578.847 134.779 578.847 136.012C578.847 137.246 579.844 138.245 581.073 138.245Z" fill="white"/>
<path opacity="0.9" d="M587.703 138.001C588.798 138.001 589.685 137.11 589.685 136.012C589.685 134.915 588.798 134.024 587.703 134.024C586.608 134.024 585.72 134.915 585.72 136.012C585.72 137.11 586.608 138.001 587.703 138.001Z" fill="white"/>
<path opacity="0.9" d="M594.338 134.269C594.682 134.268 595.019 134.37 595.306 134.561C595.592 134.752 595.816 135.024 595.948 135.343C596.08 135.662 596.115 136.013 596.048 136.351C595.981 136.69 595.816 137.001 595.572 137.245C595.329 137.489 595.019 137.655 594.681 137.723C594.343 137.79 593.993 137.755 593.675 137.622C593.357 137.49 593.086 137.265 592.895 136.978C592.705 136.69 592.604 136.353 592.604 136.007C592.604 135.779 592.649 135.553 592.736 135.342C592.824 135.131 592.951 134.94 593.112 134.778C593.273 134.617 593.464 134.489 593.675 134.401C593.885 134.314 594.11 134.269 594.338 134.269Z" fill="white"/>
<path opacity="0.9" d="M600.972 134.519C601.268 134.519 601.557 134.607 601.803 134.771C602.048 134.936 602.24 135.17 602.353 135.444C602.466 135.718 602.496 136.019 602.438 136.31C602.38 136.601 602.238 136.868 602.029 137.077C601.82 137.287 601.554 137.429 601.264 137.487C600.974 137.545 600.674 137.515 600.4 137.402C600.127 137.289 599.894 137.096 599.73 136.85C599.566 136.604 599.478 136.314 599.478 136.017C599.478 135.62 599.635 135.239 599.916 134.958C600.196 134.677 600.576 134.519 600.972 134.519Z" fill="white"/>
<path opacity="0.9" d="M607.592 134.764C607.839 134.763 608.081 134.835 608.286 134.972C608.492 135.109 608.652 135.304 608.747 135.532C608.842 135.761 608.867 136.012 608.819 136.255C608.771 136.498 608.652 136.721 608.478 136.895C608.303 137.07 608.081 137.189 607.839 137.237C607.597 137.285 607.346 137.26 607.118 137.165C606.891 137.07 606.696 136.909 606.56 136.703C606.423 136.497 606.351 136.255 606.352 136.007C606.353 135.678 606.484 135.362 606.717 135.129C606.949 134.896 607.264 134.765 607.592 134.764Z" fill="white"/>
<path opacity="0.9" d="M614.232 137.011C614.782 137.011 615.228 136.564 615.228 136.012C615.228 135.461 614.782 135.013 614.232 135.013C613.682 135.013 613.236 135.461 613.236 136.012C613.236 136.564 613.682 137.011 614.232 137.011Z" fill="white"/>
<path opacity="0.9" d="M620.867 136.762C621.279 136.762 621.614 136.426 621.614 136.012C621.614 135.599 621.279 135.263 620.867 135.263C620.454 135.263 620.12 135.599 620.12 136.012C620.12 136.426 620.454 136.762 620.867 136.762Z" fill="white"/>
<path opacity="0.9" d="M627.517 135.508C627.615 135.508 627.711 135.537 627.793 135.592C627.875 135.647 627.939 135.725 627.977 135.816C628.015 135.908 628.024 136.008 628.005 136.105C627.986 136.202 627.939 136.291 627.869 136.361C627.799 136.431 627.71 136.478 627.614 136.497C627.517 136.517 627.417 136.507 627.326 136.469C627.235 136.431 627.157 136.367 627.103 136.285C627.048 136.203 627.019 136.106 627.019 136.007C627.019 135.875 627.071 135.748 627.164 135.654C627.258 135.561 627.385 135.508 627.517 135.508Z" fill="white"/>
</g>
<path opacity="0.6" d="M560.326 60.2969L562.217 40.5532L578.37 52.0631L560.326 60.2969Z" stroke="#6846ED" stroke-width="4" stroke-linejoin="round" stroke-dasharray="2 2"/>
<g opacity="0.5" clip-path="url(#clip1)">
<path d="M99.9883 9.6885L110.524 2.21237L126.194 9.47163L115.659 16.9478L99.9883 9.6885Z" fill="#3F37AA"/>
<path d="M115.659 16.9478L126.194 9.47162L123.689 24.9167L113.129 32.3857L115.659 16.9478Z" fill="#523ECC"/>
<path d="M97.4579 25.1265L99.9882 9.68849L115.659 16.9478L113.129 32.3857L97.4579 25.1265Z" fill="#6846ED"/>
</g>
<g opacity="0.7" clip-path="url(#clip2)">
<path d="M630 535.539L646.897 523.548L672.03 535.191L655.134 547.182L630 535.539Z" fill="#3F37AA"/>
<path d="M655.134 547.182L672.03 535.191L668.012 559.962L651.076 571.942L655.134 547.182Z" fill="#523ECC"/>
<path d="M625.942 560.299L630 535.539L655.134 547.182L651.076 571.942L625.942 560.299Z" fill="#6846ED"/>
</g>
<path opacity="0.8" d="M51.5724 553.326C53.3273 552.435 55.4651 552.351 57.3674 553.286C60.5792 554.864 61.9035 558.747 60.3253 561.959C58.7471 565.171 54.8641 566.495 51.6524 564.917C50.5121 564.356 49.6098 563.506 48.9907 562.498" stroke="#6846ED" stroke-width="3" stroke-linejoin="round"/>
<path opacity="0.6" d="M79.5077 373.478L101.397 357.825L104.008 384.608L79.5077 373.478Z" stroke="#6846ED" stroke-width="4" stroke-linejoin="round" stroke-dasharray="2 2"/>
<path opacity="0.8" d="M651.287 208.08C651.611 210.357 650.897 212.754 649.145 214.506C646.187 217.463 641.392 217.463 638.434 214.506C635.477 211.548 635.477 206.753 638.434 203.795C639.484 202.745 640.766 202.068 642.115 201.763" stroke="#6846ED" stroke-width="3" stroke-linecap="round" stroke-linejoin="round"/>
</g>
<defs>
<clipPath id="clip0">
<rect width="696" height="611" fill="white"/>
</clipPath>
<clipPath id="clip1">
<rect width="26.9621" height="28.3102" fill="white" transform="translate(120.934 34.6052) rotate(-164.126)"/>
</clipPath>
<clipPath id="clip2">
<rect width="43.2428" height="45.4049" fill="white" transform="translate(663.594 575.501) rotate(-164.126)"/>
</clipPath>
</defs>
</svg>
