<svg width="632" height="576" viewBox="0 0 632 576" fill="none" xmlns="http://www.w3.org/2000/svg">
<path d="M502.057 93.8835H193.519C165.211 93.8835 142.263 116.896 142.263 145.283V374.6C142.263 402.987 165.211 426 193.519 426H502.057C530.365 426 553.313 402.987 553.313 374.6V145.283C553.313 116.896 530.365 93.8835 502.057 93.8835Z" fill="#2BEBC8"/>
<line x1="450.024" y1="137.647" x2="588.24" y2="16.976" stroke="white" stroke-width="0.5" stroke-linecap="round"/>
<line x1="50.0223" y1="488.647" x2="150.647" y2="399.978" stroke="white" stroke-width="0.5" stroke-linecap="round"/>
<line x1="84.0223" y1="470.647" x2="184.647" y2="381.978" stroke="white" stroke-width="0.5" stroke-linecap="round"/>
<line x1="460.022" y1="147.647" x2="560.647" y2="58.9777" stroke="white" stroke-width="0.5" stroke-linecap="round"/>
<path opacity="0.9" d="M181.249 78.5H489.751C517.173 78.5 539.5 101.61 539.5 130.239V367.761C539.5 396.39 517.173 419.5 489.751 419.5H181.249C153.827 419.5 131.5 396.39 131.5 367.761V130.239C131.5 101.61 153.827 78.5 181.249 78.5Z" stroke="#6846ED" stroke-width="3"/>
<path d="M288.169 88.4838C289.056 89.6826 289.479 91.401 289.629 92.9395C289.96 96.4807 289.736 100.052 288.966 103.524C288.613 105.118 288.254 107.046 287.472 108.474C286.77 109.718 285.714 109.189 284.518 109.388C283.728 109.537 282.978 109.852 282.317 110.313C281.657 110.773 281.102 111.369 280.688 112.061C279.303 114.424 279.253 117.311 278.496 119.943C277.241 124.309 274.103 127.82 271.453 131.507C259.678 147.906 257.008 169.02 255.683 189.186C255.578 190.764 255.269 192.657 253.81 193.267C248.136 167.127 254.203 139.614 264.992 115.143C269.042 105.957 273.839 96.9406 280.723 89.6427C282.845 87.3899 285.206 86.3159 288.02 87.8095C288.648 88.1701 289.218 88.6249 289.709 89.1581C291.459 90.974 293.323 92.6774 295.287 94.2582C299.323 97.3361 303.63 100.04 308.154 102.335C317.618 107.33 327.58 111.396 337.542 115.353C356.5 122.875 376.26 130.138 396.633 129.279C412.074 128.625 416.766 129.669 429.104 120.288C429.373 120.078 430.937 119.064 432.865 117.79C434.464 116.731 438.768 112.75 439.53 124.224C439.689 126.607 441.358 111.851 441.423 111.506C441.647 110.293 440.77 109.174 439.898 108.304C437.201 105.596 434.03 103.408 430.544 101.851C425.867 99.7678 420.766 98.8787 415.72 98.0045L398.64 95.0474C370.97 90.2571 343.245 85.4617 315.242 83.4187C306.649 82.7943 297.504 82.5446 290.017 86.8204" fill="#0C0C0C"/>
<path d="M460.505 132.886C460.427 136.493 460.109 140.09 459.554 143.655C456.857 163.136 452.462 182.343 446.419 201.054C445.671 203.362 443.958 206.194 441.647 205.49C444.371 189.03 444.406 172.235 441.751 155.763C440.601 148.645 438.947 141.542 439.121 134.334C439.211 130.723 439.759 127.081 439.181 123.515C438.872 121.597 438.24 119.733 438.04 117.805C437.722 114.808 435.052 107.815 435.769 104.878C437.433 98.1694 442.503 95.4171 444.162 88.7086C444.989 85.3819 446.349 81.4807 449.671 80.6615C452.162 80.0421 454.837 81.6605 456.216 83.8434C457.596 86.0263 457.98 88.7086 458.244 91.2911C458.871 97.4152 458.817 103.479 458.742 109.618C458.702 113.954 459.409 118.365 459.823 122.676C460.225 126.065 460.452 129.473 460.505 132.886V132.886Z" fill="#0C0C0C"/>
<path d="M318.883 14.2611C332.93 17.463 343.739 28.4923 352.954 39.5914C356.44 43.8023 360.032 49.3669 357.79 54.3621C356.734 56.7098 354.582 58.3582 352.47 59.8117C340.934 67.8339 322.225 79.2328 308.746 83.2289C308.926 86.196 317.807 84.8973 320.656 85.7265C324.641 86.8704 329.024 85.5417 333.109 86.1111C338.165 86.8154 343.335 86.6106 348.331 87.6646C354.508 88.9434 360.146 92.0204 366.079 94.1583C378.795 98.7788 392.708 99.1185 405.574 103.309C412.089 105.432 418.365 108.549 425.164 109.398C431.964 110.248 439.754 108.195 443.211 102.265C444.74 99.6429 445.263 96.556 446.538 93.8036C447.813 91.0513 450.309 88.4538 453.332 88.5937C454.329 88.6437 455.474 88.9833 456.321 88.4389C457.317 87.8095 457.382 86.3859 457.317 85.202C456.849 78.8 455.603 72.4793 453.606 66.3804C450.85 58.1852 447.07 50.3724 442.359 43.128C434.389 30.6402 424.098 19.3212 410.978 12.5778C405.3 9.6656 399.208 7.66755 393.096 5.84932C385.55 3.60151 377.904 1.61345 370.094 0.649387C363.354 -0.178775 356.543 -0.235754 349.791 0.47955C342.68 1.23035 335.68 2.81119 328.935 5.18996C325.566 6.37689 322.271 7.76468 319.067 9.34591C317.467 10.1351 315.889 10.9677 314.335 11.8435C313.563 12.2831 312.806 12.7676 312.029 13.2022C311.252 13.6367 310.405 13.7766 309.608 14.1712C296.588 20.6649 286.601 31.839 276.947 42.7434C274.342 45.6855 271.722 48.6576 269.764 52.0643C268.041 55.0614 266.87 58.3582 265.705 61.625L257.934 83.4837C255.942 89.1082 253.949 94.7427 252.455 100.532C249.347 112.885 248.764 125.718 248.291 138.45C247.902 148.89 247.643 159.714 251.678 169.35C254.558 152.124 259.961 135.42 267.712 119.778C270.462 114.234 273.5 108.834 276.539 103.439C279.527 98.1594 282.934 92.2801 288.628 89.5828C289.405 89.2131 290.122 88.8734 290.964 89.0383C292.09 89.2531 293.22 89.3979 294.341 89.6377C295.862 89.9578 297.351 90.4159 298.789 91.0064C301.633 92.1097 304.132 93.9549 306.027 96.3512C306.645 97.1685 307.161 98.0594 307.561 99.0036C308.338 100.842 308.657 102.84 309.13 104.783C309.835 107.678 310.891 110.476 312.273 113.115C307.444 110.115 302.913 106.655 298.744 102.785C297.693 101.786 296.672 100.787 295.726 99.7129C294.009 97.8135 292.658 95.6118 291.741 93.2192C291.475 92.6019 291.331 91.9385 291.318 91.2661C291.382 89.7676 292.812 89.318 293.968 88.8285C301.092 85.8488 308.503 83.6125 316.084 82.155C325.408 80.3667 334.967 79.7673 344.097 77.1599C353.228 74.5524 362.189 69.5523 366.896 61.2903C372.275 51.8345 370.96 39.4366 365.107 30.2705C359.255 21.1045 349.462 14.9554 339.071 11.7885C334.394 10.3699 329.503 9.49077 324.626 9.79048C319.944 10.1682 315.37 11.4042 311.132 13.4369" fill="#0C0C0C"/>
<path d="M314.036 154.584C308.298 152.477 302.212 151.485 296.104 151.662C290.58 151.552 285.016 151.448 279.567 152.357C278.272 152.571 276.285 152.147 276.648 150.883C276.757 150.611 276.928 150.368 277.146 150.174C282.626 144.389 290.979 142.531 298.859 141.467C301.021 141.095 303.222 140.996 305.409 141.173C306.946 141.395 308.462 141.744 309.942 142.216L317.737 144.469C324.118 146.312 330.534 148.171 336.481 151.133C338.713 152.242 340.869 153.505 343.001 154.809C344.934 155.988 346.921 157.282 348.032 159.26C349.143 161.238 349.028 164.1 347.19 165.419C345.89 166.343 344.087 166.273 342.623 165.644C341.044 164.959 339.968 163.795 338.752 162.647C338.175 162.102 337.368 161.947 336.63 161.712L333.562 160.748L321.05 156.802L314.036 154.584Z" fill="#0C0C0C"/>
<path d="M284.344 108.589C286.108 111.771 288.533 114.535 291.455 116.694C294.377 118.854 297.727 120.359 301.28 121.107C296.518 116.197 295.751 108.704 296.204 101.911C296.418 98.7788 296.812 95.5269 295.706 92.5898C294.162 88.4988 289.499 86.0212 285.245 86.5956C284.354 86.7155 283.203 86.8354 282.835 87.7595C282.398 88.9525 282.065 90.1808 281.838 91.4309C281.281 94.1741 281.176 96.9906 281.53 99.7678C281.91 102.859 282.864 105.851 284.344 108.589V108.589Z" fill="#0C0C0C"/>
<path d="M403.317 155.793C406.346 155.444 409.434 155.139 412.433 155.703C414.764 156.138 416.96 157.082 419.137 158.016C425.568 160.783 432.392 163.885 436.073 169.85C436.76 170.968 437.268 172.572 436.312 173.476C435.171 174.545 433.373 173.476 432.158 172.477C425.711 167.306 417.747 164.406 409.494 164.225C397.943 164.005 386.765 169.15 375.224 168.721C374.387 168.758 373.556 168.557 372.828 168.141C371.896 167.492 371.558 166.273 371.423 165.144C371.276 163.96 371.276 162.762 371.423 161.578C371.538 160.693 371.837 160.414 372.693 160.274L379.951 159.095C384.907 158.296 389.863 157.526 394.834 156.837C397.674 156.483 400.493 156.118 403.317 155.793Z" fill="#0C0C0C"/>
<path d="M289.589 163.985C287.676 165.184 285.749 166.802 285.385 169.035C287.278 169.535 289.081 168.121 290.645 166.947C294.005 164.334 297.929 162.548 302.102 161.732C308.846 160.564 315.685 162.602 322.225 164.62C323.541 164.964 324.807 165.478 325.991 166.148C326.539 166.493 327.062 167.247 327.659 167.452C327.419 166.96 327.08 166.523 326.663 166.168C325.933 165.358 325.144 164.603 324.302 163.91C322.205 162.202 319.436 161.223 316.875 160.464C313.962 159.601 310.947 159.131 307.91 159.065C304.876 158.994 301.847 159.321 298.899 160.039C295.969 160.753 293.154 161.876 290.535 163.376C290.242 163.586 289.913 163.785 289.589 163.985Z" fill="#0C0C0C"/>
<path d="M402.416 170.184C407.464 170.356 412.379 171.856 416.668 174.532C420.957 177.209 424.469 180.968 426.853 185.434L424.492 187.088C422.161 186.733 421.005 184.166 420.059 181.993C419.364 180.221 418.427 178.555 417.274 177.043C414.585 173.721 410.341 171.942 406.097 171.493C401.853 171.043 397.579 171.788 393.43 172.757C391.587 173.193 389.76 173.669 387.951 174.185C387.031 174.452 386.109 174.726 385.186 175.009C384.688 175.164 384.011 175.509 383.498 175.439C384.374 174.71 385.734 174.255 386.77 173.781C387.972 173.231 389.196 172.732 390.441 172.282C392.887 171.396 395.42 170.773 397.998 170.424C399.462 170.235 400.939 170.155 402.416 170.184Z" fill="#0C0C0C"/>
<path d="M309.832 164.884C311.481 164.981 313.112 165.28 314.689 165.773C316.134 166.287 317.537 166.915 318.883 167.652C321.872 169.18 324.86 170.729 327.465 172.872C330.071 175.014 332.197 177.867 332.92 181.129C331.007 181.129 329.533 179.535 328.178 178.181C325.909 175.908 323.349 173.946 320.567 172.347C320.367 172.197 320.139 172.09 319.896 172.034C319.654 171.977 319.402 171.971 319.157 172.017C318.659 172.187 318.415 172.737 318.196 173.221C317.575 174.623 316.655 175.871 315.5 176.876C314.344 177.881 312.983 178.618 311.511 179.036C310.029 179.423 308.47 179.4 306.999 178.969C305.529 178.538 304.203 177.715 303.163 176.588C301.17 174.28 300.802 170.594 302.525 168.096C301.05 167.71 299.486 167.847 298.1 168.484C296.714 169.121 295.59 170.22 294.919 171.593C294.785 172 294.554 172.368 294.247 172.667C293.817 172.919 293.314 173.016 292.822 172.941L289.216 172.807L287.363 172.737C286.899 172.737 286.247 172.692 286.795 172.202C288.331 170.893 290.011 169.762 291.801 168.83C295.326 166.913 299.166 165.647 303.138 165.094C305.362 164.87 307.599 164.8 309.832 164.884Z" fill="#0C0C0C"/>
<path d="M297.21 177.527C294.321 176.473 291.382 175.094 289.579 172.597C289.566 173.133 289.686 173.664 289.93 174.141C290.174 174.618 290.532 175.027 290.974 175.329C291.865 175.921 292.85 176.356 293.888 176.613C297.609 177.777 301.359 178.931 305.14 179.83C308.922 180.778 312.791 181.338 316.686 181.503C317.772 181.54 318.858 181.528 319.944 181.468C320.472 181.443 321 181.403 321.528 181.353C322.05 181.359 322.571 181.287 323.072 181.138C322.932 180.734 321.234 181.069 320.845 181.089C319.984 181.133 319.127 181.158 318.265 181.163C316.532 181.163 314.778 181.114 313.07 180.974C309.608 180.703 306.177 180.131 302.814 179.265C300.918 178.781 299.048 178.2 297.21 177.527V177.527Z" fill="#0C0C0C"/>
<path d="M322.763 183.831C317.986 185.484 312.756 186.593 307.91 185.16C307.133 184.927 306.373 184.643 305.633 184.31C305.04 184.046 303.97 183.736 303.526 183.257C302.943 182.622 303.8 182.542 304.234 182.577C305.09 182.647 305.947 182.732 306.799 182.822C310.206 183.177 313.608 183.636 317.035 183.821C317.996 183.871 318.958 183.906 319.924 183.906C320.422 183.906 320.885 183.906 321.368 183.906C321.835 183.941 322.303 183.916 322.763 183.831V183.831Z" fill="#0C0C0C"/>
<path d="M383.433 183.431C389.659 177.437 396.817 173.661 405.195 175.729C408.682 176.583 412.497 177.777 415.571 179.62L422.988 184.056C423.486 184.37 424.098 184.795 424.083 185.404C424.042 185.645 423.951 185.873 423.815 186.076C423.68 186.278 423.503 186.449 423.296 186.578C421.021 188.461 418.623 190.19 416.119 191.753C419.725 185.569 419.202 185.484 414.898 181.848C413.519 180.684 408.921 178.631 407.322 179.43C407.99 184.146 404.01 188.991 399.268 189.236C394.526 189.48 390.068 185.08 390.237 180.319C387.801 181.623 385.336 182.992 384.882 185.729C384.822 186.099 383.886 186.763 383.109 187.063C382.332 187.362 381.615 186.993 380.937 186.563C379.533 185.714 382.735 184.101 383.433 183.431Z" fill="#0C0C0C"/>
<path d="M412.597 191.923C408.398 193.571 403.746 193.761 399.273 193.202C395.857 192.771 392.484 192.048 389.191 191.039C388.802 190.919 388.17 190.684 388 190.285C388.563 190.23 389.415 190.699 389.993 190.854C390.775 191.074 391.562 191.269 392.354 191.433C393.956 191.762 395.576 191.999 397.206 192.143C400.508 192.403 403.825 192.438 407.133 192.248C408.059 192.208 408.981 192.158 409.902 192.098L411.282 192.013C411.722 192.04 412.164 192.009 412.597 191.923V191.923Z" fill="#0C0C0C"/>
<path d="M327.645 235.536C327.548 235.765 327.52 236.017 327.564 236.262C327.608 236.507 327.723 236.734 327.894 236.914C328.239 237.27 328.652 237.552 329.109 237.743C330.487 238.433 331.877 239.099 333.278 239.741C333.981 240.076 334.688 240.401 335.4 240.74C335.734 240.895 336.222 241.24 336.486 240.85C336.984 240.066 335.928 239.042 335.425 238.633C334.38 237.778 333.23 237.061 332.003 236.5C330.635 235.87 329.149 235.541 327.645 235.536V235.536Z" fill="#0C0C0C"/>
<path d="M341.148 242.169C345.826 246.02 352.715 246.255 358.373 244.097C359.867 243.528 361.297 242.813 362.776 242.199C365 241.28 367.314 240.597 369.68 240.161C370.502 240.006 371.523 239.966 371.981 240.66C372.629 241.66 371.483 242.823 370.427 243.373C364.519 246.442 357.677 247.177 351.255 245.431" fill="#0C0C0C"/>
<path d="M338.658 225.555C338.942 220.46 341.148 215.84 342.488 210.995C342.689 210.303 342.826 209.594 342.897 208.877C342.428 210.91 342.159 212.998 341.721 215.041C341.223 217.348 340.64 219.641 339.938 221.894C339.744 222.513 339.539 223.128 339.33 223.737C339.146 224.262 338.688 225.006 338.658 225.555Z" fill="#0C0C0C"/>
<path d="M363.787 185.814C363.359 188.836 363.917 192.008 362.936 194.9C363.355 193.392 363.688 191.861 363.932 190.315C364.264 188.766 364.576 187.218 364.868 185.669C365.142 184.295 365.581 182.837 365.615 181.433C365.615 181.168 365.695 180.434 365.496 180.199C365.297 179.965 365.177 180.594 365.102 180.829C364.528 182.451 364.088 184.119 363.787 185.814V185.814Z" fill="#0C0C0C"/>
<path d="M295.88 244.477C294.749 245.061 293.509 245.721 293.041 246.909C299.402 245.91 304.716 241.6 309.269 237.034C309.957 236.345 310.634 235.645 311.287 234.921C311.785 234.382 312.462 233.792 312.641 233.058C312.861 232.139 312.014 233.158 311.75 233.398C311.082 234.012 310.405 234.606 309.717 235.196C306.996 237.51 304.111 239.623 301.085 241.52C299.388 242.579 297.653 243.564 295.88 244.477Z" fill="#0C0C0C"/>
<path d="M243.962 208.517C244.122 213.557 244.784 219.506 249.153 222.004C249.974 222.473 251.07 223.178 250.727 224.067C247.564 223.352 245.208 220.54 244.127 217.473C243.046 214.406 243.021 211.084 243.011 207.833L242.951 190.989L242.921 182.457C242.921 180.12 242.747 177.612 243.723 175.429C244.221 174.285 244.968 172.722 245.93 171.898C245.666 172.407 245.435 172.932 245.237 173.471C244.98 174.668 244.792 175.879 244.675 177.098C244.341 179.62 244.112 182.148 243.957 184.685C243.644 189.745 243.634 194.82 243.728 199.885C243.803 202.758 243.873 205.635 243.962 208.517Z" fill="#0C0C0C"/>
<path d="M443.714 227.963C444.122 230.765 445.074 233.612 444.416 236.365C443.918 238.563 442.424 240.361 440.989 242.124L437.587 246.26C439.891 244.967 441.838 243.121 443.254 240.888C444.67 238.654 445.511 236.103 445.701 233.463C445.945 229.516 444.705 225.625 444.615 221.669C444.632 218.965 444.958 216.271 445.587 213.642C446.05 211.404 446.892 209.001 446.732 206.694C446.698 206.194 446.703 205.22 446.294 204.86C446.05 205.13 446.06 205.63 446 205.979L445.582 208.402L444.76 213.172C444.135 216.327 443.711 219.519 443.49 222.728C443.392 224.476 443.467 226.23 443.714 227.963V227.963Z" fill="#0C0C0C"/>
<path d="M254.413 211.894C253.611 215.8 251.967 219.491 251.125 223.382C250.388 226.784 250.278 230.291 250.169 233.767L249.705 248.383C249.656 249.926 249.616 251.515 250.169 252.954C250.667 254.212 251.568 255.266 252.126 256.5C253.461 259.457 252.729 263.298 254.886 265.716C255.384 266.286 256.031 266.715 256.495 267.34C257.063 268.21 257.431 269.196 257.571 270.227C258.537 275.032 259.095 280.147 261.934 284.138C263.737 286.676 266.332 288.559 268.14 291.086C269.242 292.762 270.194 294.533 270.985 296.376C273.747 302.171 277.143 307.639 281.111 312.68C281.714 313.445 282.745 314.269 283.527 313.679C283.709 313.529 283.856 313.342 283.96 313.13C286.341 309.009 285.33 303.679 283.064 299.498C280.797 295.317 277.415 291.851 274.79 287.885C270.178 280.926 268.011 272.669 265.954 264.567C262.965 252.804 260.066 240.995 258.253 228.992C257.553 224.577 257.101 220.126 256.898 215.66C256.644 208.986 257.715 202.008 255.802 195.614C255.568 194.85 255.304 185.459 254.572 185.779C254.144 186.638 253.476 196.444 253.825 197.393C254.173 198.342 253.969 199.016 254.203 199.99C254.803 202.502 255.048 205.087 254.931 207.668C254.871 209.088 254.698 210.501 254.413 211.894Z" fill="#0C0C0C"/>
<path d="M350.752 248.278C348.999 247.804 347.898 250.111 347.554 251.9L345.472 262.709C345.198 264.138 343.903 265.781 345.198 266.43C346.493 267.08 349.771 267.569 350.593 267.929C355.484 269.927 360.59 269.727 364.953 272.709C368.201 274.927 370.93 279.313 372.509 280.377C374.97 282.015 378.985 279.792 380.977 281.95C382.093 283.139 382.262 284.912 382.292 286.546C382.576 302.161 375.513 317.486 377.466 333.001C377.734 335.144 378.656 337.736 380.798 337.971C382.028 338.101 383.164 337.351 384.175 336.637L388.25 333.755C390.795 331.957 393.44 330.043 394.84 327.261C396.488 323.974 396.115 320.018 395.079 316.492C394.043 312.965 392.389 309.628 391.527 306.052C390.904 303.186 390.6 300.259 390.621 297.325C390.483 293.758 390.762 290.188 391.452 286.686C392.21 283.234 393.589 279.942 394.267 276.476C394.944 273.009 394.845 269.173 392.867 266.256C388.802 260.261 379.418 261.021 374.029 256.18C373.087 255.336 372.295 254.332 371.309 253.538C366.955 250.041 360.634 251.54 355.061 251.14C355.031 249.267 357.242 248.303 359.045 247.839L366.716 245.841C368.355 245.416 370.298 244.672 370.552 242.998L358.508 245.496C354.378 246.355 350.224 247.429 346.055 248.063C345.129 248.185 344.193 248.222 343.26 248.173C340.969 248.103 338.693 247.754 336.396 247.674C330.882 247.449 325.438 248.748 319.959 249.452C314.48 250.156 308.667 250.226 303.735 247.739C303.252 247.432 302.702 247.245 302.132 247.194C301.56 247.245 301.012 247.451 300.548 247.789C295.796 250.676 291.223 255.141 291.158 260.711C291.113 264.268 292.931 267.574 293.474 271.091C294.401 277.085 291.562 282.979 288.807 288.394L283.557 298.709C282.96 299.796 282.46 300.935 282.063 302.111C281.296 304.678 281.565 307.426 281.794 310.103C282.118 313.45 282.471 316.906 284.11 319.838C285.33 322.011 287.178 323.745 289.016 325.423C293.684 329.679 297.903 335.413 302.829 339.379C304.741 340.903 306.939 342.025 309.292 342.679C311.645 343.332 314.106 343.505 316.527 343.186C317.15 343.133 317.748 342.916 318.26 342.556C318.797 342.045 319.183 341.395 319.376 340.678C320.538 337.43 321.164 334.013 321.229 330.563C321.284 327.691 320.791 324.499 318.574 322.671C317.125 321.472 315.187 321.082 313.503 320.253C311.152 319.094 309.324 317.096 307.755 314.993C302.585 308.046 299.656 299.68 299.362 291.017C299.219 288.694 299.477 286.363 300.124 284.128C301.619 279.548 305.379 276.136 309.005 273.009C310.5 271.715 317.07 268.049 318.23 268.179C323.321 268.738 330.778 267.22 335.814 266.281C338.474 265.781 343.534 268.379 345.611 264.747C346.453 263.249 345.044 263.024 346.04 261.645C346.707 260.864 347.421 260.123 348.177 259.427C350.169 257.269 350.667 254.028 349.821 251.27C349.497 250.206 351.629 248.273 350.453 247.874C350.319 247.829 347.33 247.839 347.19 247.839" fill="#0C0C0C"/>
<path d="M327.4 284.293C328.138 284.793 328.959 285.352 329.124 286.226C329.288 287.1 328.77 287.865 328.307 288.584C325.188 293.488 323.559 299.196 323.62 305.013L328.282 302.515C328.56 304.83 328.313 307.178 327.56 309.384C328.983 307.137 330.953 305.289 333.283 304.014C334.035 307.545 328.023 310.507 329.742 313.659L337.711 307.361L337.781 310.463C339.38 310.997 340.142 308.18 341.766 307.8C343.818 307.301 345.497 310.907 347.365 309.928C347.762 309.645 348.114 309.301 348.406 308.909C349.104 308.231 350.037 307.849 351.01 307.844C351.982 307.838 352.919 308.209 353.626 308.879C353.521 306.821 353.79 304.184 355.753 303.569C357.631 302.98 359.499 304.843 361.456 304.643C361.566 302.425 361.635 300.033 360.41 298.15C359.767 297.175 358.816 296.436 358.179 295.457C356.057 292.18 358.801 288.254 359.369 284.583C356.171 285.617 347.778 285.082 345.193 284.468C338.658 282.969 335.126 283.664 328.526 279.757C325.677 278.074 321.747 277.2 321.054 273.953C325.099 273.454 328.566 276.606 332.322 278.204C340.456 281.666 349.9 277.704 358.592 279.268C359.857 279.498 361.162 279.877 362.079 280.766C362.995 281.656 362.911 282.47 362.203 283.544C364.694 283.479 372.23 280.352 372.24 279.762C372.24 279.293 370.701 278.389 370.417 278.014C365.107 271.021 355.369 269.522 346.712 268.024C343.833 267.524 340.924 267.025 338.005 267.17C334.688 267.305 331.45 268.169 328.153 268.603C325.79 268.901 323.404 268.96 321.03 268.778C319.675 268.673 315.585 266.106 314.903 267.779C314.38 269.063 316.771 272.609 317.393 273.718C318.483 275.59 319.778 277.334 321.254 278.918C323.071 280.96 325.136 282.765 327.4 284.293Z" fill="#0C0C0C"/>
<path d="M320.805 319.204C321.996 319.704 323.102 320.513 324.387 320.618C328.422 320.952 330.12 314.848 334.055 313.919C333.841 315.368 333.637 316.916 334.215 318.245C334.792 319.574 336.471 320.563 337.751 319.853C338.349 319.524 338.747 318.894 339.375 318.615C341.168 317.8 342.618 320.158 344.132 321.417C346.289 323.21 349.99 322.551 351.404 320.128C351.828 322.746 353.133 326.122 355.763 325.813C355.568 324.973 356.58 324.269 357.436 324.369C358.293 324.469 359 325.048 359.738 325.498C364.634 328.495 373.879 323.29 379.019 320.723C378.82 324.219 378.75 327.146 381.057 329.769C382.172 331.038 381.968 335.653 381.859 337.341C381.714 339.549 379.119 340.548 377.052 341.337C372.285 343.151 368.23 346.423 363.777 348.91C355.492 353.51 345.963 355.354 336.566 354.175C331.744 353.556 327.062 352.147 322.409 350.748C316.347 348.92 310.041 346.957 305.474 342.566C303.415 340.58 301.799 338.18 300.732 335.523C300.241 334.466 300.033 333.299 300.129 332.136C300.333 330.723 301.275 329.534 302.241 328.48C304.398 326.126 306.837 324.048 309.503 322.296C310.041 321.941 310.604 321.687 311.162 321.377C311.67 321.021 312.158 320.636 312.622 320.223C313.719 319.431 314.987 318.909 316.322 318.7C317.834 318.442 319.388 318.617 320.805 319.204V319.204Z" fill="#0C0C0C"/>
<path d="M416.014 303.015C413.862 304.643 413.783 304.943 411.626 307.226C411.083 307.8 409.489 310.083 408.996 310.722C408.139 311.806 400.757 320.238 399.666 321.042C397.529 322.606 396.414 324.579 394.755 326.647C393.096 328.715 390.909 330.643 388.279 330.823L387.662 320.772C387.51 319.454 387.574 318.119 387.851 316.821C388.598 314.044 391.134 312.191 393.48 310.532C400.349 305.677 407.108 300.437 412.119 293.669C414.789 290.062 416.911 286.091 419.028 282.13L423.062 274.572C425.408 270.177 427.814 265.581 428.043 260.586C428.035 259.631 428.091 258.676 428.213 257.729C428.43 256.767 428.747 255.832 429.159 254.937C431.236 249.867 432.646 244.552 433.871 239.222C435.097 233.892 436.207 228.422 437.697 223.103C438.065 221.794 438.459 220.485 438.882 219.191C439.186 218.262 441.373 204.835 442.21 204.256C442.708 203.931 440.84 215.745 440.745 216.244C440.606 216.974 440.426 217.693 440.247 218.417C439.933 219.871 439.624 221.319 439.321 222.773C438.12 228.547 437.019 234.347 436.222 240.191C435.391 246.029 434.962 251.917 434.937 257.814C434.937 258.533 434.937 259.257 434.937 259.977C434.992 262.299 435.126 264.642 434.763 266.935C434.335 269.617 433.239 272.14 432.153 274.627C430.738 277.859 429.314 281.121 427.266 283.988C426.433 285.085 425.828 286.339 425.488 287.675C425.408 288.074 423.804 290.172 423.695 290.557C423.008 292.092 422.208 293.575 421.304 294.993C418.674 298.689 420.472 299.488 416.771 302.38C416.029 302.96 415.581 303.235 415.312 304.189C414.609 306.686 414.081 309.184 413.369 311.681C411.944 316.645 410.256 321.529 408.313 326.312C404.431 335.89 399.554 345.031 393.764 353.585C391.273 357.249 388.616 360.803 385.794 364.25C383.093 367.61 380.148 370.764 376.982 373.686C363.668 385.749 344.78 391.613 327.122 388.417C321.319 387.363 315.725 385.42 310.186 383.327C302.57 380.459 294.889 377.277 288.707 371.973C284.374 368.251 280.922 363.601 277.884 358.755C273.59 351.842 269.635 345.973 267.817 337.981C267.159 335.099 264.509 326.272 263.608 323.45C262.666 320.493 258.711 292.695 259.439 279.263C259.608 276.116 259.742 272.849 258.537 269.937C255.349 271.436 255.05 275.781 255.24 279.308L255.912 292.63C256.614 306.481 257.342 320.503 261.486 333.73C266.765 350.293 277.01 364.82 290.824 375.329C304.679 385.769 321.29 391.889 338.588 392.927C341.656 393.112 344.77 393.132 347.763 392.428C350.757 391.723 353.556 390.335 356.316 388.956C366.776 383.706 377.515 378.281 385.53 369.715C389.236 365.749 392.269 361.223 395.283 356.692C407.237 338.76 419.062 321.637 418.943 300.063C418.046 301.237 418.041 301.506 416.886 302.246" fill="#0C0C0C"/>
<path d="M251.797 259.682C247.901 264.708 244.956 270.409 243.11 276.501C242.004 280.269 241.224 284.126 240.779 288.029C238.876 303.61 240.626 319.421 245.89 334.204C247.949 339.754 250.298 345.192 252.928 350.494C254.934 354.815 257.184 359.017 259.668 363.081C268.634 377.297 282.446 387.982 297.574 395.255C295.581 394.101 293.589 392.947 291.596 391.718C278.475 383.446 267.625 372.013 260.036 358.461C258.482 355.678 257.077 352.821 255.673 349.969C252.415 343.35 249.143 336.702 246.976 329.649C242.697 315.697 242.926 300.812 243.19 286.216C243.275 281.511 243.429 276.561 245.84 272.524C247.369 269.967 249.685 267.999 251.603 265.716C252.968 264.098 254.168 262.22 254.592 260.097C254.716 259.502 255.035 257.999 254.168 257.774C253.302 257.549 252.201 259.157 251.797 259.682Z" fill="#0C0C0C"/>
<path d="M432.163 292.425C427.276 321.612 412.537 348.271 395.233 372.242C392.065 376.633 388.758 380.994 384.653 384.51C378.098 390.115 369.849 393.272 361.695 396.059C348.316 400.635 334.394 404.551 320.278 403.857C334.797 401.504 349.377 398.657 362.881 392.817C376.385 386.978 390.441 374.21 396.513 365.279C402.585 356.348 407.362 348.935 411.252 342.302C414.139 337.506 416.727 332.536 419.003 327.421C421.334 322.326 426.703 308.774 428.083 298.259C428.651 293.914 430.076 288.884 430.26 284.503C430.345 282.262 430.568 280.028 430.927 277.814C431.11 276.705 431.324 275.605 431.57 274.513C431.729 273.813 431.839 272.085 432.566 271.735C433.194 273.069 433.144 275.182 433.244 276.655C433.362 278.416 433.389 280.182 433.323 281.945C433.164 285.46 432.776 288.961 432.163 292.425Z" fill="#0C0C0C"/>
<path d="M311.013 372.772C313.408 369.825 317.956 370.314 321.523 369.02C326.11 367.357 329.074 362.652 333.642 360.943C336.132 360.009 338.892 360.069 341.562 360.139C343.649 360.189 346.144 360.489 347.086 362.357C347.917 363.995 347.031 366.028 345.731 367.352C344.431 368.676 342.742 369.525 341.477 370.849C340.29 372.106 339.498 373.686 339.199 375.391C338.901 377.096 339.109 378.852 339.798 380.439C340.59 382.158 341.93 383.591 342.578 385.37C343.225 387.148 342.822 389.585 341.083 390.245C338.702 391.134 336.755 388.282 335.604 386.014C333.049 381.019 328.536 376.169 322.937 376.383C318.136 376.573 314.44 380.23 310.086 381.778C308.803 382.232 307.46 382.498 306.101 382.567C305.319 382.607 303.397 382.867 302.839 382.133C301.708 380.634 304.647 379.096 305.578 378.716C306.805 378.224 307.895 377.443 308.756 376.438C309.658 375.319 310.096 373.896 311.013 372.772Z" fill="#0C0C0C"/>
<path d="M275.139 374.475L296.657 386.164C284.978 380.171 274.741 371.699 266.656 361.338C284.329 374.915 302.52 388.771 323.879 395.125L296.841 386.933C301.011 389.086 305.225 391.169 309.349 393.397C304.592 391.963 299.626 390.54 295.033 388.611C290.725 386.798 286.705 383.906 282.989 381.119C280.244 379.062 277.622 376.843 275.139 374.475V374.475Z" fill="#0C0C0C"/>
<path d="M262.029 288.474C261.675 291.286 262.676 294.133 264.235 296.501C265.795 298.869 267.877 300.822 269.944 302.755C270.108 302.958 270.313 303.124 270.544 303.244C270.775 303.365 271.029 303.436 271.289 303.454C268.652 300.175 266.403 296.602 264.584 292.805C263.797 291.156 263.06 289.598 262.891 287.765C262.831 287.14 259.987 278.479 259.454 278.114C259.15 277.904 259.254 285.402 259.234 285.107C260.056 295.762 262.462 304.433 267.543 313.824C268.539 315.712 269.57 318.62 270.093 319.699C269.097 316.647 268.101 313.589 267.179 310.507C265.595 305.143 264.26 299.678 263.693 294.098C263.478 292.091 263.157 290.097 262.731 288.124" fill="#0C0C0C"/>
<path d="M386.88 253.468C388.673 255.991 390.536 258.583 393.151 260.236C392.394 259.327 391.497 258.553 390.66 257.704C387.278 254.207 385.321 249.627 382.292 245.85C381.709 245.121 380.723 243.583 379.752 243.418C380.218 244.247 380.761 245.03 381.375 245.756L383.204 248.323L386.88 253.468Z" fill="#0C0C0C"/>
<path d="M364.061 232.768C364.44 232.109 363.743 231.385 363.259 230.77C362.149 229.416 362.044 227.518 361.994 225.775L361.665 214.701C361.616 212.903 361.511 211.089 361.521 209.286C361.521 208.842 361.521 206.019 362.188 205.914C362.856 205.809 362.721 210.125 362.721 210.585C362.721 213.867 362.657 217.133 362.816 220.415C363.016 224.552 363.432 228.675 364.061 232.768V232.768Z" fill="#0C0C0C"/>
<path d="M394.137 197.737C396.234 198.362 398.471 198.302 400.662 198.237C398.222 197.994 395.834 197.372 393.584 196.394C391.313 195.402 389.145 194.191 387.109 192.777C386.561 192.408 386.028 192.018 385.49 191.638C385.359 191.523 385.207 191.434 385.042 191.379C385.189 191.625 385.382 191.842 385.609 192.018C386.078 192.467 386.561 192.902 387.054 193.332C388.297 194.44 389.63 195.442 391.039 196.329C392.006 196.932 393.047 197.405 394.137 197.737V197.737Z" fill="#0C0C0C"/>
<path d="M249.103 202.113C249.676 204.89 250.896 207.573 250.871 210.41C249.656 210.125 249.377 208.557 249.222 207.313C248.809 203.981 247.484 200.744 247.688 197.393C247.863 195.694 248.221 194.019 248.754 192.397L249.427 190.005C249.541 189.61 249.586 189.006 249.89 188.721C250.791 189.805 249.696 192.452 249.392 193.566C248.623 196.352 248.524 199.281 249.103 202.113Z" fill="#0C0C0C"/>
<path d="M440.666 229.152C440.167 228.827 440.486 226.26 440.541 225.74C440.678 224.588 440.898 223.448 441.199 222.328C441.487 221.184 441.816 220.051 442.095 218.907C442.22 218.372 442.633 217.408 442.404 216.879C441.562 217.378 441.094 219.276 440.82 220.155C440.126 222.218 439.713 224.366 439.59 226.539C439.56 227.518 439.794 228.587 440.666 229.152Z" fill="#0C0C0C"/>
<path d="M319.775 402.183C318.719 401.849 317.339 401.933 316.228 401.764C315.117 401.594 313.882 401.359 312.741 401.099C310.389 400.57 308.076 399.881 305.817 399.036C304.986 398.727 303.641 398.467 303.118 397.683C302.44 396.684 303.312 396.933 304.034 397.183L311.506 399.556L319.775 402.183Z" fill="#0C0C0C"/>
<path d="M416.238 396.394C419.819 388.811 422.655 380.896 424.706 372.762C426.764 364.586 428.377 356.303 429.538 347.951C429.84 345.873 430.13 343.792 430.409 341.707C430.658 339.814 431.097 337.831 431.092 335.923C431.092 335.493 430.967 333.115 430.385 333.425C430.006 333.645 429.812 335.923 429.712 336.367C429.468 337.491 429.214 338.62 428.97 339.744C427.004 348.655 425.027 357.567 423.037 366.478C421.048 375.389 419.021 384.321 416.956 393.272C416.736 394.246 416.647 395.515 416.238 396.394Z" fill="#0C0C0C"/>
<path d="M275.483 406.499C270.307 399.356 267.687 390.814 264.325 382.752C263.9 381.753 263.462 380.744 263.01 379.725C262.656 378.951 262.377 377.887 261.62 377.407C260.863 376.928 260.624 377.078 260.749 377.832C260.893 378.891 261.496 380.055 261.859 381.064C263.415 385.347 265.258 389.519 267.378 393.552C269.765 398.057 272.474 402.385 275.483 406.499V406.499Z" fill="#0C0C0C"/>
<path d="M237.328 280.821L236.416 343.216C236.252 354.49 236.087 365.814 237.532 377.003C238.269 382.737 239.425 388.402 240.585 394.066C242.428 403.097 244.301 412.218 248.141 420.59L238.921 403.916C239.374 408.381 240.306 412.784 241.701 417.049C239.372 411.828 237.483 406.421 236.052 400.884C232.471 387.143 231.569 372.862 230.688 358.691C230.414 354.295 230.14 349.904 229.985 345.508C229.197 323.404 231.356 301.293 236.406 279.762C236.92 287.312 236.938 294.888 236.461 302.44C236.461 302.89 236.291 303.439 235.843 303.514C235.395 303.589 235.594 302.59 235.873 302.945" fill="#0C0C0C"/>
<path d="M133.098 323.904C131.524 324.819 129.711 326.207 130.04 328C146.253 314.344 166.581 306.871 185.614 297.57C202.956 289.086 219.44 278.942 234.837 267.28C238.373 264.602 242.562 261.955 245.571 258.688C238.289 262.215 231.35 266.9 224.337 270.971L202.246 283.789L158.058 309.424L133.098 323.904Z" fill="#0C0C0C"/>
<path d="M517.509 288.404C535.65 295.432 553.925 302.85 569.506 314.514L517.922 294.573C507.138 290.407 496.354 286.241 485.635 281.915C474.816 277.555 464.062 273.034 453.447 268.199C450.458 266.837 447.47 265.443 444.481 264.018C441.786 262.734 438.309 261.625 435.978 259.787C436.89 257.944 448.536 263.079 450.453 263.748C455.869 265.63 461.279 267.538 466.682 269.472C477.584 273.372 488.456 277.368 499.298 281.461C505.378 283.745 511.448 286.06 517.509 288.404Z" fill="#0C0C0C"/>
<path d="M313 170.933C312.835 170.944 312.675 170.993 312.533 171.078C312.391 171.163 312.271 171.281 312.184 171.422C312.097 171.563 312.045 171.723 312.031 171.888C312.018 172.053 312.045 172.219 312.109 172.372C312.196 172.514 312.317 172.632 312.462 172.715C312.607 172.798 312.769 172.843 312.936 172.847C313.102 172.85 313.267 172.812 313.415 172.735C313.563 172.658 313.689 172.545 313.782 172.407L313.857 171.008L312.781 170.973" fill="white"/>
<path d="M402.515 178.841L401.913 178.886C401.654 179.339 401.569 179.872 401.673 180.384H403.337C403.492 179.675 403.457 178.656 402.739 178.551" fill="white"/>
<path d="M310.983 171.488C310.853 171.418 310.71 171.376 310.563 171.364C310.416 171.351 310.269 171.369 310.129 171.416C309.989 171.463 309.86 171.537 309.75 171.636C309.64 171.734 309.551 171.854 309.489 171.987C309.833 172.117 310.205 172.159 310.569 172.11C310.934 172.061 311.282 171.923 311.581 171.708C311.51 171.582 311.396 171.487 311.261 171.439C311.125 171.391 310.977 171.394 310.843 171.448" fill="white"/>
<path d="M401.001 179.97L399.681 180.829C399.809 180.93 399.963 180.993 400.125 181.012C400.286 181.032 400.45 181.006 400.599 180.939C400.747 180.872 400.874 180.765 400.966 180.63C401.058 180.495 401.112 180.338 401.121 180.175" fill="white"/>
<path d="M328.695 228.777C328.254 228.96 327.859 229.241 327.541 229.598C327.223 229.955 326.989 230.38 326.857 230.84C326.687 231.375 326.589 231.932 326.569 232.493C326.569 232.803 326.504 233.283 326.733 233.537C326.778 233.248 326.793 232.955 326.778 232.663C326.813 232.307 326.878 231.955 326.972 231.609C327.16 230.917 327.47 230.264 327.888 229.681C328.124 229.351 328.394 229.048 328.695 228.777V228.777Z" fill="#0C0C0C"/>
<path d="M373.754 239.442C373.919 239.072 374.148 238.737 374.297 238.358C374.453 237.96 374.57 237.549 374.646 237.129C374.8 236.295 374.8 235.44 374.646 234.607C374.581 234.19 374.462 233.784 374.292 233.398C374.65 234.963 374.622 236.591 374.213 238.143C374.093 238.587 373.94 239.021 373.754 239.442V239.442Z" fill="#0C0C0C"/>
<g opacity="0.9">
<path opacity="0.9" d="M529.443 185.629C529.936 185.629 530.417 185.776 530.827 186.05C531.237 186.324 531.556 186.715 531.744 187.171C531.933 187.627 531.982 188.129 531.886 188.614C531.79 189.098 531.553 189.543 531.204 189.893C530.856 190.242 530.412 190.48 529.929 190.576C529.446 190.673 528.945 190.623 528.49 190.434C528.035 190.245 527.646 189.925 527.372 189.514C527.099 189.104 526.953 188.621 526.953 188.127C526.953 187.464 527.215 186.829 527.682 186.361C528.149 185.892 528.783 185.629 529.443 185.629V185.629Z" fill="white"/>
<path opacity="0.9" d="M536.073 185.889C536.515 185.888 536.947 186.018 537.314 186.264C537.682 186.509 537.969 186.858 538.138 187.267C538.308 187.676 538.353 188.126 538.267 188.56C538.182 188.995 537.97 189.394 537.658 189.707C537.346 190.021 536.948 190.234 536.515 190.321C536.082 190.408 535.633 190.364 535.225 190.195C534.817 190.025 534.468 189.739 534.223 189.371C533.978 189.002 533.847 188.57 533.847 188.127C533.847 187.534 534.081 186.966 534.498 186.546C534.916 186.127 535.482 185.89 536.073 185.889Z" fill="white"/>
<path opacity="0.9" d="M542.703 190.115C543.798 190.115 544.685 189.225 544.685 188.127C544.685 187.029 543.798 186.139 542.703 186.139C541.608 186.139 540.72 187.029 540.72 188.127C540.72 189.225 541.608 190.115 542.703 190.115Z" fill="white"/>
<path opacity="0.9" d="M549.338 186.383C549.682 186.382 550.018 186.484 550.305 186.675C550.591 186.866 550.815 187.138 550.947 187.456C551.08 187.775 551.115 188.125 551.048 188.464C550.982 188.802 550.817 189.113 550.574 189.358C550.331 189.602 550.021 189.768 549.684 189.836C549.346 189.904 548.997 189.87 548.679 189.738C548.361 189.606 548.089 189.383 547.898 189.096C547.706 188.809 547.604 188.472 547.604 188.127C547.604 187.665 547.787 187.223 548.112 186.896C548.437 186.569 548.878 186.385 549.338 186.383V186.383Z" fill="white"/>
<path opacity="0.9" d="M555.972 186.628C556.268 186.628 556.557 186.716 556.803 186.881C557.048 187.045 557.24 187.279 557.353 187.553C557.466 187.827 557.496 188.128 557.438 188.419C557.38 188.71 557.238 188.977 557.029 189.186C556.82 189.396 556.554 189.539 556.264 189.596C555.974 189.654 555.674 189.625 555.401 189.511C555.128 189.398 554.894 189.206 554.73 188.959C554.566 188.713 554.478 188.423 554.478 188.127C554.478 187.729 554.636 187.348 554.916 187.067C555.196 186.786 555.576 186.628 555.972 186.628Z" fill="white"/>
<path opacity="0.9" d="M562.592 186.878C562.839 186.877 563.08 186.949 563.285 187.086C563.491 187.223 563.651 187.417 563.746 187.645C563.841 187.873 563.867 188.125 563.819 188.367C563.772 188.61 563.654 188.833 563.48 189.008C563.306 189.183 563.084 189.303 562.842 189.351C562.6 189.4 562.35 189.375 562.122 189.281C561.894 189.187 561.699 189.026 561.562 188.821C561.425 188.616 561.352 188.374 561.352 188.127C561.352 187.796 561.483 187.479 561.715 187.245C561.947 187.011 562.263 186.879 562.592 186.878V186.878Z" fill="white"/>
<path opacity="0.9" d="M569.237 187.128C569.434 187.128 569.627 187.186 569.791 187.296C569.954 187.406 570.082 187.562 570.157 187.744C570.233 187.927 570.253 188.128 570.214 188.322C570.176 188.515 570.081 188.693 569.942 188.833C569.802 188.973 569.625 189.068 569.431 189.106C569.238 189.145 569.038 189.125 568.856 189.05C568.674 188.974 568.518 188.846 568.409 188.682C568.299 188.517 568.241 188.324 568.241 188.127C568.241 187.862 568.346 187.608 568.533 187.42C568.719 187.233 568.973 187.128 569.237 187.128Z" fill="white"/>
<path opacity="0.9" d="M575.867 187.377C576.015 187.377 576.159 187.421 576.282 187.504C576.405 187.586 576.501 187.703 576.557 187.84C576.614 187.977 576.629 188.127 576.6 188.273C576.571 188.418 576.5 188.552 576.395 188.656C576.291 188.761 576.158 188.833 576.013 188.862C575.868 188.89 575.717 188.876 575.581 188.819C575.444 188.762 575.328 188.666 575.246 188.543C575.164 188.42 575.12 188.275 575.12 188.127C575.121 187.928 575.2 187.739 575.34 187.598C575.48 187.458 575.669 187.379 575.867 187.377V187.377Z" fill="white"/>
<path opacity="0.9" d="M582.517 187.627C582.615 187.627 582.711 187.656 582.793 187.711C582.875 187.766 582.939 187.844 582.977 187.936C583.015 188.027 583.024 188.127 583.005 188.224C582.986 188.321 582.939 188.41 582.869 188.48C582.799 188.55 582.71 188.597 582.614 188.617C582.517 188.636 582.417 188.626 582.326 188.588C582.235 188.55 582.157 188.486 582.103 188.404C582.048 188.322 582.019 188.225 582.019 188.127C582.019 187.994 582.071 187.867 582.164 187.773C582.258 187.68 582.385 187.627 582.517 187.627Z" fill="white"/>
<path opacity="0.9" d="M529.443 178.196C529.936 178.196 530.417 178.343 530.827 178.617C531.237 178.892 531.556 179.282 531.744 179.738C531.933 180.195 531.982 180.697 531.886 181.181C531.79 181.666 531.553 182.111 531.204 182.46C530.856 182.809 530.412 183.047 529.929 183.144C529.446 183.24 528.945 183.19 528.49 183.001C528.035 182.812 527.646 182.492 527.372 182.082C527.099 181.671 526.953 181.188 526.953 180.694C526.953 180.032 527.215 179.396 527.682 178.928C528.149 178.46 528.783 178.196 529.443 178.196V178.196Z" fill="white"/>
<path opacity="0.9" d="M536.073 182.917C537.303 182.917 538.3 181.917 538.3 180.684C538.3 179.451 537.303 178.451 536.073 178.451C534.843 178.451 533.847 179.451 533.847 180.684C533.847 181.917 534.843 182.917 536.073 182.917Z" fill="white"/>
<path opacity="0.9" d="M542.703 182.672C543.798 182.672 544.685 181.782 544.685 180.684C544.685 179.586 543.798 178.696 542.703 178.696C541.608 178.696 540.72 179.586 540.72 180.684C540.72 181.782 541.608 182.672 542.703 182.672Z" fill="white"/>
<path opacity="0.9" d="M549.338 178.941C549.682 178.94 550.019 179.041 550.305 179.232C550.592 179.424 550.816 179.696 550.948 180.015C551.08 180.333 551.115 180.684 551.048 181.023C550.981 181.361 550.815 181.673 550.572 181.917C550.329 182.161 550.018 182.327 549.681 182.394C549.343 182.461 548.993 182.426 548.675 182.294C548.357 182.161 548.086 181.937 547.895 181.649C547.705 181.362 547.603 181.024 547.604 180.679C547.604 180.218 547.787 179.776 548.112 179.45C548.437 179.124 548.878 178.941 549.338 178.941V178.941Z" fill="white"/>
<path opacity="0.9" d="M555.972 179.185C556.268 179.185 556.557 179.273 556.803 179.438C557.048 179.603 557.24 179.837 557.353 180.11C557.466 180.384 557.496 180.686 557.438 180.976C557.38 181.267 557.238 181.534 557.029 181.744C556.82 181.953 556.554 182.096 556.264 182.154C555.974 182.211 555.674 182.182 555.401 182.068C555.128 181.955 554.894 181.763 554.73 181.516C554.566 181.27 554.478 180.98 554.478 180.684C554.478 180.286 554.636 179.905 554.916 179.624C555.196 179.343 555.576 179.185 555.972 179.185V179.185Z" fill="white"/>
<path opacity="0.9" d="M562.592 179.435C562.839 179.434 563.081 179.507 563.286 179.644C563.492 179.78 563.652 179.975 563.747 180.204C563.842 180.432 563.867 180.684 563.819 180.926C563.771 181.169 563.652 181.392 563.478 181.567C563.303 181.742 563.081 181.861 562.839 181.909C562.597 181.957 562.346 181.932 562.118 181.837C561.891 181.742 561.696 181.581 561.56 181.375C561.423 181.169 561.351 180.926 561.352 180.679C561.353 180.35 561.484 180.034 561.717 179.801C561.949 179.568 562.264 179.437 562.592 179.435V179.435Z" fill="white"/>
<path opacity="0.9" d="M569.232 181.683C569.782 181.683 570.228 181.236 570.228 180.684C570.228 180.132 569.782 179.685 569.232 179.685C568.682 179.685 568.236 180.132 568.236 180.684C568.236 181.236 568.682 181.683 569.232 181.683Z" fill="white"/>
<path opacity="0.9" d="M575.867 181.433C576.28 181.433 576.614 181.098 576.614 180.684C576.614 180.27 576.28 179.935 575.867 179.935C575.454 179.935 575.12 180.27 575.12 180.684C575.12 181.098 575.454 181.433 575.867 181.433Z" fill="white"/>
<path opacity="0.9" d="M582.517 180.179C582.615 180.179 582.711 180.209 582.793 180.264C582.875 180.318 582.939 180.396 582.977 180.488C583.015 180.579 583.024 180.679 583.005 180.776C582.986 180.873 582.939 180.962 582.869 181.032C582.799 181.102 582.71 181.15 582.614 181.169C582.517 181.188 582.417 181.178 582.326 181.14C582.235 181.103 582.157 181.039 582.103 180.956C582.048 180.874 582.019 180.778 582.019 180.679C582.019 180.546 582.071 180.419 582.164 180.326C582.258 180.232 582.385 180.179 582.517 180.179Z" fill="white"/>
<path opacity="0.9" d="M529.443 170.754C529.936 170.754 530.417 170.9 530.827 171.175C531.237 171.449 531.556 171.839 531.744 172.295C531.933 172.752 531.982 173.254 531.886 173.738C531.79 174.223 531.553 174.668 531.204 175.017C530.856 175.367 530.412 175.604 529.929 175.701C529.446 175.797 528.945 175.748 528.49 175.559C528.035 175.37 527.646 175.049 527.372 174.639C527.099 174.228 526.953 173.745 526.953 173.251C526.953 172.589 527.215 171.954 527.682 171.485C528.149 171.017 528.783 170.754 529.443 170.754Z" fill="white"/>
<path opacity="0.9" d="M536.073 170.998C536.515 170.997 536.947 171.128 537.314 171.373C537.682 171.618 537.969 171.968 538.138 172.376C538.308 172.785 538.353 173.235 538.267 173.67C538.182 174.104 537.97 174.503 537.658 174.817C537.346 175.13 536.948 175.344 536.515 175.431C536.082 175.517 535.633 175.473 535.225 175.304C534.817 175.135 534.468 174.848 534.223 174.48C533.978 174.112 533.847 173.679 533.847 173.236C533.847 172.644 534.081 172.075 534.498 171.656C534.916 171.236 535.482 171 536.073 170.998V170.998Z" fill="white"/>
<path opacity="0.9" d="M542.708 171.248C543.102 171.248 543.487 171.365 543.815 171.585C544.142 171.804 544.398 172.116 544.549 172.482C544.699 172.847 544.739 173.248 544.662 173.636C544.585 174.024 544.395 174.38 544.117 174.659C543.838 174.938 543.483 175.129 543.097 175.206C542.71 175.283 542.31 175.243 541.945 175.092C541.581 174.941 541.27 174.685 541.051 174.356C540.832 174.028 540.715 173.641 540.715 173.246C540.715 172.716 540.925 172.208 541.299 171.833C541.673 171.459 542.179 171.248 542.708 171.248Z" fill="white"/>
<path opacity="0.9" d="M549.338 171.493C549.682 171.492 550.018 171.593 550.305 171.784C550.591 171.975 550.815 172.247 550.947 172.566C551.08 172.884 551.115 173.235 551.048 173.573C550.982 173.912 550.817 174.223 550.574 174.467C550.331 174.711 550.021 174.878 549.684 174.946C549.346 175.013 548.997 174.979 548.679 174.847C548.361 174.715 548.089 174.492 547.898 174.205C547.706 173.918 547.604 173.581 547.604 173.236C547.604 172.775 547.787 172.332 548.112 172.005C548.437 171.678 548.878 171.494 549.338 171.493V171.493Z" fill="white"/>
<path opacity="0.9" d="M555.972 171.743C556.268 171.743 556.557 171.831 556.803 171.995C557.048 172.16 557.24 172.394 557.353 172.668C557.466 172.942 557.496 173.243 557.438 173.534C557.38 173.824 557.238 174.091 557.029 174.301C556.82 174.51 556.554 174.653 556.264 174.711C555.974 174.769 555.674 174.739 555.401 174.626C555.128 174.512 554.894 174.32 554.73 174.074C554.566 173.827 554.478 173.538 554.478 173.241C554.478 172.844 554.636 172.463 554.916 172.182C555.196 171.901 555.576 171.743 555.972 171.743V171.743Z" fill="white"/>
<path opacity="0.9" d="M562.592 171.987C562.839 171.986 563.08 172.059 563.285 172.195C563.491 172.332 563.651 172.527 563.746 172.755C563.841 172.983 563.867 173.234 563.819 173.477C563.772 173.719 563.654 173.942 563.48 174.117C563.306 174.293 563.084 174.412 562.842 174.461C562.6 174.509 562.35 174.485 562.122 174.39C561.894 174.296 561.699 174.136 561.562 173.93C561.425 173.725 561.352 173.483 561.352 173.236C561.352 172.906 561.483 172.589 561.715 172.355C561.947 172.121 562.263 171.989 562.592 171.987V171.987Z" fill="white"/>
<path opacity="0.9" d="M569.237 172.237C569.434 172.237 569.627 172.296 569.791 172.406C569.954 172.515 570.082 172.671 570.157 172.854C570.233 173.036 570.253 173.237 570.214 173.431C570.176 173.625 570.081 173.803 569.942 173.943C569.802 174.082 569.625 174.177 569.431 174.216C569.238 174.255 569.038 174.235 568.856 174.159C568.674 174.084 568.518 173.956 568.409 173.791C568.299 173.627 568.241 173.434 568.241 173.236C568.241 172.971 568.346 172.717 568.533 172.53C568.719 172.342 568.973 172.237 569.237 172.237Z" fill="white"/>
<path opacity="0.9" d="M575.867 172.487C576.015 172.487 576.159 172.531 576.282 172.613C576.405 172.696 576.501 172.813 576.557 172.949C576.614 173.086 576.629 173.237 576.6 173.382C576.571 173.528 576.5 173.661 576.395 173.766C576.291 173.871 576.158 173.942 576.013 173.971C575.868 174 575.717 173.985 575.581 173.928C575.444 173.872 575.328 173.776 575.246 173.652C575.164 173.529 575.12 173.384 575.12 173.236C575.121 173.038 575.2 172.848 575.34 172.708C575.48 172.568 575.669 172.488 575.867 172.487V172.487Z" fill="white"/>
<path opacity="0.9" d="M582.517 172.732C582.615 172.732 582.711 172.761 582.793 172.816C582.875 172.871 582.939 172.949 582.977 173.04C583.015 173.131 583.024 173.232 583.005 173.329C582.986 173.426 582.939 173.515 582.869 173.584C582.799 173.654 582.71 173.702 582.614 173.721C582.517 173.74 582.417 173.731 582.326 173.693C582.235 173.655 582.157 173.591 582.103 173.509C582.048 173.427 582.019 173.33 582.019 173.231C582.019 173.099 582.071 172.972 582.164 172.878C582.258 172.784 582.385 172.732 582.517 172.732Z" fill="white"/>
<path opacity="0.9" d="M529.443 163.306C529.936 163.306 530.417 163.452 530.827 163.727C531.237 164.001 531.556 164.391 531.744 164.848C531.933 165.304 531.982 165.806 531.886 166.291C531.79 166.775 531.553 167.22 531.204 167.569C530.856 167.919 530.412 168.157 529.929 168.253C529.446 168.349 528.945 168.3 528.49 168.111C528.035 167.922 527.646 167.602 527.372 167.191C527.099 166.78 526.953 166.297 526.953 165.803C526.953 165.141 527.215 164.506 527.682 164.037C528.149 163.569 528.783 163.306 529.443 163.306V163.306Z" fill="white"/>
<path opacity="0.9" d="M536.073 168.026C537.303 168.026 538.3 167.027 538.3 165.793C538.3 164.56 537.303 163.561 536.073 163.561C534.843 163.561 533.847 164.56 533.847 165.793C533.847 167.027 534.843 168.026 536.073 168.026Z" fill="white"/>
<path opacity="0.9" d="M542.708 163.8C543.102 163.8 543.487 163.918 543.815 164.137C544.142 164.357 544.398 164.669 544.549 165.034C544.699 165.399 544.739 165.801 544.662 166.188C544.585 166.576 544.395 166.932 544.117 167.211C543.838 167.491 543.483 167.681 543.097 167.758C542.71 167.835 542.31 167.796 541.945 167.644C541.581 167.493 541.27 167.237 541.051 166.908C540.832 166.58 540.715 166.194 540.715 165.798C540.715 165.269 540.925 164.76 541.299 164.386C541.673 164.011 542.179 163.8 542.708 163.8Z" fill="white"/>
<path opacity="0.9" d="M549.338 164.05C549.682 164.049 550.019 164.151 550.305 164.342C550.592 164.533 550.816 164.805 550.948 165.124C551.08 165.443 551.115 165.794 551.048 166.132C550.981 166.471 550.815 166.782 550.572 167.026C550.329 167.27 550.018 167.436 549.681 167.503C549.343 167.571 548.993 167.536 548.675 167.403C548.357 167.271 548.086 167.046 547.895 166.759C547.705 166.471 547.603 166.134 547.604 165.788C547.604 165.327 547.787 164.885 548.112 164.559C548.437 164.233 548.878 164.05 549.338 164.05V164.05Z" fill="white"/>
<path opacity="0.9" d="M555.972 164.295C556.268 164.295 556.557 164.383 556.803 164.547C557.048 164.712 557.24 164.946 557.353 165.22C557.466 165.494 557.496 165.795 557.438 166.086C557.38 166.376 557.238 166.644 557.029 166.853C556.82 167.063 556.554 167.205 556.264 167.263C555.974 167.321 555.674 167.291 555.401 167.178C555.128 167.065 554.894 166.872 554.73 166.626C554.566 166.38 554.478 166.09 554.478 165.793C554.478 165.396 554.636 165.015 554.916 164.734C555.196 164.453 555.576 164.295 555.972 164.295V164.295Z" fill="white"/>
<path opacity="0.9" d="M562.602 167.037C563.287 167.037 563.843 166.48 563.843 165.793C563.843 165.107 563.287 164.55 562.602 164.55C561.917 164.55 561.362 165.107 561.362 165.793C561.362 166.48 561.917 167.037 562.602 167.037Z" fill="white"/>
<path opacity="0.9" d="M569.237 164.794C569.434 164.794 569.627 164.853 569.791 164.963C569.954 165.073 570.082 165.229 570.157 165.411C570.233 165.594 570.253 165.795 570.214 165.988C570.176 166.182 570.081 166.36 569.942 166.5C569.802 166.64 569.625 166.735 569.431 166.773C569.238 166.812 569.038 166.792 568.856 166.716C568.674 166.641 568.518 166.513 568.409 166.349C568.299 166.184 568.241 165.991 568.241 165.793C568.241 165.529 568.346 165.274 568.533 165.087C568.719 164.9 568.973 164.794 569.237 164.794Z" fill="white"/>
<path opacity="0.9" d="M575.867 165.039C576.015 165.039 576.159 165.083 576.282 165.165C576.405 165.248 576.501 165.365 576.557 165.502C576.614 165.639 576.629 165.789 576.6 165.935C576.571 166.08 576.5 166.214 576.395 166.318C576.291 166.423 576.158 166.494 576.013 166.523C575.868 166.552 575.717 166.537 575.581 166.481C575.444 166.424 575.328 166.328 575.246 166.205C575.164 166.082 575.12 165.937 575.12 165.788C575.121 165.59 575.2 165.4 575.34 165.26C575.48 165.12 575.669 165.041 575.867 165.039V165.039Z" fill="white"/>
<path opacity="0.9" d="M582.517 165.289C582.615 165.289 582.711 165.318 582.793 165.373C582.875 165.428 582.939 165.506 582.977 165.597C583.015 165.689 583.024 165.789 583.005 165.886C582.986 165.983 582.939 166.072 582.869 166.142C582.799 166.212 582.71 166.259 582.614 166.278C582.517 166.298 582.417 166.288 582.326 166.25C582.235 166.212 582.157 166.148 582.103 166.066C582.048 165.984 582.019 165.887 582.019 165.788C582.019 165.656 582.071 165.529 582.164 165.435C582.258 165.342 582.385 165.289 582.517 165.289Z" fill="white"/>
<path opacity="0.9" d="M529.443 155.863C529.936 155.863 530.417 156.01 530.827 156.284C531.237 156.558 531.556 156.949 531.744 157.405C531.933 157.861 531.982 158.363 531.886 158.848C531.79 159.332 531.553 159.777 531.204 160.127C530.856 160.476 530.412 160.714 529.929 160.81C529.446 160.907 528.945 160.857 528.49 160.668C528.035 160.479 527.646 160.159 527.372 159.748C527.099 159.338 526.953 158.855 526.953 158.361C526.953 157.698 527.215 157.063 527.682 156.595C528.149 156.126 528.783 155.863 529.443 155.863V155.863Z" fill="white"/>
<path opacity="0.9" d="M536.073 156.108C536.515 156.107 536.947 156.237 537.314 156.483C537.682 156.728 537.969 157.077 538.138 157.486C538.308 157.895 538.353 158.345 538.267 158.779C538.182 159.214 537.97 159.613 537.658 159.926C537.346 160.24 536.948 160.453 536.515 160.54C536.082 160.627 535.633 160.583 535.225 160.414C534.817 160.244 534.468 159.958 534.223 159.59C533.978 159.221 533.847 158.789 533.847 158.346C533.847 157.753 534.081 157.185 534.498 156.765C534.916 156.346 535.482 156.109 536.073 156.108V156.108Z" fill="white"/>
<path opacity="0.9" d="M542.703 160.334C543.798 160.334 544.685 159.444 544.685 158.346C544.685 157.248 543.798 156.358 542.703 156.358C541.608 156.358 540.72 157.248 540.72 158.346C540.72 159.444 541.608 160.334 542.703 160.334Z" fill="white"/>
<path opacity="0.9" d="M549.338 156.602C549.682 156.601 550.018 156.703 550.305 156.894C550.591 157.085 550.815 157.357 550.947 157.675C551.08 157.994 551.115 158.344 551.048 158.683C550.982 159.021 550.817 159.332 550.574 159.577C550.331 159.821 550.021 159.987 549.684 160.055C549.346 160.123 548.997 160.089 548.679 159.957C548.361 159.825 548.089 159.602 547.898 159.315C547.706 159.028 547.604 158.691 547.604 158.346C547.604 157.884 547.787 157.442 548.112 157.115C548.437 156.788 548.878 156.604 549.338 156.602Z" fill="white"/>
<path opacity="0.9" d="M555.972 156.852C556.268 156.852 556.557 156.94 556.803 157.105C557.048 157.269 557.24 157.503 557.353 157.777C557.466 158.051 557.496 158.352 557.438 158.643C557.38 158.934 557.238 159.201 557.029 159.41C556.82 159.62 556.554 159.763 556.264 159.82C555.974 159.878 555.674 159.849 555.401 159.735C555.128 159.622 554.894 159.43 554.73 159.183C554.566 158.937 554.478 158.647 554.478 158.351C554.478 157.953 554.636 157.572 554.916 157.291C555.196 157.01 555.576 156.852 555.972 156.852Z" fill="white"/>
<path opacity="0.9" d="M562.602 159.59C563.287 159.59 563.843 159.033 563.843 158.346C563.843 157.659 563.287 157.102 562.602 157.102C561.917 157.102 561.362 157.659 561.362 158.346C561.362 159.033 561.917 159.59 562.602 159.59Z" fill="white"/>
<path opacity="0.9" d="M569.237 157.347C569.434 157.347 569.627 157.405 569.791 157.515C569.954 157.625 570.082 157.781 570.157 157.963C570.233 158.146 570.253 158.347 570.214 158.541C570.176 158.734 570.081 158.912 569.942 159.052C569.802 159.192 569.625 159.287 569.431 159.326C569.238 159.364 569.038 159.344 568.856 159.269C568.674 159.193 568.518 159.065 568.409 158.901C568.299 158.736 568.241 158.543 568.241 158.346C568.241 158.081 568.346 157.827 568.533 157.639C568.719 157.452 568.973 157.347 569.237 157.347Z" fill="white"/>
<path opacity="0.9" d="M575.867 159.095C576.28 159.095 576.614 158.76 576.614 158.346C576.614 157.932 576.28 157.596 575.867 157.596C575.454 157.596 575.12 157.932 575.12 158.346C575.12 158.76 575.454 159.095 575.867 159.095Z" fill="white"/>
<path opacity="0.9" d="M582.517 157.841C582.615 157.841 582.711 157.871 582.793 157.925C582.875 157.98 582.939 158.058 582.977 158.15C583.015 158.241 583.024 158.341 583.005 158.438C582.986 158.535 582.939 158.624 582.869 158.694C582.799 158.764 582.71 158.811 582.614 158.831C582.517 158.85 582.417 158.84 582.326 158.802C582.235 158.764 582.157 158.7 582.103 158.618C582.048 158.536 582.019 158.44 582.019 158.341C582.019 158.208 582.071 158.081 582.164 157.988C582.258 157.894 582.385 157.841 582.517 157.841Z" fill="white"/>
<path opacity="0.9" d="M529.443 148.415C529.936 148.415 530.417 148.562 530.827 148.836C531.237 149.111 531.556 149.501 531.744 149.957C531.933 150.414 531.982 150.916 531.886 151.4C531.79 151.885 531.553 152.33 531.204 152.679C530.856 153.028 530.412 153.266 529.929 153.363C529.446 153.459 528.945 153.409 528.49 153.22C528.035 153.031 527.646 152.711 527.372 152.301C527.099 151.89 526.953 151.407 526.953 150.913C526.953 150.251 527.215 149.615 527.682 149.147C528.149 148.679 528.783 148.415 529.443 148.415Z" fill="white"/>
<path opacity="0.9" d="M536.073 153.136C537.303 153.136 538.3 152.136 538.3 150.903C538.3 149.67 537.303 148.67 536.073 148.67C534.843 148.67 533.847 149.67 533.847 150.903C533.847 152.136 534.843 153.136 536.073 153.136Z" fill="white"/>
<path opacity="0.9" d="M542.703 152.891C543.798 152.891 544.685 152.001 544.685 150.903C544.685 149.805 543.798 148.915 542.703 148.915C541.608 148.915 540.72 149.805 540.72 150.903C540.72 152.001 541.608 152.891 542.703 152.891Z" fill="white"/>
<path opacity="0.9" d="M549.338 149.165C549.682 149.164 550.019 149.265 550.305 149.456C550.592 149.648 550.816 149.92 550.948 150.238C551.08 150.557 551.115 150.908 551.048 151.247C550.981 151.585 550.815 151.897 550.572 152.141C550.329 152.385 550.018 152.551 549.681 152.618C549.343 152.685 548.993 152.65 548.675 152.518C548.357 152.385 548.086 152.161 547.895 151.873C547.705 151.586 547.603 151.248 547.604 150.903C547.604 150.442 547.787 150 548.112 149.674C548.437 149.348 548.878 149.165 549.338 149.165V149.165Z" fill="white"/>
<path opacity="0.9" d="M555.972 149.409C556.268 149.409 556.557 149.497 556.803 149.662C557.048 149.827 557.24 150.061 557.353 150.334C557.466 150.608 557.496 150.91 557.438 151.2C557.38 151.491 557.238 151.758 557.029 151.968C556.82 152.177 556.554 152.32 556.264 152.378C555.974 152.435 555.674 152.406 555.401 152.292C555.128 152.179 554.894 151.987 554.73 151.74C554.566 151.494 554.478 151.204 554.478 150.908C554.478 150.51 554.636 150.129 554.916 149.848C555.196 149.567 555.576 149.409 555.972 149.409V149.409Z" fill="white"/>
<path opacity="0.9" d="M562.592 149.664C562.839 149.663 563.081 149.736 563.286 149.873C563.492 150.009 563.652 150.204 563.747 150.433C563.842 150.661 563.867 150.913 563.819 151.155C563.771 151.398 563.652 151.621 563.478 151.796C563.303 151.971 563.081 152.09 562.839 152.138C562.597 152.186 562.346 152.161 562.118 152.066C561.891 151.971 561.696 151.81 561.56 151.604C561.423 151.398 561.351 151.155 561.352 150.908C561.353 150.578 561.484 150.263 561.717 150.03C561.949 149.797 562.264 149.665 562.592 149.664V149.664Z" fill="white"/>
<path opacity="0.9" d="M569.232 151.902C569.782 151.902 570.228 151.455 570.228 150.903C570.228 150.351 569.782 149.904 569.232 149.904C568.682 149.904 568.236 150.351 568.236 150.903C568.236 151.455 568.682 151.902 569.232 151.902Z" fill="white"/>
<path opacity="0.9" d="M575.867 151.652C576.28 151.652 576.614 151.317 576.614 150.903C576.614 150.489 576.28 150.154 575.867 150.154C575.454 150.154 575.12 150.489 575.12 150.903C575.12 151.317 575.454 151.652 575.867 151.652Z" fill="white"/>
<path opacity="0.9" d="M582.517 150.398C582.615 150.398 582.711 150.428 582.793 150.483C582.875 150.537 582.939 150.616 582.977 150.707C583.015 150.798 583.024 150.899 583.005 150.995C582.986 151.092 582.939 151.181 582.869 151.251C582.799 151.321 582.71 151.369 582.614 151.388C582.517 151.407 582.417 151.397 582.326 151.359C582.235 151.322 582.157 151.258 582.103 151.175C582.048 151.093 582.019 150.997 582.019 150.898C582.019 150.765 582.071 150.638 582.164 150.545C582.258 150.451 582.385 150.398 582.517 150.398Z" fill="white"/>
<path opacity="0.9" d="M529.443 140.973C529.936 140.973 530.417 141.119 530.827 141.394C531.237 141.668 531.556 142.058 531.744 142.514C531.933 142.971 531.982 143.473 531.886 143.957C531.79 144.442 531.553 144.887 531.204 145.236C530.856 145.586 530.412 145.823 529.929 145.92C529.446 146.016 528.945 145.967 528.49 145.778C528.035 145.589 527.646 145.268 527.372 144.858C527.099 144.447 526.953 143.964 526.953 143.47C526.953 142.808 527.215 142.173 527.682 141.704C528.149 141.236 528.783 140.973 529.443 140.973V140.973Z" fill="white"/>
<path opacity="0.9" d="M536.073 141.217C536.515 141.216 536.947 141.347 537.314 141.592C537.682 141.837 537.969 142.187 538.138 142.595C538.308 143.004 538.353 143.454 538.267 143.889C538.182 144.323 537.97 144.722 537.658 145.036C537.346 145.349 536.948 145.563 536.515 145.65C536.082 145.736 535.633 145.692 535.225 145.523C534.817 145.354 534.468 145.067 534.223 144.699C533.978 144.331 533.847 143.898 533.847 143.455C533.847 142.863 534.081 142.294 534.498 141.875C534.916 141.455 535.482 141.219 536.073 141.217Z" fill="white"/>
<path opacity="0.9" d="M542.703 145.443C543.798 145.443 544.685 144.553 544.685 143.455C544.685 142.357 543.798 141.467 542.703 141.467C541.608 141.467 540.72 142.357 540.72 143.455C540.72 144.553 541.608 145.443 542.703 145.443Z" fill="white"/>
<path opacity="0.9" d="M549.338 141.717C549.681 141.717 550.016 141.819 550.301 142.01C550.586 142.201 550.808 142.472 550.939 142.79C551.07 143.108 551.105 143.457 551.038 143.794C550.971 144.132 550.806 144.441 550.563 144.684C550.321 144.927 550.012 145.093 549.676 145.16C549.34 145.227 548.991 145.193 548.674 145.061C548.358 144.93 548.087 144.707 547.896 144.421C547.706 144.135 547.604 143.799 547.604 143.455C547.604 142.994 547.787 142.552 548.112 142.226C548.437 141.9 548.878 141.717 549.338 141.717V141.717Z" fill="white"/>
<path opacity="0.9" d="M555.972 141.962C556.268 141.962 556.557 142.05 556.803 142.214C557.048 142.379 557.24 142.613 557.353 142.887C557.466 143.161 557.496 143.462 557.438 143.753C557.38 144.043 557.238 144.31 557.029 144.52C556.82 144.729 556.554 144.872 556.264 144.93C555.974 144.988 555.674 144.958 555.401 144.845C555.128 144.731 554.894 144.539 554.73 144.293C554.566 144.046 554.478 143.757 554.478 143.46C554.478 143.063 554.636 142.682 554.916 142.401C555.196 142.12 555.576 141.962 555.972 141.962V141.962Z" fill="white"/>
<path opacity="0.9" d="M562.592 142.211C562.838 142.211 563.077 142.284 563.281 142.421C563.485 142.558 563.644 142.752 563.738 142.979C563.832 143.206 563.857 143.457 563.809 143.698C563.761 143.939 563.643 144.161 563.469 144.335C563.296 144.509 563.075 144.627 562.834 144.675C562.594 144.723 562.344 144.698 562.118 144.604C561.891 144.51 561.697 144.351 561.561 144.146C561.425 143.942 561.352 143.701 561.352 143.455C561.352 143.125 561.483 142.809 561.715 142.576C561.948 142.342 562.263 142.211 562.592 142.211V142.211Z" fill="white"/>
<path opacity="0.9" d="M569.237 142.456C569.434 142.456 569.627 142.515 569.791 142.625C569.954 142.734 570.082 142.89 570.157 143.073C570.233 143.255 570.253 143.456 570.214 143.65C570.176 143.844 570.081 144.022 569.942 144.162C569.802 144.301 569.625 144.397 569.431 144.435C569.238 144.474 569.038 144.454 568.856 144.378C568.674 144.303 568.518 144.175 568.409 144.01C568.299 143.846 568.241 143.653 568.241 143.455C568.241 143.19 568.346 142.936 568.533 142.749C568.719 142.561 568.973 142.456 569.237 142.456Z" fill="white"/>
<path opacity="0.9" d="M575.867 144.204C576.28 144.204 576.614 143.869 576.614 143.455C576.614 143.041 576.28 142.706 575.867 142.706C575.454 142.706 575.12 143.041 575.12 143.455C575.12 143.869 575.454 144.204 575.867 144.204Z" fill="white"/>
<path opacity="0.9" d="M582.517 142.951C582.615 142.951 582.711 142.98 582.793 143.035C582.875 143.09 582.939 143.168 582.977 143.259C583.015 143.35 583.024 143.451 583.005 143.548C582.986 143.645 582.939 143.734 582.869 143.803C582.799 143.873 582.71 143.921 582.614 143.94C582.517 143.959 582.417 143.95 582.326 143.912C582.235 143.874 582.157 143.81 582.103 143.728C582.048 143.646 582.019 143.549 582.019 143.45C582.019 143.318 582.071 143.191 582.164 143.097C582.258 143.003 582.385 142.951 582.517 142.951Z" fill="white"/>
<path opacity="0.9" d="M529.443 133.525C529.936 133.525 530.417 133.671 530.827 133.946C531.237 134.22 531.556 134.61 531.744 135.067C531.933 135.523 531.982 136.025 531.886 136.51C531.79 136.994 531.553 137.439 531.204 137.789C530.856 138.138 530.412 138.376 529.929 138.472C529.446 138.568 528.945 138.519 528.49 138.33C528.035 138.141 527.646 137.821 527.372 137.41C527.099 136.999 526.953 136.516 526.953 136.022C526.953 135.36 527.215 134.725 527.682 134.256C528.149 133.788 528.783 133.525 529.443 133.525Z" fill="white"/>
<path opacity="0.9" d="M536.073 138.245C537.303 138.245 538.3 137.246 538.3 136.012C538.3 134.779 537.303 133.78 536.073 133.78C534.843 133.78 533.847 134.779 533.847 136.012C533.847 137.246 534.843 138.245 536.073 138.245Z" fill="white"/>
<path opacity="0.9" d="M542.703 138.001C543.798 138.001 544.685 137.11 544.685 136.012C544.685 134.914 543.798 134.024 542.703 134.024C541.608 134.024 540.72 134.914 540.72 136.012C540.72 137.11 541.608 138.001 542.703 138.001Z" fill="white"/>
<path opacity="0.9" d="M549.338 134.269C549.682 134.268 550.019 134.37 550.305 134.561C550.592 134.752 550.816 135.024 550.948 135.343C551.08 135.662 551.115 136.013 551.048 136.351C550.981 136.69 550.815 137.001 550.572 137.245C550.329 137.489 550.018 137.655 549.681 137.723C549.343 137.79 548.993 137.755 548.675 137.622C548.357 137.49 548.086 137.265 547.895 136.978C547.705 136.69 547.603 136.353 547.604 136.007C547.604 135.779 547.649 135.553 547.736 135.342C547.823 135.131 547.951 134.94 548.112 134.778C548.273 134.617 548.464 134.489 548.674 134.401C548.885 134.314 549.11 134.269 549.338 134.269V134.269Z" fill="white"/>
<path opacity="0.9" d="M555.972 134.519C556.268 134.519 556.557 134.607 556.803 134.771C557.048 134.936 557.24 135.17 557.353 135.444C557.466 135.718 557.496 136.019 557.438 136.31C557.38 136.601 557.238 136.868 557.029 137.077C556.82 137.287 556.554 137.429 556.264 137.487C555.974 137.545 555.674 137.515 555.401 137.402C555.128 137.289 554.894 137.096 554.73 136.85C554.566 136.604 554.478 136.314 554.478 136.017C554.478 135.62 554.636 135.239 554.916 134.958C555.196 134.677 555.576 134.519 555.972 134.519Z" fill="white"/>
<path opacity="0.9" d="M562.592 134.764C562.839 134.763 563.081 134.835 563.286 134.972C563.492 135.109 563.652 135.304 563.747 135.532C563.842 135.761 563.867 136.012 563.819 136.255C563.771 136.498 563.652 136.721 563.478 136.895C563.303 137.07 563.081 137.189 562.839 137.237C562.597 137.285 562.346 137.26 562.118 137.165C561.891 137.07 561.696 136.909 561.56 136.703C561.423 136.497 561.351 136.255 561.352 136.007C561.353 135.678 561.484 135.362 561.717 135.129C561.949 134.896 562.264 134.765 562.592 134.764V134.764Z" fill="white"/>
<path opacity="0.9" d="M569.232 137.012C569.782 137.012 570.228 136.564 570.228 136.012C570.228 135.461 569.782 135.013 569.232 135.013C568.682 135.013 568.236 135.461 568.236 136.012C568.236 136.564 568.682 137.012 569.232 137.012Z" fill="white"/>
<path opacity="0.9" d="M575.867 136.762C576.28 136.762 576.614 136.426 576.614 136.012C576.614 135.599 576.28 135.263 575.867 135.263C575.454 135.263 575.12 135.599 575.12 136.012C575.12 136.426 575.454 136.762 575.867 136.762Z" fill="white"/>
<path opacity="0.9" d="M582.517 135.508C582.615 135.508 582.711 135.537 582.793 135.592C582.875 135.647 582.939 135.725 582.977 135.816C583.015 135.908 583.024 136.008 583.005 136.105C582.986 136.202 582.939 136.291 582.869 136.361C582.799 136.431 582.71 136.478 582.614 136.497C582.517 136.517 582.417 136.507 582.326 136.469C582.235 136.431 582.157 136.367 582.103 136.285C582.048 136.203 582.019 136.106 582.019 136.007C582.019 135.875 582.071 135.748 582.164 135.654C582.258 135.561 582.385 135.508 582.517 135.508Z" fill="white"/>
</g>
<path opacity="0.6" d="M515.326 60.2969L517.217 40.5532L533.37 52.0631L515.326 60.2969Z" stroke="#6846ED" stroke-width="4" stroke-linejoin="round" stroke-dasharray="2 2"/>
<g opacity="0.5" clip-path="url(#clip0)">
<path d="M54.9882 9.6885L65.5234 2.21237L81.1942 9.47163L70.6589 16.9478L54.9882 9.6885Z" fill="#3F37AA"/>
<path d="M70.659 16.9478L81.1942 9.47162L78.6889 24.9167L68.1287 32.3857L70.659 16.9478Z" fill="#523ECC"/>
<path d="M52.458 25.1265L54.9882 9.68849L70.659 16.9478L68.1287 32.3857L52.458 25.1265Z" fill="#6846ED"/>
</g>
<g opacity="0.7" clip-path="url(#clip1)">
<path d="M585 535.539L601.897 523.548L627.031 535.191L610.134 547.182L585 535.539Z" fill="#3F37AA"/>
<path d="M610.134 547.182L627.03 535.191L623.012 559.962L606.076 571.942L610.134 547.182Z" fill="#523ECC"/>
<path d="M580.942 560.299L585 535.539L610.134 547.182L606.076 571.942L580.942 560.299Z" fill="#6846ED"/>
</g>
<path opacity="0.8" d="M6.57238 553.326C8.32727 552.435 10.4651 552.351 12.3674 553.286C15.5792 554.864 16.9035 558.747 15.3253 561.959C13.7471 565.171 9.86414 566.495 6.65239 564.917C5.51212 564.356 4.60977 563.506 3.99074 562.498" stroke="#6846ED" stroke-width="3" stroke-linejoin="round"/>
<path opacity="0.6" d="M34.5077 373.478L56.3966 357.825L59.0079 384.608L34.5077 373.478Z" stroke="#6846ED" stroke-width="4" stroke-linejoin="round" stroke-dasharray="2 2"/>
<path opacity="0.8" d="M606.287 208.08C606.611 210.357 605.897 212.754 604.145 214.505C601.187 217.463 596.392 217.463 593.434 214.505C590.477 211.548 590.477 206.753 593.434 203.795C594.484 202.745 595.766 202.068 597.115 201.763" stroke="#6846ED" stroke-width="3" stroke-linecap="round" stroke-linejoin="round"/>
<defs>
<clipPath id="clip0">
<rect width="26.9621" height="28.3102" fill="white" transform="translate(75.9338 34.6052) rotate(-164.126)"/>
</clipPath>
<clipPath id="clip1">
<rect width="43.2428" height="45.4049" fill="white" transform="translate(618.594 575.501) rotate(-164.126)"/>
</clipPath>
</defs>
</svg>
