<svg width="641" height="516" viewBox="0 0 641 516" fill="none" xmlns="http://www.w3.org/2000/svg">
<path d="M348.632 186.418L321.854 180.037C320.169 179.636 318.632 178.765 317.422 177.526L263.831 122.662C258.688 117.397 249.751 120.035 248.291 127.249L240.372 166.393C239.563 170.395 236.204 173.378 232.136 173.711L166.799 179.049C163.916 179.284 161.314 180.866 159.778 183.317L122.492 242.836C119.135 248.195 122.085 255.262 128.254 256.645L238.548 281.366C244.867 282.782 247.764 290.126 244.114 295.475L188.936 376.334C183.889 383.729 191.351 393.23 199.732 390.079L264.454 365.743C265.485 365.355 266.578 365.156 267.68 365.156H314.609C317.54 365.156 320.295 363.754 322.019 361.384L347.602 326.227C350.194 322.665 354.953 321.451 358.934 323.336L394.152 340.008C401.816 343.636 409.874 335.806 406.465 328.041L388.45 286.998C387.685 285.255 387.481 283.318 387.867 281.455L393.203 255.694C393.46 254.453 393.456 253.172 393.193 251.932L387.944 227.21C387.51 225.169 387.786 223.041 388.726 221.178L413.155 172.766C417.211 164.726 408.453 156.269 400.56 160.604L355.169 185.536C353.175 186.631 350.845 186.945 348.632 186.418Z" fill="#2BEBC8" fill-opacity="0.15" stroke="#2BEBC8" stroke-width="2.29123"/>
<path d="M383.657 95.0291L319.274 126.509L276.415 153.365C274.282 154.701 271.695 155.101 269.258 154.473L227.273 143.638C219.6 141.658 213.2 149.692 216.846 156.728L250.218 221.145C251.193 223.027 251.486 225.19 251.045 227.264L245.807 251.932C245.544 253.172 245.541 254.453 245.798 255.694L251.334 282.426C251.593 283.675 252.109 284.855 252.85 285.893L266.211 304.605C266.781 305.403 267.475 306.104 268.266 306.682L285.111 318.979C286.113 319.71 287.252 320.23 288.459 320.508L317.609 327.217C318.71 327.47 319.754 327.925 320.69 328.559L357.326 353.357C363.412 357.477 371.628 353.117 371.628 345.767V315.42C371.628 310.188 376.001 306.017 381.228 306.266L442.664 309.183C445.278 309.307 447.82 308.308 449.65 306.438L494.45 260.651C498.098 256.923 497.903 250.905 494.021 247.421L445.148 203.558C443.467 202.049 441.287 201.214 439.027 201.214H383.487C377.487 201.214 373.106 195.544 374.619 189.738L396.551 105.574C398.527 97.9922 390.695 91.5877 383.657 95.0291Z" fill="#6846ED" fill-opacity="0.15" stroke="#6846ED" stroke-width="2.29123"/>
<g opacity="0.6">
<path d="M545.564 252.857L93.9086 252.857" stroke="#6846ED" stroke-width="3" stroke-linecap="round"/>
<path d="M220 455.587L418.687 50" stroke="#2BEBC8" stroke-width="3.69" stroke-linecap="round"/>
<path d="M160.591 413.071L478.882 92.6433" stroke="#6846ED" stroke-width="3" stroke-linecap="round"/>
<path d="M112.807 343.287L526.666 162.427" stroke="#2BEBC8" stroke-width="3.69" stroke-linecap="round"/>
<path d="M525.025 346.953L114.448 158.761" stroke="#2BEBC8" stroke-width="3.69" stroke-linecap="round"/>
<path d="M479.493 412.461L319.736 252.857L199 51.5" stroke="#6846ED" stroke-width="3" stroke-linecap="round"/>
<path d="M417.609 456.364L320 253" stroke="#2BEBC8" stroke-width="3.69" stroke-linecap="round"/>
<path d="M319.737 478.674L319.737 27.0401" stroke="#6846ED" stroke-width="3" stroke-linecap="round"/>
</g>
</svg>
