<svg width="641" height="516" viewBox="0 0 641 516" fill="none" xmlns="http://www.w3.org/2000/svg">
<path d="M348.632 186.418L321.854 180.037C320.169 179.636 318.632 178.765 317.422 177.526L263.831 122.662C258.688 117.397 249.751 120.035 248.291 127.249L240.372 166.393C239.563 170.395 236.204 173.378 232.136 173.711L166.799 179.049C163.916 179.284 161.314 180.866 159.778 183.317L122.492 242.836C119.135 248.195 122.085 255.262 128.254 256.645L238.548 281.366C244.867 282.782 247.764 290.126 244.114 295.475L188.936 376.334C183.889 383.729 191.351 393.23 199.732 390.079L264.454 365.743C265.485 365.355 266.578 365.156 267.68 365.156H314.609C317.54 365.156 320.295 363.754 322.019 361.384L347.602 326.227C350.194 322.665 354.953 321.451 358.934 323.336L394.152 340.008C401.816 343.636 409.874 335.806 406.465 328.041L388.45 286.998C387.685 285.255 387.481 283.318 387.867 281.455L393.203 255.694C393.46 254.453 393.456 253.172 393.193 251.932L387.944 227.21C387.51 225.169 387.786 223.041 388.726 221.178L413.155 172.766C417.211 164.726 408.453 156.269 400.56 160.604L355.169 185.536C353.175 186.631 350.845 186.945 348.632 186.418Z" fill="#2BEBC8" fill-opacity="0.15" stroke="#2BEBC8" stroke-width="2.29123"/>
<path d="M383.657 95.0291L319.274 126.509L276.415 153.365C274.282 154.701 271.695 155.101 269.258 154.473L227.273 143.638C219.6 141.658 213.2 149.692 216.846 156.728L250.218 221.145C251.193 223.027 251.486 225.19 251.045 227.264L245.807 251.932C245.544 253.172 245.541 254.453 245.798 255.694L251.334 282.426C251.593 283.675 252.109 284.855 252.85 285.893L266.211 304.605C266.781 305.403 267.475 306.104 268.266 306.682L285.111 318.979C286.113 319.71 287.252 320.23 288.459 320.508L317.609 327.217C318.71 327.47 319.754 327.925 320.69 328.559L357.326 353.357C363.412 357.477 371.628 353.117 371.628 345.767V315.42C371.628 310.188 376.001 306.017 381.228 306.266L442.664 309.183C445.278 309.307 447.82 308.308 449.65 306.438L494.45 260.651C498.098 256.923 497.903 250.905 494.021 247.421L445.148 203.558C443.467 202.049 441.287 201.214 439.027 201.214H383.487C377.487 201.214 373.106 195.544 374.619 189.738L396.551 105.574C398.527 97.9922 390.695 91.5877 383.657 95.0291Z" fill="#6846ED" fill-opacity="0.15" stroke="#6846ED" stroke-width="2.29123"/>
<g opacity="0.6">
<path d="M545.564 252.857L93.9086 252.857" stroke="#6846ED" stroke-width="3" stroke-linecap="round"/>
<path d="M220 455.587L418.687 50" stroke="#2BEBC8" stroke-width="3.69" stroke-linecap="round"/>
<path d="M160.591 413.071L478.882 92.6433" stroke="#6846ED" stroke-width="3" stroke-linecap="round"/>
<path d="M112.807 343.287L526.666 162.427" stroke="#2BEBC8" stroke-width="3.69" stroke-linecap="round"/>
<path d="M525.025 346.953L114.448 158.761" stroke="#2BEBC8" stroke-width="3.69" stroke-linecap="round"/>
<path d="M479.493 412.461L319.736 252.857L199 51.5" stroke="#6846ED" stroke-width="3" stroke-linecap="round"/>
<path d="M417.609 456.364L320 253" stroke="#2BEBC8" stroke-width="3.69" stroke-linecap="round"/>
<path d="M319.737 478.674L319.737 27.0401" stroke="#6846ED" stroke-width="3" stroke-linecap="round"/>
</g>
<path d="M290.17 511.083L289.481 508.665H286.595L285.906 511.083H284.424L287.076 502.009H289.065L291.717 511.083H290.17ZM288.09 503.478H287.986L286.868 507.456H289.208L288.09 503.478ZM297.315 509.939H297.237C297.038 510.347 296.773 510.667 296.444 510.901C296.115 511.127 295.703 511.239 295.209 511.239C294.42 511.239 293.792 510.945 293.324 510.355C292.856 509.766 292.622 508.891 292.622 507.729C292.622 506.568 292.856 505.693 293.324 505.103C293.792 504.514 294.42 504.219 295.209 504.219C295.703 504.219 296.115 504.336 296.444 504.57C296.773 504.796 297.038 505.112 297.237 505.519H297.315V501.463H298.732V511.083H297.315V509.939ZM295.794 510.082C296.002 510.082 296.197 510.056 296.379 510.004C296.561 509.952 296.721 509.874 296.86 509.77C296.999 509.666 297.107 509.541 297.185 509.393C297.272 509.237 297.315 509.055 297.315 508.847V506.611C297.315 506.403 297.272 506.226 297.185 506.078C297.107 505.922 296.999 505.792 296.86 505.688C296.721 505.584 296.561 505.506 296.379 505.454C296.197 505.402 296.002 505.376 295.794 505.376C295.257 505.376 294.841 505.541 294.546 505.87C294.26 506.2 294.117 506.637 294.117 507.183V508.275C294.117 508.821 294.26 509.259 294.546 509.588C294.841 509.918 295.257 510.082 295.794 510.082ZM306.15 511.083C305.743 511.083 305.435 510.979 305.227 510.771C305.028 510.563 304.906 510.29 304.863 509.952H304.798C304.668 510.36 304.43 510.676 304.083 510.901C303.745 511.127 303.312 511.239 302.783 511.239C302.098 511.239 301.552 511.062 301.145 510.706C300.738 510.342 300.534 509.844 300.534 509.211C300.534 508.561 300.772 508.067 301.249 507.729C301.734 507.383 302.475 507.209 303.472 507.209H304.759V506.689C304.759 505.779 304.278 505.324 303.316 505.324C302.883 505.324 302.532 505.411 302.263 505.584C301.994 505.749 301.769 505.97 301.587 506.247L300.742 505.558C300.933 505.194 301.253 504.882 301.704 504.622C302.155 504.354 302.735 504.219 303.446 504.219C304.295 504.219 304.963 504.423 305.448 504.83C305.933 505.238 306.176 505.827 306.176 506.598V509.965H307.021V511.083H306.15ZM303.186 510.199C303.645 510.199 304.022 510.095 304.317 509.887C304.612 509.679 304.759 509.411 304.759 509.081V508.106H303.498C302.475 508.106 301.964 508.414 301.964 509.029V509.289C301.964 509.593 302.072 509.822 302.289 509.978C302.506 510.126 302.805 510.199 303.186 510.199ZM308.576 504.375H309.993V505.519H310.071C310.27 505.112 310.534 504.796 310.864 504.57C311.193 504.336 311.605 504.219 312.099 504.219C312.887 504.219 313.516 504.514 313.984 505.103C314.452 505.693 314.686 506.568 314.686 507.729C314.686 508.891 314.452 509.766 313.984 510.355C313.516 510.945 312.887 511.239 312.099 511.239C311.605 511.239 311.193 511.127 310.864 510.901C310.534 510.667 310.27 510.347 310.071 509.939H309.993V513.683H308.576V504.375ZM311.514 510.082C312.051 510.082 312.463 509.918 312.749 509.588C313.043 509.259 313.191 508.821 313.191 508.275V507.183C313.191 506.637 313.043 506.2 312.749 505.87C312.463 505.541 312.051 505.376 311.514 505.376C311.306 505.376 311.111 505.402 310.929 505.454C310.747 505.506 310.586 505.584 310.448 505.688C310.309 505.792 310.196 505.922 310.11 506.078C310.032 506.226 309.993 506.403 309.993 506.611V508.847C309.993 509.055 310.032 509.237 310.11 509.393C310.196 509.541 310.309 509.666 310.448 509.77C310.586 509.874 310.747 509.952 310.929 510.004C311.111 510.056 311.306 510.082 311.514 510.082ZM319.647 511.083C319.057 511.083 318.624 510.927 318.347 510.615C318.069 510.295 317.931 509.883 317.931 509.38V505.519H315.864V504.375H317.333C317.584 504.375 317.762 504.328 317.866 504.232C317.97 504.128 318.022 503.946 318.022 503.686V502.009H319.348V504.375H322.208V505.519H319.348V509.939H322.208V511.083H319.647ZM329.535 511.083C329.127 511.083 328.82 510.979 328.612 510.771C328.412 510.563 328.291 510.29 328.248 509.952H328.183C328.053 510.36 327.814 510.676 327.468 510.901C327.13 511.127 326.696 511.239 326.168 511.239C325.483 511.239 324.937 511.062 324.53 510.706C324.122 510.342 323.919 509.844 323.919 509.211C323.919 508.561 324.157 508.067 324.634 507.729C325.119 507.383 325.86 507.209 326.857 507.209H328.144V506.689C328.144 505.779 327.663 505.324 326.701 505.324C326.267 505.324 325.916 505.411 325.648 505.584C325.379 505.749 325.154 505.97 324.972 506.247L324.127 505.558C324.317 505.194 324.638 504.882 325.089 504.622C325.539 504.354 326.12 504.219 326.831 504.219C327.68 504.219 328.347 504.423 328.833 504.83C329.318 505.238 329.561 505.827 329.561 506.598V509.965H330.406V511.083H329.535ZM326.571 510.199C327.03 510.199 327.407 510.095 327.702 509.887C327.996 509.679 328.144 509.411 328.144 509.081V508.106H326.883C325.86 508.106 325.349 508.414 325.349 509.029V509.289C325.349 509.593 325.457 509.822 325.674 509.978C325.89 510.126 326.189 510.199 326.571 510.199ZM331.961 501.463H333.378V505.519H333.456C333.655 505.112 333.919 504.796 334.249 504.57C334.578 504.336 334.99 504.219 335.484 504.219C336.272 504.219 336.901 504.514 337.369 505.103C337.837 505.693 338.071 506.568 338.071 507.729C338.071 508.891 337.837 509.766 337.369 510.355C336.901 510.945 336.272 511.239 335.484 511.239C334.99 511.239 334.578 511.127 334.249 510.901C333.919 510.667 333.655 510.347 333.456 509.939H333.378V511.083H331.961V501.463ZM334.899 510.082C335.436 510.082 335.848 509.918 336.134 509.588C336.428 509.259 336.576 508.821 336.576 508.275V507.183C336.576 506.637 336.428 506.2 336.134 505.87C335.848 505.541 335.436 505.376 334.899 505.376C334.691 505.376 334.496 505.402 334.314 505.454C334.132 505.506 333.971 505.584 333.833 505.688C333.694 505.792 333.581 505.922 333.495 506.078C333.417 506.226 333.378 506.403 333.378 506.611V508.847C333.378 509.055 333.417 509.237 333.495 509.393C333.581 509.541 333.694 509.666 333.833 509.77C333.971 509.874 334.132 509.952 334.314 510.004C334.496 510.056 334.691 510.082 334.899 510.082ZM339.704 509.939H341.927V502.607H339.704V501.463H343.344V509.939H345.567V511.083H339.704V509.939ZM350.566 511.239C350.055 511.239 349.596 511.157 349.188 510.992C348.781 510.828 348.439 510.594 348.161 510.29C347.884 509.987 347.672 509.623 347.524 509.198C347.377 508.765 347.303 508.28 347.303 507.742C347.303 507.205 347.377 506.72 347.524 506.286C347.68 505.853 347.893 505.485 348.161 505.181C348.439 504.869 348.772 504.631 349.162 504.466C349.552 504.302 349.986 504.219 350.462 504.219C350.93 504.219 351.355 504.302 351.736 504.466C352.118 504.622 352.443 504.848 352.711 505.142C352.98 505.437 353.184 505.788 353.322 506.195C353.47 506.603 353.543 507.053 353.543 507.547V508.08H348.733V508.301C348.733 508.83 348.898 509.263 349.227 509.601C349.557 509.931 350.012 510.095 350.592 510.095C351.026 510.095 351.394 510.004 351.697 509.822C352.009 509.632 352.261 509.38 352.451 509.068L353.335 509.848C353.11 510.238 352.763 510.568 352.295 510.836C351.836 511.105 351.26 511.239 350.566 511.239ZM350.462 505.298C350.211 505.298 349.977 505.342 349.76 505.428C349.552 505.515 349.37 505.641 349.214 505.805C349.067 505.961 348.95 506.148 348.863 506.364C348.777 506.581 348.733 506.819 348.733 507.079V507.17H352.1V507.04C352.1 506.512 351.949 506.091 351.645 505.779C351.351 505.459 350.956 505.298 350.462 505.298Z" fill="white"/>
<path d="M513.744 440.701C512.591 440.701 511.733 440.294 511.17 439.479C510.615 438.665 510.338 437.508 510.338 436.008C510.338 434.509 510.615 433.352 511.17 432.537C511.733 431.723 512.591 431.315 513.744 431.315C514.186 431.315 514.567 431.376 514.888 431.497C515.217 431.61 515.499 431.77 515.733 431.978C515.967 432.178 516.162 432.416 516.318 432.693C516.483 432.962 516.617 433.252 516.721 433.564L515.408 434.006C515.339 433.798 515.261 433.603 515.174 433.421C515.087 433.239 514.979 433.083 514.849 432.953C514.719 432.823 514.563 432.719 514.381 432.641C514.208 432.563 513.991 432.524 513.731 432.524C513.09 432.524 512.622 432.771 512.327 433.265C512.032 433.751 511.885 434.409 511.885 435.241V436.775C511.885 437.607 512.032 438.27 512.327 438.764C512.622 439.25 513.09 439.492 513.731 439.492C513.991 439.492 514.208 439.453 514.381 439.375C514.563 439.297 514.719 439.193 514.849 439.063C514.979 438.933 515.087 438.777 515.174 438.595C515.261 438.413 515.339 438.218 515.408 438.01L516.721 438.452C516.617 438.764 516.483 439.059 516.318 439.336C516.162 439.605 515.967 439.843 515.733 440.051C515.499 440.251 515.217 440.411 514.888 440.532C514.567 440.645 514.186 440.701 513.744 440.701ZM518.367 439.401H520.148V434.981H518.367V433.837H521.565V435.618H521.643C521.704 435.384 521.79 435.159 521.903 434.942C522.016 434.726 522.159 434.539 522.332 434.383C522.505 434.219 522.718 434.089 522.969 433.993C523.22 433.889 523.515 433.837 523.853 433.837H524.659V435.189H523.333C522.813 435.189 522.388 435.345 522.059 435.657C521.73 435.961 521.565 436.372 521.565 436.892V439.401H523.996V440.545H518.367V439.401ZM529.217 440.701C528.705 440.701 528.246 440.619 527.839 440.454C527.431 440.29 527.089 440.056 526.812 439.752C526.534 439.449 526.322 439.085 526.175 438.66C526.027 438.227 525.954 437.742 525.954 437.204C525.954 436.667 526.027 436.182 526.175 435.748C526.331 435.315 526.543 434.947 526.812 434.643C527.089 434.331 527.423 434.093 527.813 433.928C528.203 433.764 528.636 433.681 529.113 433.681C529.581 433.681 530.005 433.764 530.387 433.928C530.768 434.084 531.093 434.31 531.362 434.604C531.63 434.899 531.834 435.25 531.973 435.657C532.12 436.065 532.194 436.515 532.194 437.009V437.542H527.384V437.763C527.384 438.292 527.548 438.725 527.878 439.063C528.207 439.393 528.662 439.557 529.243 439.557C529.676 439.557 530.044 439.466 530.348 439.284C530.66 439.094 530.911 438.842 531.102 438.53L531.986 439.31C531.76 439.7 531.414 440.03 530.946 440.298C530.486 440.567 529.91 440.701 529.217 440.701ZM529.113 434.76C528.861 434.76 528.627 434.804 528.411 434.89C528.203 434.977 528.021 435.103 527.865 435.267C527.717 435.423 527.6 435.61 527.514 435.826C527.427 436.043 527.384 436.281 527.384 436.541V436.632H530.751V436.502C530.751 435.974 530.599 435.553 530.296 435.241C530.001 434.921 529.607 434.76 529.113 434.76ZM539.365 440.545C538.957 440.545 538.65 440.441 538.442 440.233C538.242 440.025 538.121 439.752 538.078 439.414H538.013C537.883 439.822 537.644 440.138 537.298 440.363C536.96 440.589 536.526 440.701 535.998 440.701C535.313 440.701 534.767 440.524 534.36 440.168C533.952 439.804 533.749 439.306 533.749 438.673C533.749 438.023 533.987 437.529 534.464 437.191C534.949 436.845 535.69 436.671 536.687 436.671H537.974V436.151C537.974 435.241 537.493 434.786 536.531 434.786C536.097 434.786 535.746 434.873 535.478 435.046C535.209 435.211 534.984 435.432 534.802 435.709L533.957 435.02C534.147 434.656 534.468 434.344 534.919 434.084C535.369 433.816 535.95 433.681 536.661 433.681C537.51 433.681 538.177 433.885 538.663 434.292C539.148 434.7 539.391 435.289 539.391 436.06V439.427H540.236V440.545H539.365ZM536.401 439.661C536.86 439.661 537.237 439.557 537.532 439.349C537.826 439.141 537.974 438.873 537.974 438.543V437.568H536.713C535.69 437.568 535.179 437.876 535.179 438.491V438.751C535.179 439.055 535.287 439.284 535.504 439.44C535.72 439.588 536.019 439.661 536.401 439.661ZM545.067 440.545C544.477 440.545 544.044 440.389 543.767 440.077C543.489 439.757 543.351 439.345 543.351 438.842V434.981H541.284V433.837H542.753C543.004 433.837 543.182 433.79 543.286 433.694C543.39 433.59 543.442 433.408 543.442 433.148V431.471H544.768V433.837H547.628V434.981H544.768V439.401H547.628V440.545H545.067ZM552.875 432.615C552.511 432.615 552.255 432.542 552.108 432.394C551.969 432.247 551.9 432.065 551.9 431.848V431.575C551.9 431.359 551.969 431.177 552.108 431.029C552.255 430.882 552.506 430.808 552.862 430.808C553.226 430.808 553.477 430.882 553.616 431.029C553.763 431.177 553.837 431.359 553.837 431.575V431.848C553.837 432.065 553.763 432.247 553.616 432.394C553.477 432.542 553.23 432.615 552.875 432.615ZM549.872 439.401H552.16V434.981H549.872V433.837H553.577V439.401H555.722V440.545H549.872V439.401ZM559.383 440.545L556.978 433.837H558.447L559.37 436.671L560.241 439.362H560.319L561.19 436.671L562.113 433.837H563.53L561.125 440.545H559.383ZM568.048 440.701C567.554 440.701 567.108 440.619 566.709 440.454C566.319 440.29 565.986 440.056 565.708 439.752C565.44 439.449 565.232 439.081 565.084 438.647C564.937 438.214 564.863 437.729 564.863 437.191C564.863 436.654 564.937 436.169 565.084 435.735C565.232 435.302 565.44 434.934 565.708 434.63C565.986 434.327 566.319 434.093 566.709 433.928C567.108 433.764 567.554 433.681 568.048 433.681C568.542 433.681 568.984 433.764 569.374 433.928C569.773 434.093 570.107 434.327 570.375 434.63C570.653 434.934 570.865 435.302 571.012 435.735C571.16 436.169 571.233 436.654 571.233 437.191C571.233 437.729 571.16 438.214 571.012 438.647C570.865 439.081 570.653 439.449 570.375 439.752C570.107 440.056 569.773 440.29 569.374 440.454C568.984 440.619 568.542 440.701 568.048 440.701ZM568.048 439.583C568.568 439.583 568.98 439.427 569.283 439.115C569.595 438.795 569.751 438.322 569.751 437.698V436.684C569.751 436.06 569.595 435.592 569.283 435.28C568.98 434.96 568.568 434.799 568.048 434.799C567.528 434.799 567.112 434.96 566.8 435.28C566.497 435.592 566.345 436.06 566.345 436.684V437.698C566.345 438.322 566.497 438.795 566.8 439.115C567.112 439.427 567.528 439.583 568.048 439.583Z" fill="white"/>
<path d="M432.771 488.075H435.053C435.008 485.864 433.123 484.297 430.336 484.297C427.587 484.297 425.523 485.844 425.529 488.158C425.529 490.038 426.865 491.118 429.019 491.674L430.508 492.057C431.921 492.415 432.854 492.856 432.861 493.873C432.854 494.991 431.793 495.739 430.246 495.739C428.763 495.739 427.613 495.074 427.517 493.7H425.184C425.28 496.302 427.217 497.766 430.266 497.766C433.404 497.766 435.226 496.199 435.232 493.892C435.226 491.623 433.353 490.587 431.384 490.121L430.157 489.814C429.083 489.558 427.92 489.104 427.932 488.011C427.939 487.027 428.821 486.305 430.304 486.305C431.717 486.305 432.65 486.963 432.771 488.075ZM438.817 497.567L439.897 494.339H444.819L445.905 497.567H448.437L443.822 484.476H440.894L436.285 497.567H438.817ZM440.536 492.435L442.307 487.161H442.409L444.179 492.435H440.536ZM457.064 488.075H459.346C459.301 485.864 457.416 484.297 454.629 484.297C451.88 484.297 449.816 485.844 449.822 488.158C449.822 490.038 451.158 491.118 453.312 491.674L454.801 492.057C456.214 492.415 457.147 492.856 457.154 493.873C457.147 494.991 456.086 495.739 454.539 495.739C453.056 495.739 451.906 495.074 451.81 493.7H449.477C449.573 496.302 451.51 497.766 454.559 497.766C457.697 497.766 459.519 496.199 459.525 493.892C459.519 491.623 457.646 490.587 455.677 490.121L454.45 489.814C453.376 489.558 452.213 489.104 452.225 488.011C452.232 487.027 453.114 486.305 454.597 486.305C456.01 486.305 456.943 486.963 457.064 488.075ZM468.754 488.075H471.036C470.991 485.864 469.105 484.297 466.318 484.297C463.57 484.297 461.505 485.844 461.511 488.158C461.511 490.038 462.847 491.118 465.002 491.674L466.491 492.057C467.904 492.415 468.837 492.856 468.843 493.873C468.837 494.991 467.776 495.739 466.229 495.739C464.746 495.739 463.595 495.074 463.499 493.7H461.166C461.262 496.302 463.199 497.766 466.248 497.766C469.386 497.766 471.208 496.199 471.215 493.892C471.208 491.623 469.335 490.587 467.367 490.121L466.139 489.814C465.065 489.558 463.902 489.104 463.915 488.011C463.921 487.027 464.803 486.305 466.286 486.305C467.699 486.305 468.632 486.963 468.754 488.075Z" fill="white"/>
<path d="M37.5158 358.385H39.8873V352.823H45.9533V358.385H48.3311V345.294H45.9533V350.836H39.8873V345.294H37.5158V358.385ZM50.335 347.282H54.3812V358.385H56.7335V347.282H60.7797V345.294H50.335V347.282ZM62.7931 345.294V358.385H65.0687V349.372H65.1902L68.8081 358.346H70.5083L74.1262 349.391H74.2477V358.385H76.5233V345.294H73.6213L69.7349 354.779H69.5815L65.6951 345.294H62.7931ZM79.1056 358.385H87.2427V356.397H81.4771V345.294H79.1056V358.385Z" fill="white"/>
<path d="M576.383 257.176L573.822 248.102H575.395L576.591 252.678L577.384 255.759H577.462L578.255 252.678L579.464 248.102H580.972L578.411 257.176H576.383ZM585.335 257.332C584.824 257.332 584.364 257.25 583.957 257.085C583.55 256.92 583.207 256.686 582.93 256.383C582.653 256.08 582.44 255.716 582.293 255.291C582.146 254.858 582.072 254.372 582.072 253.835C582.072 253.298 582.146 252.812 582.293 252.379C582.449 251.946 582.661 251.577 582.93 251.274C583.207 250.962 583.541 250.724 583.931 250.559C584.321 250.394 584.754 250.312 585.231 250.312C585.699 250.312 586.124 250.394 586.505 250.559C586.886 250.715 587.211 250.94 587.48 251.235C587.749 251.53 587.952 251.881 588.091 252.288C588.238 252.695 588.312 253.146 588.312 253.64V254.173H583.502V254.394C583.502 254.923 583.667 255.356 583.996 255.694C584.325 256.023 584.78 256.188 585.361 256.188C585.794 256.188 586.163 256.097 586.466 255.915C586.778 255.724 587.029 255.473 587.22 255.161L588.104 255.941C587.879 256.331 587.532 256.66 587.064 256.929C586.605 257.198 586.028 257.332 585.335 257.332ZM585.231 251.391C584.98 251.391 584.746 251.434 584.529 251.521C584.321 251.608 584.139 251.733 583.983 251.898C583.836 252.054 583.719 252.24 583.632 252.457C583.545 252.674 583.502 252.912 583.502 253.172V253.263H586.869V253.133C586.869 252.604 586.717 252.184 586.414 251.872C586.119 251.551 585.725 251.391 585.231 251.391ZM590.075 256.032H591.856V251.612H590.075V250.468H593.273V252.249H593.351C593.412 252.015 593.498 251.79 593.611 251.573C593.724 251.356 593.867 251.17 594.04 251.014C594.213 250.849 594.426 250.719 594.677 250.624C594.928 250.52 595.223 250.468 595.561 250.468H596.367V251.82H595.041C594.521 251.82 594.096 251.976 593.767 252.288C593.438 252.591 593.273 253.003 593.273 253.523V256.032H595.704V257.176H590.075V256.032ZM600.795 257.332C600.067 257.332 599.439 257.215 598.91 256.981C598.39 256.747 597.97 256.435 597.649 256.045L598.52 255.265C598.815 255.586 599.144 255.833 599.508 256.006C599.881 256.171 600.318 256.253 600.821 256.253C601.28 256.253 601.649 256.175 601.926 256.019C602.212 255.863 602.355 255.62 602.355 255.291C602.355 255.152 602.329 255.035 602.277 254.94C602.225 254.845 602.151 254.767 602.056 254.706C601.961 254.645 601.848 254.598 601.718 254.563C601.597 254.528 601.467 254.502 601.328 254.485L600.262 254.316C600.002 254.281 599.738 254.225 599.469 254.147C599.2 254.069 598.958 253.961 598.741 253.822C598.533 253.675 598.36 253.488 598.221 253.263C598.091 253.038 598.026 252.752 598.026 252.405C598.026 251.72 598.286 251.2 598.806 250.845C599.335 250.49 600.028 250.312 600.886 250.312C601.51 250.312 602.047 250.407 602.498 250.598C602.957 250.78 603.339 251.036 603.642 251.365L602.849 252.197C602.676 251.998 602.429 251.816 602.108 251.651C601.787 251.478 601.363 251.391 600.834 251.391C599.889 251.391 599.417 251.69 599.417 252.288C599.417 252.574 599.517 252.773 599.716 252.886C599.924 252.99 600.167 253.059 600.444 253.094L601.51 253.263C601.779 253.306 602.043 253.363 602.303 253.432C602.572 253.501 602.81 253.61 603.018 253.757C603.235 253.896 603.408 254.078 603.538 254.303C603.677 254.528 603.746 254.814 603.746 255.161C603.746 255.837 603.482 256.37 602.953 256.76C602.433 257.141 601.714 257.332 600.795 257.332ZM611.073 257.176C610.665 257.176 610.358 257.072 610.15 256.864C609.95 256.656 609.829 256.383 609.786 256.045H609.721C609.591 256.452 609.352 256.769 609.006 256.994C608.668 257.219 608.234 257.332 607.706 257.332C607.021 257.332 606.475 257.154 606.068 256.799C605.66 256.435 605.457 255.937 605.457 255.304C605.457 254.654 605.695 254.16 606.172 253.822C606.657 253.475 607.398 253.302 608.395 253.302H609.682V252.782C609.682 251.872 609.201 251.417 608.239 251.417C607.805 251.417 607.454 251.504 607.186 251.677C606.917 251.842 606.692 252.063 606.51 252.34L605.665 251.651C605.855 251.287 606.176 250.975 606.627 250.715C607.077 250.446 607.658 250.312 608.369 250.312C609.218 250.312 609.885 250.516 610.371 250.923C610.856 251.33 611.099 251.92 611.099 252.691V256.058H611.944V257.176H611.073ZM608.109 256.292C608.568 256.292 608.945 256.188 609.24 255.98C609.534 255.772 609.682 255.503 609.682 255.174V254.199H608.421C607.398 254.199 606.887 254.507 606.887 255.122V255.382C606.887 255.685 606.995 255.915 607.212 256.071C607.428 256.218 607.727 256.292 608.109 256.292ZM608.564 249.649L607.693 249.233L608.876 246.893L610.098 247.491L608.564 249.649ZM616.775 257.176C616.185 257.176 615.752 257.02 615.475 256.708C615.197 256.387 615.059 255.976 615.059 255.473V251.612H612.992V250.468H614.461C614.712 250.468 614.89 250.42 614.994 250.325C615.098 250.221 615.15 250.039 615.15 249.779V248.102H616.476V250.468H619.336V251.612H616.476V256.032H619.336V257.176H616.775ZM624.583 249.246C624.219 249.246 623.963 249.172 623.816 249.025C623.677 248.878 623.608 248.696 623.608 248.479V248.206C623.608 247.989 623.677 247.807 623.816 247.66C623.963 247.513 624.214 247.439 624.57 247.439C624.934 247.439 625.185 247.513 625.324 247.66C625.471 247.807 625.545 247.989 625.545 248.206V248.479C625.545 248.696 625.471 248.878 625.324 249.025C625.185 249.172 624.938 249.246 624.583 249.246ZM621.58 256.032H623.868V251.612H621.58V250.468H625.285V256.032H627.43V257.176H621.58V256.032ZM629.037 256.032H631.26V248.7H629.037V247.556H632.677V256.032H634.9V257.176H629.037V256.032Z" fill="white"/>
<path d="M73.3923 440.545V431.471H76.7853C77.652 431.471 78.3106 431.714 78.7613 432.199C79.2206 432.685 79.4503 433.352 79.4503 434.201C79.4503 435.051 79.2206 435.718 78.7613 436.203C78.3106 436.689 77.652 436.931 76.7853 436.931H74.8483V440.545H73.3923ZM74.8483 435.722H76.5643C77.4656 435.722 77.9163 435.306 77.9163 434.474V433.915C77.9163 433.092 77.4656 432.68 76.5643 432.68H74.8483V435.722ZM81.0832 439.401H82.8642V434.981H81.0832V433.837H84.2812V435.618H84.3592C84.4199 435.384 84.5065 435.159 84.6192 434.942C84.7319 434.726 84.8749 434.539 85.0482 434.383C85.2215 434.219 85.4339 434.089 85.6852 433.993C85.9365 433.889 86.2312 433.837 86.5692 433.837H87.3752V435.189H86.0492C85.5292 435.189 85.1045 435.345 84.7752 435.657C84.4459 435.961 84.2812 436.372 84.2812 436.892V439.401H86.7122V440.545H81.0832V439.401ZM91.7901 440.701C91.2961 440.701 90.8498 440.619 90.4511 440.454C90.0611 440.29 89.7275 440.056 89.4501 439.752C89.1815 439.449 88.9735 439.081 88.8261 438.647C88.6788 438.214 88.6051 437.729 88.6051 437.191C88.6051 436.654 88.6788 436.169 88.8261 435.735C88.9735 435.302 89.1815 434.934 89.4501 434.63C89.7275 434.327 90.0611 434.093 90.4511 433.928C90.8498 433.764 91.2961 433.681 91.7901 433.681C92.2841 433.681 92.7261 433.764 93.1161 433.928C93.5148 434.093 93.8485 434.327 94.1171 434.63C94.3945 434.934 94.6068 435.302 94.7541 435.735C94.9015 436.169 94.9751 436.654 94.9751 437.191C94.9751 437.729 94.9015 438.214 94.7541 438.647C94.6068 439.081 94.3945 439.449 94.1171 439.752C93.8485 440.056 93.5148 440.29 93.1161 440.454C92.7261 440.619 92.2841 440.701 91.7901 440.701ZM91.7901 439.583C92.3101 439.583 92.7218 439.427 93.0251 439.115C93.3371 438.795 93.4931 438.322 93.4931 437.698V436.684C93.4931 436.06 93.3371 435.592 93.0251 435.28C92.7218 434.96 92.3101 434.799 91.7901 434.799C91.2701 434.799 90.8541 434.96 90.5421 435.28C90.2388 435.592 90.0871 436.06 90.0871 436.684V437.698C90.0871 438.322 90.2388 438.795 90.5421 439.115C90.8541 439.427 91.2701 439.583 91.7901 439.583ZM102.081 440.545C101.674 440.545 101.366 440.441 101.158 440.233C100.959 440.025 100.837 439.752 100.794 439.414H100.729C100.599 439.822 100.361 440.138 100.014 440.363C99.6761 440.589 99.2427 440.701 98.7141 440.701C98.0294 440.701 97.4834 440.524 97.0761 440.168C96.6687 439.804 96.4651 439.306 96.4651 438.673C96.4651 438.023 96.7034 437.529 97.1801 437.191C97.6654 436.845 98.4064 436.671 99.4031 436.671H100.69V436.151C100.69 435.241 100.209 434.786 99.2471 434.786C98.8137 434.786 98.4627 434.873 98.1941 435.046C97.9254 435.211 97.7001 435.432 97.5181 435.709L96.6731 435.02C96.8637 434.656 97.1844 434.344 97.6351 434.084C98.0857 433.816 98.6664 433.681 99.3771 433.681C100.226 433.681 100.894 433.885 101.379 434.292C101.864 434.7 102.107 435.289 102.107 436.06V439.427H102.952V440.545H102.081ZM99.1171 439.661C99.5764 439.661 99.9534 439.557 100.248 439.349C100.543 439.141 100.69 438.873 100.69 438.543V437.568H99.4291C98.4064 437.568 97.8951 437.876 97.8951 438.491V438.751C97.8951 439.055 98.0034 439.284 98.2201 439.44C98.4367 439.588 98.7357 439.661 99.1171 439.661ZM107.627 440.701C107.124 440.701 106.674 440.619 106.275 440.454C105.885 440.29 105.551 440.056 105.274 439.752C105.005 439.449 104.797 439.081 104.65 438.647C104.511 438.214 104.442 437.729 104.442 437.191C104.442 436.654 104.511 436.169 104.65 435.735C104.797 435.302 105.005 434.934 105.274 434.63C105.551 434.327 105.885 434.093 106.275 433.928C106.674 433.764 107.12 433.681 107.614 433.681C108.307 433.681 108.862 433.829 109.278 434.123C109.703 434.418 110.019 434.799 110.227 435.267L109.122 435.865C109.001 435.553 108.814 435.306 108.563 435.124C108.32 434.942 108.004 434.851 107.614 434.851C107.077 434.851 106.661 435.016 106.366 435.345C106.071 435.666 105.924 436.095 105.924 436.632V437.75C105.924 438.279 106.071 438.708 106.366 439.037C106.661 439.367 107.085 439.531 107.64 439.531C108.056 439.531 108.394 439.436 108.654 439.245C108.923 439.055 109.135 438.795 109.291 438.465L110.331 439.102C110.114 439.57 109.785 439.956 109.343 440.259C108.901 440.554 108.329 440.701 107.627 440.701ZM115.578 440.545C114.989 440.545 114.555 440.389 114.278 440.077C114.001 439.757 113.862 439.345 113.862 438.842V434.981H111.795V433.837H113.264C113.515 433.837 113.693 433.79 113.797 433.694C113.901 433.59 113.953 433.408 113.953 433.148V431.471H115.279V433.837H118.139V434.981H115.279V439.401H118.139V440.545H115.578ZM123.386 432.615C123.022 432.615 122.766 432.542 122.619 432.394C122.48 432.247 122.411 432.065 122.411 431.848V431.575C122.411 431.359 122.48 431.177 122.619 431.029C122.766 430.882 123.017 430.808 123.373 430.808C123.737 430.808 123.988 430.882 124.127 431.029C124.274 431.177 124.348 431.359 124.348 431.575V431.848C124.348 432.065 124.274 432.247 124.127 432.394C123.988 432.542 123.741 432.615 123.386 432.615ZM120.383 439.401H122.671V434.981H120.383V433.837H124.088V439.401H126.233V440.545H120.383V439.401ZM129.894 440.545L127.489 433.837H128.958L129.881 436.671L130.752 439.362H130.83L131.701 436.671L132.624 433.837H134.041L131.636 440.545H129.894ZM138.56 440.701C138.066 440.701 137.619 440.619 137.221 440.454C136.831 440.29 136.497 440.056 136.22 439.752C135.951 439.449 135.743 439.081 135.596 438.647C135.448 438.214 135.375 437.729 135.375 437.191C135.375 436.654 135.448 436.169 135.596 435.735C135.743 435.302 135.951 434.934 136.22 434.63C136.497 434.327 136.831 434.093 137.221 433.928C137.619 433.764 138.066 433.681 138.56 433.681C139.054 433.681 139.496 433.764 139.886 433.928C140.284 434.093 140.618 434.327 140.887 434.63C141.164 434.934 141.376 435.302 141.524 435.735C141.671 436.169 141.745 436.654 141.745 437.191C141.745 437.729 141.671 438.214 141.524 438.647C141.376 439.081 141.164 439.449 140.887 439.752C140.618 440.056 140.284 440.29 139.886 440.454C139.496 440.619 139.054 440.701 138.56 440.701ZM138.56 439.583C139.08 439.583 139.491 439.427 139.795 439.115C140.107 438.795 140.263 438.322 140.263 437.698V436.684C140.263 436.06 140.107 435.592 139.795 435.28C139.491 434.96 139.08 434.799 138.56 434.799C138.04 434.799 137.624 434.96 137.312 435.28C137.008 435.592 136.857 436.06 136.857 436.684V437.698C136.857 438.322 137.008 438.795 137.312 439.115C137.624 439.427 138.04 439.583 138.56 439.583Z" fill="white"/>
<path d="M6.27415 256.803C5.48548 256.803 4.82248 256.664 4.28515 256.387C3.74782 256.11 3.30582 255.741 2.95915 255.282L3.89515 254.385C4.24182 254.801 4.61015 255.109 5.00015 255.308C5.39015 255.499 5.83215 255.594 6.32615 255.594C6.89815 255.594 7.33582 255.464 7.63915 255.204C7.95115 254.944 8.10715 254.571 8.10715 254.086C8.10715 253.696 7.99448 253.397 7.76915 253.189C7.54382 252.972 7.15815 252.816 6.61215 252.721L5.62415 252.565C5.19082 252.496 4.82682 252.383 4.53215 252.227C4.23748 252.062 3.99915 251.872 3.81715 251.655C3.63515 251.43 3.50082 251.183 3.41415 250.914C3.33615 250.637 3.29715 250.346 3.29715 250.043C3.29715 249.185 3.57448 248.535 4.12915 248.093C4.68382 247.642 5.44648 247.417 6.41715 247.417C7.13648 247.417 7.74748 247.534 8.25015 247.768C8.76148 247.993 9.17315 248.314 9.48515 248.73L8.57515 249.64C8.32382 249.337 8.02482 249.094 7.67815 248.912C7.34015 248.721 6.91982 248.626 6.41715 248.626C5.87982 248.626 5.46815 248.743 5.18215 248.977C4.90482 249.202 4.76615 249.536 4.76615 249.978C4.76615 250.351 4.87448 250.645 5.09115 250.862C5.31648 251.07 5.71082 251.222 6.27415 251.317L7.23615 251.486C8.05082 251.633 8.64448 251.932 9.01715 252.383C9.38982 252.825 9.57615 253.367 9.57615 254.008C9.57615 254.424 9.50248 254.805 9.35515 255.152C9.21648 255.499 9.00415 255.793 8.71815 256.036C8.44082 256.279 8.09415 256.469 7.67815 256.608C7.27082 256.738 6.80282 256.803 6.27415 256.803ZM14.1471 256.803C13.6531 256.803 13.2067 256.721 12.8081 256.556C12.4181 256.391 12.0844 256.157 11.8071 255.854C11.5384 255.551 11.3304 255.182 11.1831 254.749C11.0357 254.316 10.9621 253.83 10.9621 253.293C10.9621 252.756 11.0357 252.27 11.1831 251.837C11.3304 251.404 11.5384 251.035 11.8071 250.732C12.0844 250.429 12.4181 250.195 12.8081 250.03C13.2067 249.865 13.6531 249.783 14.1471 249.783C14.6411 249.783 15.0831 249.865 15.4731 250.03C15.8717 250.195 16.2054 250.429 16.4741 250.732C16.7514 251.035 16.9637 251.404 17.1111 251.837C17.2584 252.27 17.3321 252.756 17.3321 253.293C17.3321 253.83 17.2584 254.316 17.1111 254.749C16.9637 255.182 16.7514 255.551 16.4741 255.854C16.2054 256.157 15.8717 256.391 15.4731 256.556C15.0831 256.721 14.6411 256.803 14.1471 256.803ZM14.1471 255.685C14.6671 255.685 15.0787 255.529 15.3821 255.217C15.6941 254.896 15.8501 254.424 15.8501 253.8V252.786C15.8501 252.162 15.6941 251.694 15.3821 251.382C15.0787 251.061 14.6671 250.901 14.1471 250.901C13.6271 250.901 13.2111 251.061 12.8991 251.382C12.5957 251.694 12.4441 252.162 12.4441 252.786V253.8C12.4441 254.424 12.5957 254.896 12.8991 255.217C13.2111 255.529 13.6271 255.685 14.1471 255.685ZM22.189 256.803C21.6863 256.803 21.2357 256.721 20.837 256.556C20.447 256.391 20.1133 256.157 19.836 255.854C19.5673 255.551 19.3593 255.182 19.212 254.749C19.0733 254.316 19.004 253.83 19.004 253.293C19.004 252.756 19.0733 252.27 19.212 251.837C19.3593 251.404 19.5673 251.035 19.836 250.732C20.1133 250.429 20.447 250.195 20.837 250.03C21.2357 249.865 21.682 249.783 22.176 249.783C22.8693 249.783 23.424 249.93 23.84 250.225C24.2647 250.52 24.581 250.901 24.789 251.369L23.684 251.967C23.5627 251.655 23.3763 251.408 23.125 251.226C22.8823 251.044 22.566 250.953 22.176 250.953C21.6387 250.953 21.2227 251.118 20.928 251.447C20.6333 251.768 20.486 252.197 20.486 252.734V253.852C20.486 254.381 20.6333 254.81 20.928 255.139C21.2227 255.468 21.6473 255.633 22.202 255.633C22.618 255.633 22.956 255.538 23.216 255.347C23.4847 255.156 23.697 254.896 23.853 254.567L24.893 255.204C24.6763 255.672 24.347 256.058 23.905 256.361C23.463 256.656 22.891 256.803 22.189 256.803ZM30.1529 248.717C29.7889 248.717 29.5332 248.643 29.3859 248.496C29.2472 248.349 29.1779 248.167 29.1779 247.95V247.677C29.1779 247.46 29.2472 247.278 29.3859 247.131C29.5332 246.984 29.7846 246.91 30.1399 246.91C30.5039 246.91 30.7552 246.984 30.8939 247.131C31.0412 247.278 31.1149 247.46 31.1149 247.677V247.95C31.1149 248.167 31.0412 248.349 30.8939 248.496C30.7552 248.643 30.5082 248.717 30.1529 248.717ZM27.1499 255.503H29.4379V251.083H27.1499V249.939H30.8549V255.503H32.9999V256.647H27.1499V255.503ZM40.0278 256.647C39.6205 256.647 39.3128 256.543 39.1048 256.335C38.9055 256.127 38.7842 255.854 38.7408 255.516H38.6758C38.5458 255.923 38.3075 256.24 37.9608 256.465C37.6228 256.69 37.1895 256.803 36.6608 256.803C35.9762 256.803 35.4302 256.625 35.0228 256.27C34.6155 255.906 34.4118 255.408 34.4118 254.775C34.4118 254.125 34.6502 253.631 35.1268 253.293C35.6122 252.946 36.3532 252.773 37.3498 252.773H38.6368V252.253C38.6368 251.343 38.1558 250.888 37.1938 250.888C36.7605 250.888 36.4095 250.975 36.1408 251.148C35.8722 251.313 35.6468 251.534 35.4648 251.811L34.6198 251.122C34.8105 250.758 35.1312 250.446 35.5818 250.186C36.0325 249.917 36.6132 249.783 37.3238 249.783C38.1732 249.783 38.8405 249.987 39.3258 250.394C39.8112 250.801 40.0538 251.391 40.0538 252.162V255.529H40.8988V256.647H40.0278ZM37.0638 255.763C37.5232 255.763 37.9002 255.659 38.1948 255.451C38.4895 255.243 38.6368 254.974 38.6368 254.645V253.67H37.3758C36.3532 253.67 35.8418 253.978 35.8418 254.593V254.853C35.8418 255.156 35.9502 255.386 36.1668 255.542C36.3835 255.689 36.6825 255.763 37.0638 255.763ZM42.4538 247.027H43.8708V251.083H43.9488C44.1481 250.676 44.4124 250.359 44.7418 250.134C45.0711 249.9 45.4828 249.783 45.9768 249.783C46.7654 249.783 47.3938 250.078 47.8618 250.667C48.3298 251.256 48.5638 252.132 48.5638 253.293C48.5638 254.454 48.3298 255.33 47.8618 255.919C47.3938 256.508 46.7654 256.803 45.9768 256.803C45.4828 256.803 45.0711 256.69 44.7418 256.465C44.4124 256.231 44.1481 255.91 43.9488 255.503H43.8708V256.647H42.4538V247.027ZM45.3918 255.646C45.9291 255.646 46.3408 255.481 46.6268 255.152C46.9214 254.823 47.0688 254.385 47.0688 253.839V252.747C47.0688 252.201 46.9214 251.763 46.6268 251.434C46.3408 251.105 45.9291 250.94 45.3918 250.94C45.1838 250.94 44.9888 250.966 44.8068 251.018C44.6248 251.07 44.4644 251.148 44.3258 251.252C44.1871 251.356 44.0744 251.486 43.9878 251.642C43.9098 251.789 43.8708 251.967 43.8708 252.175V254.411C43.8708 254.619 43.9098 254.801 43.9878 254.957C44.0744 255.104 44.1871 255.23 44.3258 255.334C44.4644 255.438 44.6248 255.516 44.8068 255.568C44.9888 255.62 45.1838 255.646 45.3918 255.646ZM50.1967 255.503H52.4197V248.171H50.1967V247.027H53.8367V255.503H56.0597V256.647H50.1967V255.503ZM61.0596 256.803C60.5483 256.803 60.0889 256.721 59.6816 256.556C59.2743 256.391 58.9319 256.157 58.6546 255.854C58.3773 255.551 58.1649 255.187 58.0176 254.762C57.8703 254.329 57.7966 253.843 57.7966 253.306C57.7966 252.769 57.8703 252.283 58.0176 251.85C58.1736 251.417 58.3859 251.048 58.6546 250.745C58.9319 250.433 59.2656 250.195 59.6556 250.03C60.0456 249.865 60.4789 249.783 60.9556 249.783C61.4236 249.783 61.8483 249.865 62.2296 250.03C62.6109 250.186 62.9359 250.411 63.2046 250.706C63.4733 251.001 63.6769 251.352 63.8156 251.759C63.9629 252.166 64.0366 252.617 64.0366 253.111V253.644H59.2266V253.865C59.2266 254.394 59.3913 254.827 59.7206 255.165C60.0499 255.494 60.5049 255.659 61.0856 255.659C61.5189 255.659 61.8873 255.568 62.1906 255.386C62.5026 255.195 62.7539 254.944 62.9446 254.632L63.8286 255.412C63.6033 255.802 63.2566 256.131 62.7886 256.4C62.3293 256.669 61.7529 256.803 61.0596 256.803ZM60.9556 250.862C60.7043 250.862 60.4703 250.905 60.2536 250.992C60.0456 251.079 59.8636 251.204 59.7076 251.369C59.5603 251.525 59.4433 251.711 59.3566 251.928C59.2699 252.145 59.2266 252.383 59.2266 252.643V252.734H62.5936V252.604C62.5936 252.075 62.4419 251.655 62.1386 251.343C61.8439 251.022 61.4496 250.862 60.9556 250.862Z" fill="white"/>
<path d="M553.484 160.025H555.855V155.231H558.271L560.841 160.025H563.487L560.655 154.835C562.196 154.215 563.008 152.898 563.008 151.121C563.008 148.622 561.397 146.934 558.393 146.934H553.484V160.025ZM555.855 153.263V148.916H558.028C559.799 148.916 560.592 149.728 560.592 151.121C560.592 152.515 559.799 153.263 558.041 153.263H555.855ZM569.294 160.217C571.583 160.217 573.155 159.099 573.564 157.392L571.404 157.149C571.09 157.98 570.323 158.415 569.326 158.415C567.831 158.415 566.84 157.43 566.821 155.749H573.66V155.04C573.66 151.594 571.589 150.079 569.173 150.079C566.36 150.079 564.526 152.144 564.526 155.174C564.526 158.255 566.335 160.217 569.294 160.217ZM566.827 154.189C566.897 152.937 567.824 151.882 569.205 151.882C570.534 151.882 571.429 152.854 571.442 154.189H566.827ZM578.443 160.224C579.983 160.224 580.904 159.501 581.326 158.677H581.402V160.025H583.627V153.454C583.627 150.859 581.511 150.079 579.638 150.079C577.574 150.079 575.988 151 575.477 152.79L577.638 153.096C577.868 152.425 578.52 151.85 579.651 151.85C580.725 151.85 581.313 152.4 581.313 153.365V153.403C581.313 154.068 580.616 154.1 578.884 154.285C576.979 154.49 575.157 155.059 575.157 157.27C575.157 159.201 576.57 160.224 578.443 160.224ZM579.044 158.523C578.079 158.523 577.388 158.082 577.388 157.232C577.388 156.344 578.162 155.973 579.197 155.826C579.804 155.743 581.019 155.589 581.319 155.346V156.503C581.319 157.596 580.437 158.523 579.044 158.523ZM590.236 160.217C592.704 160.217 594.276 158.753 594.442 156.67H592.231C592.032 157.724 591.272 158.331 590.255 158.331C588.811 158.331 587.878 157.123 587.878 155.116C587.878 153.135 588.83 151.946 590.255 151.946C591.368 151.946 592.052 152.662 592.231 153.608H594.442C594.282 151.479 592.62 150.079 590.223 150.079C587.347 150.079 585.532 152.157 585.532 155.155C585.532 158.127 587.302 160.217 590.236 160.217ZM601.245 150.207H599.308V147.855H596.994V150.207H595.601V151.997H596.994V157.456C596.981 159.303 598.324 160.211 600.062 160.16C600.721 160.14 601.175 160.013 601.424 159.93L601.034 158.121C600.906 158.153 600.644 158.21 600.356 158.21C599.775 158.21 599.308 158.006 599.308 157.072V151.997H601.245V150.207Z" fill="white"/>
<path d="M0.939387 155.765H3.31084V150.204H8.75047V148.216H3.31084V144.662H9.32575V142.674H0.939387V155.765ZM11.2434 155.765H13.5573V149.993C13.5573 148.746 14.4969 147.864 15.7689 147.864C16.1588 147.864 16.6446 147.935 16.8428 147.999V145.87C16.6319 145.832 16.2675 145.806 16.0118 145.806C14.8868 145.806 13.9472 146.445 13.5892 147.583H13.487V145.947H11.2434V155.765ZM22.2585 155.957C25.1349 155.957 26.963 153.93 26.963 150.894C26.963 147.852 25.1349 145.819 22.2585 145.819C19.382 145.819 17.5539 147.852 17.5539 150.894C17.5539 153.93 19.382 155.957 22.2585 155.957ZM22.2712 154.103C20.6796 154.103 19.8998 152.684 19.8998 150.888C19.8998 149.092 20.6796 147.653 22.2712 147.653C23.8373 147.653 24.6171 149.092 24.6171 150.888C24.6171 152.684 23.8373 154.103 22.2712 154.103ZM31.2409 150.012C31.2409 148.593 32.0974 147.775 33.3183 147.775C34.5136 147.775 35.2295 148.561 35.2295 149.871V155.765H37.5434V149.513C37.5498 147.161 36.2075 145.819 34.1812 145.819C32.711 145.819 31.7011 146.522 31.2537 147.615H31.1386V145.947H28.927V155.765H31.2409V150.012ZM44.7984 145.947H42.8616V143.594H40.5477V145.947H39.1542V147.736H40.5477V153.195C40.5349 155.043 41.8772 155.95 43.6159 155.899C44.2743 155.88 44.7281 155.752 44.9774 155.669L44.5875 153.86C44.4596 153.892 44.1976 153.95 43.9099 153.95C43.3282 153.95 42.8616 153.745 42.8616 152.812V147.736H44.7984V145.947ZM52.3682 149.36H46.4747V151.265H52.3682V149.36ZM59.1485 155.957C61.4369 155.957 63.0093 154.838 63.4184 153.131L61.2579 152.888C60.9447 153.719 60.1777 154.154 59.1805 154.154C57.6848 154.154 56.694 153.17 56.6748 151.489H63.5143V150.779C63.5143 147.334 61.4433 145.819 59.0271 145.819C56.2146 145.819 54.3801 147.884 54.3801 150.913C54.3801 153.994 56.189 155.957 59.1485 155.957ZM56.6812 149.929C56.7515 148.676 57.6784 147.621 59.0591 147.621C60.3886 147.621 61.2835 148.593 61.2963 149.929H56.6812ZM67.7858 150.012C67.7858 148.593 68.6423 147.775 69.8632 147.775C71.0585 147.775 71.7744 148.561 71.7744 149.871V155.765H74.0884V149.513C74.0947 147.161 72.7524 145.819 70.7261 145.819C69.256 145.819 68.246 146.522 67.7986 147.615H67.6835V145.947H65.4719V155.765H67.7858V150.012ZM80.0841 155.937C81.7716 155.937 82.5322 154.934 82.8966 154.218H83.0372V155.765H85.3128V142.674H82.9925V147.57H82.8966C82.545 146.861 81.8227 145.819 80.0905 145.819C77.8213 145.819 76.0379 147.596 76.0379 150.869C76.0379 154.103 77.7702 155.937 80.0841 155.937ZM80.7297 154.039C79.202 154.039 78.3966 152.697 78.3966 150.856C78.3966 149.028 79.1892 147.717 80.7297 147.717C82.219 147.717 83.0372 148.951 83.0372 150.856C83.0372 152.761 82.2063 154.039 80.7297 154.039Z" fill="white"/>
<path d="M563.856 350.028V359.233C563.85 360.613 563.211 361.348 562.073 361.348C561.012 361.348 560.302 360.703 560.283 359.642H557.925C557.925 362.058 559.689 363.298 561.983 363.298C564.508 363.298 566.202 361.764 566.209 359.233V350.028H563.856ZM575.896 353.627H578.178C578.133 351.415 576.247 349.849 573.46 349.849C570.712 349.849 568.647 351.396 568.654 353.71C568.654 355.589 569.99 356.669 572.144 357.225L573.633 357.609C575.046 357.967 575.979 358.408 575.985 359.424C575.979 360.543 574.918 361.291 573.371 361.291C571.888 361.291 570.737 360.626 570.642 359.252H568.308C568.404 361.853 570.341 363.317 573.39 363.317C576.529 363.317 578.35 361.751 578.357 359.443C578.35 357.174 576.477 356.139 574.509 355.672L573.281 355.365C572.208 355.11 571.044 354.656 571.057 353.563C571.063 352.578 571.945 351.856 573.428 351.856C574.841 351.856 575.774 352.514 575.896 353.627Z" fill="white"/>
<path d="M195.838 488.893C195.436 485.985 193.198 484.297 190.296 484.297C186.877 484.297 184.301 486.79 184.301 491.022C184.301 495.247 186.845 497.746 190.296 497.746C193.409 497.746 195.474 495.733 195.838 493.234L193.448 493.221C193.147 494.755 191.894 495.618 190.328 495.618C188.206 495.618 186.685 494.026 186.685 491.022C186.685 488.069 188.193 486.426 190.335 486.426C191.926 486.426 193.173 487.327 193.448 488.893H195.838ZM205.124 488.075H207.406C207.362 485.864 205.476 484.297 202.689 484.297C199.94 484.297 197.876 485.844 197.882 488.158C197.882 490.038 199.218 491.118 201.372 491.674L202.862 492.057C204.274 492.415 205.207 492.856 205.214 493.873C205.207 494.991 204.146 495.739 202.599 495.739C201.116 495.739 199.966 495.074 199.87 493.7H197.537C197.633 496.302 199.57 497.766 202.619 497.766C205.757 497.766 207.579 496.199 207.585 493.892C207.579 491.623 205.706 490.587 203.737 490.121L202.51 489.814C201.436 489.558 200.273 489.104 200.286 488.011C200.292 487.027 201.174 486.305 202.657 486.305C204.07 486.305 205.003 486.963 205.124 488.075ZM216.814 488.075H219.096C219.051 485.864 217.165 484.297 214.378 484.297C211.63 484.297 209.565 485.844 209.572 488.158C209.572 490.038 210.907 491.118 213.062 491.674L214.551 492.057C215.964 492.415 216.897 492.856 216.903 493.873C216.897 494.991 215.836 495.739 214.289 495.739C212.806 495.739 211.655 495.074 211.559 493.7H209.226C209.322 496.302 211.259 497.766 214.308 497.766C217.447 497.766 219.268 496.199 219.275 493.892C219.268 491.623 217.395 490.587 215.427 490.121L214.199 489.814C213.126 489.558 211.962 489.104 211.975 488.011C211.981 487.027 212.863 486.305 214.346 486.305C215.759 486.305 216.692 486.963 216.814 488.075Z" fill="white"/>
<path d="M505.02 76.9658V67.8918H510.701V69.1138H506.476V71.7528H510.545V72.9748H506.476V75.7438H510.701V76.9658H505.02ZM515.61 77.1218C514.882 77.1218 514.254 77.0048 513.725 76.7708C513.205 76.5368 512.785 76.2248 512.464 75.8348L513.335 75.0548C513.63 75.3755 513.959 75.6225 514.323 75.7958C514.696 75.9605 515.134 76.0428 515.636 76.0428C516.096 76.0428 516.464 75.9648 516.741 75.8088C517.027 75.6528 517.17 75.4102 517.17 75.0808C517.17 74.9422 517.144 74.8252 517.092 74.7298C517.04 74.6345 516.967 74.5565 516.871 74.4958C516.776 74.4352 516.663 74.3875 516.533 74.3528C516.412 74.3182 516.282 74.2922 516.143 74.2748L515.077 74.1058C514.817 74.0712 514.553 74.0148 514.284 73.9368C514.016 73.8588 513.773 73.7505 513.556 73.6118C513.348 73.4645 513.175 73.2782 513.036 73.0528C512.906 72.8275 512.841 72.5415 512.841 72.1948C512.841 71.5102 513.101 70.9902 513.621 70.6348C514.15 70.2795 514.843 70.1018 515.701 70.1018C516.325 70.1018 516.863 70.1972 517.313 70.3878C517.773 70.5698 518.154 70.8255 518.457 71.1548L517.664 71.9868C517.491 71.7875 517.244 71.6055 516.923 71.4408C516.603 71.2675 516.178 71.1808 515.649 71.1808C514.705 71.1808 514.232 71.4798 514.232 72.0778C514.232 72.3638 514.332 72.5632 514.531 72.6758C514.739 72.7798 514.982 72.8492 515.259 72.8838L516.325 73.0528C516.594 73.0962 516.858 73.1525 517.118 73.2218C517.387 73.2912 517.625 73.3995 517.833 73.5468C518.05 73.6855 518.223 73.8675 518.353 74.0928C518.492 74.3182 518.561 74.6042 518.561 74.9508C518.561 75.6268 518.297 76.1598 517.768 76.5498C517.248 76.9312 516.529 77.1218 515.61 77.1218ZM523.795 76.9658C523.206 76.9658 522.773 76.8098 522.495 76.4978C522.218 76.1772 522.079 75.7655 522.079 75.2628V71.4018H520.012V70.2578H521.481C521.733 70.2578 521.91 70.2102 522.014 70.1148C522.118 70.0108 522.17 69.8288 522.17 69.5688V67.8918H523.496V70.2578H526.356V71.4018H523.496V75.8218H526.356V76.9658H523.795ZM528.275 75.8218H530.056V71.4018H528.275V70.2578H531.473V72.0388H531.551C531.612 71.8048 531.698 71.5795 531.811 71.3628C531.924 71.1462 532.067 70.9598 532.24 70.8038C532.413 70.6392 532.626 70.5092 532.877 70.4138C533.128 70.3098 533.423 70.2578 533.761 70.2578H534.567V71.6098H533.241C532.721 71.6098 532.296 71.7658 531.967 72.0778C531.638 72.3812 531.473 72.7928 531.473 73.3128V75.8218H533.904V76.9658H528.275V75.8218ZM541.478 76.9658C541.071 76.9658 540.763 76.8618 540.555 76.6538C540.356 76.4458 540.234 76.1728 540.191 75.8348H540.126C539.996 76.2422 539.758 76.5585 539.411 76.7838C539.073 77.0092 538.64 77.1218 538.111 77.1218C537.426 77.1218 536.88 76.9442 536.473 76.5888C536.066 76.2248 535.862 75.7265 535.862 75.0938C535.862 74.4438 536.1 73.9498 536.577 73.6118C537.062 73.2652 537.803 73.0918 538.8 73.0918H540.087V72.5718C540.087 71.6618 539.606 71.2068 538.644 71.2068C538.211 71.2068 537.86 71.2935 537.591 71.4668C537.322 71.6315 537.097 71.8525 536.915 72.1298L536.07 71.4408C536.261 71.0768 536.581 70.7648 537.032 70.5048C537.483 70.2362 538.063 70.1018 538.774 70.1018C539.623 70.1018 540.291 70.3055 540.776 70.7128C541.261 71.1202 541.504 71.7095 541.504 72.4808V75.8478H542.349V76.9658H541.478ZM538.514 76.0818C538.973 76.0818 539.35 75.9778 539.645 75.7698C539.94 75.5618 540.087 75.2932 540.087 74.9638V73.9888H538.826C537.803 73.9888 537.292 74.2965 537.292 74.9118V75.1718C537.292 75.4752 537.4 75.7048 537.617 75.8608C537.834 76.0082 538.133 76.0818 538.514 76.0818ZM547.18 76.9658C546.591 76.9658 546.157 76.8098 545.88 76.4978C545.603 76.1772 545.464 75.7655 545.464 75.2628V71.4018H543.397V70.2578H544.866C545.117 70.2578 545.295 70.2102 545.399 70.1148C545.503 70.0108 545.555 69.8288 545.555 69.5688V67.8918H546.881V70.2578H549.741V71.4018H546.881V75.8218H549.741V76.9658H547.18ZM554.728 69.4388L553.857 69.0228L555.04 66.6828L556.262 67.2808L554.728 69.4388ZM554.715 77.1218C554.204 77.1218 553.744 77.0395 553.337 76.8748C552.93 76.7102 552.587 76.4762 552.31 76.1728C552.033 75.8695 551.82 75.5055 551.673 75.0808C551.526 74.6475 551.452 74.1622 551.452 73.6248C551.452 73.0875 551.526 72.6022 551.673 72.1688C551.829 71.7355 552.041 71.3672 552.31 71.0638C552.587 70.7518 552.921 70.5135 553.311 70.3488C553.701 70.1842 554.134 70.1018 554.611 70.1018C555.079 70.1018 555.504 70.1842 555.885 70.3488C556.266 70.5048 556.591 70.7302 556.86 71.0248C557.129 71.3195 557.332 71.6705 557.471 72.0778C557.618 72.4852 557.692 72.9358 557.692 73.4298V73.9628H552.882V74.1838C552.882 74.7125 553.047 75.1458 553.376 75.4838C553.705 75.8132 554.16 75.9778 554.741 75.9778C555.174 75.9778 555.543 75.8868 555.846 75.7048C556.158 75.5142 556.409 75.2628 556.6 74.9508L557.484 75.7308C557.259 76.1208 556.912 76.4502 556.444 76.7188C555.985 76.9875 555.408 77.1218 554.715 77.1218ZM554.611 71.1808C554.36 71.1808 554.126 71.2242 553.909 71.3108C553.701 71.3975 553.519 71.5232 553.363 71.6878C553.216 71.8438 553.099 72.0302 553.012 72.2468C552.925 72.4635 552.882 72.7018 552.882 72.9618V73.0528H556.249V72.9228C556.249 72.3942 556.097 71.9738 555.794 71.6618C555.499 71.3412 555.105 71.1808 554.611 71.1808ZM565.877 77.6938C565.877 78.3872 565.586 78.8985 565.006 79.2278C564.425 79.5572 563.541 79.7218 562.354 79.7218C561.773 79.7218 561.283 79.6828 560.885 79.6048C560.495 79.5355 560.174 79.4315 559.923 79.2928C559.68 79.1542 559.502 78.9852 559.39 78.7858C559.286 78.5865 559.234 78.3612 559.234 78.1098C559.234 77.7458 559.333 77.4598 559.533 77.2518C559.741 77.0525 560.031 76.9052 560.404 76.8098V76.6798C560.178 76.5932 559.996 76.4718 559.858 76.3158C559.728 76.1598 559.663 75.9562 559.663 75.7048C559.663 75.3755 559.775 75.1285 560.001 74.9638C560.226 74.7905 560.516 74.6605 560.872 74.5738V74.5088C560.464 74.3182 560.148 74.0495 559.923 73.7028C559.697 73.3562 559.585 72.9402 559.585 72.4548C559.585 72.0995 559.65 71.7788 559.78 71.4928C559.91 71.1982 560.092 70.9512 560.326 70.7518C560.568 70.5438 560.854 70.3835 561.184 70.2708C561.522 70.1582 561.899 70.1018 562.315 70.1018C562.783 70.1018 563.203 70.1755 563.576 70.3228V70.1018C563.576 69.8418 563.649 69.6252 563.797 69.4518C563.944 69.2785 564.169 69.1918 564.473 69.1918H565.695V70.3098H564.135V70.6218C564.429 70.8212 564.655 71.0768 564.811 71.3888C564.967 71.6922 565.045 72.0475 565.045 72.4548C565.045 72.8102 564.98 73.1352 564.85 73.4298C564.72 73.7158 564.533 73.9628 564.291 74.1708C564.057 74.3702 563.771 74.5262 563.433 74.6388C563.103 74.7428 562.731 74.7948 562.315 74.7948C562.02 74.7948 561.743 74.7688 561.483 74.7168C561.327 74.7602 561.171 74.8338 561.015 74.9378C560.859 75.0418 560.781 75.1848 560.781 75.3668C560.781 75.5748 560.88 75.7048 561.08 75.7568C561.279 75.8088 561.526 75.8348 561.821 75.8348H563.329C564.23 75.8348 564.88 76.0082 565.279 76.3548C565.677 76.6928 565.877 77.1392 565.877 77.6938ZM564.551 77.7848C564.551 77.5595 564.46 77.3775 564.278 77.2388C564.096 77.1088 563.766 77.0438 563.29 77.0438H560.963C560.633 77.1998 560.469 77.4512 560.469 77.7978C560.469 78.0492 560.573 78.2658 560.781 78.4478C560.997 78.6298 561.353 78.7208 561.847 78.7208H562.9C563.437 78.7208 563.844 78.6385 564.122 78.4738C564.408 78.3178 564.551 78.0882 564.551 77.7848ZM562.315 73.8198C562.774 73.8198 563.112 73.7115 563.329 73.4948C563.545 73.2782 563.654 72.9878 563.654 72.6238V72.2728C563.654 71.9088 563.545 71.6185 563.329 71.4018C563.112 71.1852 562.774 71.0768 562.315 71.0768C561.855 71.0768 561.517 71.1852 561.301 71.4018C561.084 71.6185 560.976 71.9088 560.976 72.2728V72.6238C560.976 72.9878 561.084 73.2782 561.301 73.4948C561.517 73.7115 561.855 73.8198 562.315 73.8198ZM570.578 69.0358C570.214 69.0358 569.958 68.9622 569.811 68.8148C569.672 68.6675 569.603 68.4855 569.603 68.2688V67.9958C569.603 67.7792 569.672 67.5972 569.811 67.4498C569.958 67.3025 570.209 67.2288 570.565 67.2288C570.929 67.2288 571.18 67.3025 571.319 67.4498C571.466 67.5972 571.54 67.7792 571.54 67.9958V68.2688C571.54 68.4855 571.466 68.6675 571.319 68.8148C571.18 68.9622 570.933 69.0358 570.578 69.0358ZM567.575 75.8218H569.863V71.4018H567.575V70.2578H571.28V75.8218H573.425V76.9658H567.575V75.8218ZM578.204 77.1218C577.701 77.1218 577.25 77.0395 576.852 76.8748C576.462 76.7102 576.128 76.4762 575.851 76.1728C575.582 75.8695 575.374 75.5012 575.227 75.0678C575.088 74.6345 575.019 74.1492 575.019 73.6118C575.019 73.0745 575.088 72.5892 575.227 72.1558C575.374 71.7225 575.582 71.3542 575.851 71.0508C576.128 70.7475 576.462 70.5135 576.852 70.3488C577.25 70.1842 577.697 70.1018 578.191 70.1018C578.884 70.1018 579.439 70.2492 579.855 70.5438C580.279 70.8385 580.596 71.2198 580.804 71.6878L579.699 72.2858C579.577 71.9738 579.391 71.7268 579.14 71.5448C578.897 71.3628 578.581 71.2718 578.191 71.2718C577.653 71.2718 577.237 71.4365 576.943 71.7658C576.648 72.0865 576.501 72.5155 576.501 73.0528V74.1708C576.501 74.6995 576.648 75.1285 576.943 75.4578C577.237 75.7872 577.662 75.9518 578.217 75.9518C578.633 75.9518 578.971 75.8565 579.231 75.6658C579.499 75.4752 579.712 75.2152 579.868 74.8858L580.908 75.5228C580.691 75.9908 580.362 76.3765 579.92 76.6798C579.478 76.9745 578.906 77.1218 578.204 77.1218ZM585.752 77.1218C585.258 77.1218 584.811 77.0395 584.413 76.8748C584.023 76.7102 583.689 76.4762 583.412 76.1728C583.143 75.8695 582.935 75.5012 582.788 75.0678C582.64 74.6345 582.567 74.1492 582.567 73.6118C582.567 73.0745 582.64 72.5892 582.788 72.1558C582.935 71.7225 583.143 71.3542 583.412 71.0508C583.689 70.7475 584.023 70.5135 584.413 70.3488C584.811 70.1842 585.258 70.1018 585.752 70.1018C586.246 70.1018 586.688 70.1842 587.078 70.3488C587.476 70.5135 587.81 70.7475 588.079 71.0508C588.356 71.3542 588.568 71.7225 588.716 72.1558C588.863 72.5892 588.937 73.0745 588.937 73.6118C588.937 74.1492 588.863 74.6345 588.716 75.0678C588.568 75.5012 588.356 75.8695 588.079 76.1728C587.81 76.4762 587.476 76.7102 587.078 76.8748C586.688 77.0395 586.246 77.1218 585.752 77.1218ZM585.752 76.0038C586.272 76.0038 586.683 75.8478 586.987 75.5358C587.299 75.2152 587.455 74.7428 587.455 74.1188V73.1048C587.455 72.4808 587.299 72.0128 586.987 71.7008C586.683 71.3802 586.272 71.2198 585.752 71.2198C585.232 71.2198 584.816 71.3802 584.504 71.7008C584.2 72.0128 584.049 72.4808 584.049 73.1048V74.1188C584.049 74.7428 584.2 75.2152 584.504 75.5358C584.816 75.8478 585.232 76.0038 585.752 76.0038Z" fill="white"/>
<path d="M281.773 13.156C281.201 13.156 280.703 13.052 280.278 12.844C279.862 12.6273 279.515 12.3197 279.238 11.921C278.969 11.5223 278.77 11.0327 278.64 10.452C278.51 9.87133 278.445 9.20833 278.445 8.463C278.445 7.72633 278.51 7.06767 278.64 6.487C278.77 5.89767 278.969 5.40367 279.238 5.005C279.515 4.60633 279.862 4.303 280.278 4.095C280.703 3.87833 281.201 3.77 281.773 3.77C282.345 3.77 282.839 3.87833 283.255 4.095C283.68 4.303 284.026 4.60633 284.295 5.005C284.572 5.40367 284.776 5.89767 284.906 6.487C285.036 7.06767 285.101 7.72633 285.101 8.463C285.101 9.20833 285.036 9.87133 284.906 10.452C284.776 11.0327 284.572 11.5223 284.295 11.921C284.026 12.3197 283.68 12.6273 283.255 12.844C282.839 13.052 282.345 13.156 281.773 13.156ZM281.773 11.947C282.423 11.947 282.882 11.7043 283.151 11.219C283.42 10.725 283.554 10.0577 283.554 9.217V7.696C283.554 6.864 283.42 6.20533 283.151 5.72C282.882 5.226 282.423 4.979 281.773 4.979C281.123 4.979 280.664 5.226 280.395 5.72C280.126 6.20533 279.992 6.864 279.992 7.696V9.23C279.992 10.062 280.126 10.725 280.395 11.219C280.664 11.7043 281.123 11.947 281.773 11.947ZM286.656 11.856H288.437V7.436H286.656V6.292H289.854V8.073H289.932C289.993 7.839 290.079 7.61367 290.192 7.397C290.305 7.18033 290.448 6.994 290.621 6.838C290.794 6.67333 291.007 6.54333 291.258 6.448C291.509 6.344 291.804 6.292 292.142 6.292H292.948V7.644H291.622C291.102 7.644 290.677 7.8 290.348 8.112C290.019 8.41533 289.854 8.827 289.854 9.347V11.856H292.285V13H286.656V11.856ZM300.873 13.728C300.873 14.4213 300.583 14.9327 300.002 15.262C299.421 15.5913 298.537 15.756 297.35 15.756C296.769 15.756 296.28 15.717 295.881 15.639C295.491 15.5697 295.17 15.4657 294.919 15.327C294.676 15.1883 294.499 15.0193 294.386 14.82C294.282 14.6207 294.23 14.3953 294.23 14.144C294.23 13.78 294.33 13.494 294.529 13.286C294.737 13.0867 295.027 12.9393 295.4 12.844V12.714C295.175 12.6273 294.993 12.506 294.854 12.35C294.724 12.194 294.659 11.9903 294.659 11.739C294.659 11.4097 294.772 11.1627 294.997 10.998C295.222 10.8247 295.513 10.6947 295.868 10.608V10.543C295.461 10.3523 295.144 10.0837 294.919 9.737C294.694 9.39033 294.581 8.97433 294.581 8.489C294.581 8.13367 294.646 7.813 294.776 7.527C294.906 7.23233 295.088 6.98533 295.322 6.786C295.565 6.578 295.851 6.41767 296.18 6.305C296.518 6.19233 296.895 6.136 297.311 6.136C297.779 6.136 298.199 6.20967 298.572 6.357V6.136C298.572 5.876 298.646 5.65933 298.793 5.486C298.94 5.31267 299.166 5.226 299.469 5.226H300.691V6.344H299.131V6.656C299.426 6.85533 299.651 7.111 299.807 7.423C299.963 7.72633 300.041 8.08167 300.041 8.489C300.041 8.84433 299.976 9.16933 299.846 9.464C299.716 9.75 299.53 9.997 299.287 10.205C299.053 10.4043 298.767 10.5603 298.429 10.673C298.1 10.777 297.727 10.829 297.311 10.829C297.016 10.829 296.739 10.803 296.479 10.751C296.323 10.7943 296.167 10.868 296.011 10.972C295.855 11.076 295.777 11.219 295.777 11.401C295.777 11.609 295.877 11.739 296.076 11.791C296.275 11.843 296.522 11.869 296.817 11.869H298.325C299.226 11.869 299.876 12.0423 300.275 12.389C300.674 12.727 300.873 13.1733 300.873 13.728ZM299.547 13.819C299.547 13.5937 299.456 13.4117 299.274 13.273C299.092 13.143 298.763 13.078 298.286 13.078H295.959C295.63 13.234 295.465 13.4853 295.465 13.832C295.465 14.0833 295.569 14.3 295.777 14.482C295.994 14.664 296.349 14.755 296.843 14.755H297.896C298.433 14.755 298.841 14.6727 299.118 14.508C299.404 14.352 299.547 14.1223 299.547 13.819ZM297.311 9.854C297.77 9.854 298.108 9.74567 298.325 9.529C298.542 9.31233 298.65 9.022 298.65 8.658V8.307C298.65 7.943 298.542 7.65267 298.325 7.436C298.108 7.21933 297.77 7.111 297.311 7.111C296.852 7.111 296.514 7.21933 296.297 7.436C296.08 7.65267 295.972 7.943 295.972 8.307V8.658C295.972 9.022 296.08 9.31233 296.297 9.529C296.514 9.74567 296.852 9.854 297.311 9.854ZM307.654 13C307.246 13 306.939 12.896 306.731 12.688C306.531 12.48 306.41 12.207 306.367 11.869H306.302C306.172 12.2763 305.933 12.5927 305.587 12.818C305.249 13.0433 304.815 13.156 304.287 13.156C303.602 13.156 303.056 12.9783 302.649 12.623C302.241 12.259 302.038 11.7607 302.038 11.128C302.038 10.478 302.276 9.984 302.753 9.646C303.238 9.29933 303.979 9.126 304.976 9.126H306.263V8.606C306.263 7.696 305.782 7.241 304.82 7.241C304.386 7.241 304.035 7.32767 303.767 7.501C303.498 7.66567 303.273 7.88667 303.091 8.164L302.246 7.475C302.436 7.111 302.757 6.799 303.208 6.539C303.658 6.27033 304.239 6.136 304.95 6.136C305.799 6.136 306.466 6.33967 306.952 6.747C307.437 7.15433 307.68 7.74367 307.68 8.515V11.882H308.525V13H307.654ZM304.69 12.116C305.149 12.116 305.526 12.012 305.821 11.804C306.115 11.596 306.263 11.3273 306.263 10.998V10.023H305.002C303.979 10.023 303.468 10.3307 303.468 10.946V11.206C303.468 11.5093 303.576 11.739 303.793 11.895C304.009 12.0423 304.308 12.116 304.69 12.116ZM310.145 13V6.292H311.562V7.436H311.627C311.696 7.26267 311.783 7.098 311.887 6.942C311.999 6.77733 312.134 6.63867 312.29 6.526C312.446 6.40467 312.628 6.30933 312.836 6.24C313.044 6.17067 313.286 6.136 313.564 6.136C314.24 6.136 314.786 6.357 315.202 6.799C315.618 7.241 315.826 7.86933 315.826 8.684V13H314.409V8.892C314.409 7.826 313.945 7.293 313.018 7.293C312.836 7.293 312.658 7.319 312.485 7.371C312.311 7.41433 312.155 7.48367 312.017 7.579C311.878 7.67433 311.765 7.79567 311.679 7.943C311.601 8.09033 311.562 8.25933 311.562 8.45V13H310.145ZM321.164 5.07C320.8 5.07 320.544 4.99633 320.397 4.849C320.258 4.70167 320.189 4.51967 320.189 4.303V4.03C320.189 3.81333 320.258 3.63133 320.397 3.484C320.544 3.33667 320.795 3.263 321.151 3.263C321.515 3.263 321.766 3.33667 321.905 3.484C322.052 3.63133 322.126 3.81333 322.126 4.03V4.303C322.126 4.51967 322.052 4.70167 321.905 4.849C321.766 4.99633 321.519 5.07 321.164 5.07ZM318.161 11.856H320.449V7.436H318.161V6.292H321.866V11.856H324.011V13H318.161V11.856ZM325.644 13V11.752L329.726 7.436H325.787V6.292H331.312V7.54L327.23 11.856H331.442V13H325.644ZM338.834 13C338.426 13 338.119 12.896 337.911 12.688C337.711 12.48 337.59 12.207 337.547 11.869H337.482C337.352 12.2763 337.113 12.5927 336.767 12.818C336.429 13.0433 335.995 13.156 335.467 13.156C334.782 13.156 334.236 12.9783 333.829 12.623C333.421 12.259 333.218 11.7607 333.218 11.128C333.218 10.478 333.456 9.984 333.933 9.646C334.418 9.29933 335.159 9.126 336.156 9.126H337.443V8.606C337.443 7.696 336.962 7.241 336 7.241C335.566 7.241 335.215 7.32767 334.947 7.501C334.678 7.66567 334.453 7.88667 334.271 8.164L333.426 7.475C333.616 7.111 333.937 6.799 334.388 6.539C334.838 6.27033 335.419 6.136 336.13 6.136C336.979 6.136 337.646 6.33967 338.132 6.747C338.617 7.15433 338.86 7.74367 338.86 8.515V11.882H339.705V13H338.834ZM335.869 12.116C336.329 12.116 336.706 12.012 337.001 11.804C337.295 11.596 337.443 11.3273 337.443 10.998V10.023H336.182C335.159 10.023 334.648 10.3307 334.648 10.946V11.206C334.648 11.5093 334.756 11.739 334.973 11.895C335.189 12.0423 335.488 12.116 335.869 12.116ZM345.588 11.856H345.51C345.311 12.2633 345.047 12.584 344.717 12.818C344.388 13.0433 343.976 13.156 343.482 13.156C342.694 13.156 342.065 12.8613 341.597 12.272C341.129 11.6827 340.895 10.8073 340.895 9.646C340.895 8.48467 341.129 7.60933 341.597 7.02C342.065 6.43067 342.694 6.136 343.482 6.136C343.976 6.136 344.388 6.253 344.717 6.487C345.047 6.71233 345.311 7.02867 345.51 7.436H345.588V3.38H347.005V13H345.588V11.856ZM344.067 11.999C344.275 11.999 344.47 11.973 344.652 11.921C344.834 11.869 344.995 11.791 345.133 11.687C345.272 11.583 345.38 11.4573 345.458 11.31C345.545 11.154 345.588 10.972 345.588 10.764V8.528C345.588 8.32 345.545 8.14233 345.458 7.995C345.38 7.839 345.272 7.709 345.133 7.605C344.995 7.501 344.834 7.423 344.652 7.371C344.47 7.319 344.275 7.293 344.067 7.293C343.53 7.293 343.114 7.45767 342.819 7.787C342.533 8.11633 342.39 8.554 342.39 9.1V10.192C342.39 10.738 342.533 11.1757 342.819 11.505C343.114 11.8343 343.53 11.999 344.067 11.999ZM351.927 13.156C351.433 13.156 350.987 13.0737 350.588 12.909C350.198 12.7443 349.865 12.5103 349.587 12.207C349.319 11.9037 349.111 11.5353 348.963 11.102C348.816 10.6687 348.742 10.1833 348.742 9.646C348.742 9.10867 348.816 8.62333 348.963 8.19C349.111 7.75667 349.319 7.38833 349.587 7.085C349.865 6.78167 350.198 6.54767 350.588 6.383C350.987 6.21833 351.433 6.136 351.927 6.136C352.421 6.136 352.863 6.21833 353.253 6.383C353.652 6.54767 353.986 6.78167 354.254 7.085C354.532 7.38833 354.744 7.75667 354.891 8.19C355.039 8.62333 355.112 9.10867 355.112 9.646C355.112 10.1833 355.039 10.6687 354.891 11.102C354.744 11.5353 354.532 11.9037 354.254 12.207C353.986 12.5103 353.652 12.7443 353.253 12.909C352.863 13.0737 352.421 13.156 351.927 13.156ZM351.927 12.038C352.447 12.038 352.859 11.882 353.162 11.57C353.474 11.2493 353.63 10.777 353.63 10.153V9.139C353.63 8.515 353.474 8.047 353.162 7.735C352.859 7.41433 352.447 7.254 351.927 7.254C351.407 7.254 350.991 7.41433 350.679 7.735C350.376 8.047 350.224 8.515 350.224 9.139V10.153C350.224 10.777 350.376 11.2493 350.679 11.57C350.991 11.882 351.407 12.038 351.927 12.038Z" fill="white"/>
<path d="M98.8839 28.148V36H97.4279V28.148H94.5809V26.926H101.731V28.148H98.8839ZM106.094 36.156C105.582 36.156 105.123 36.0737 104.716 35.909C104.308 35.7443 103.966 35.5103 103.689 35.207C103.411 34.9037 103.199 34.5397 103.052 34.115C102.904 33.6817 102.831 33.1963 102.831 32.659C102.831 32.1217 102.904 31.6363 103.052 31.203C103.208 30.7697 103.42 30.4013 103.689 30.098C103.966 29.786 104.3 29.5477 104.69 29.383C105.08 29.2183 105.513 29.136 105.99 29.136C106.458 29.136 106.882 29.2183 107.264 29.383C107.645 29.539 107.97 29.7643 108.239 30.059C108.507 30.3537 108.711 30.7047 108.85 31.112C108.997 31.5193 109.071 31.97 109.071 32.464V32.997H104.261V33.218C104.261 33.7467 104.425 34.18 104.755 34.518C105.084 34.8473 105.539 35.012 106.12 35.012C106.553 35.012 106.921 34.921 107.225 34.739C107.537 34.5483 107.788 34.297 107.979 33.985L108.863 34.765C108.637 35.155 108.291 35.4843 107.823 35.753C107.363 36.0217 106.787 36.156 106.094 36.156ZM105.99 30.215C105.738 30.215 105.504 30.2583 105.288 30.345C105.08 30.4317 104.898 30.5573 104.742 30.722C104.594 30.878 104.477 31.0643 104.391 31.281C104.304 31.4977 104.261 31.736 104.261 31.996V32.087H107.628V31.957C107.628 31.4283 107.476 31.008 107.173 30.696C106.878 30.3753 106.484 30.215 105.99 30.215ZM116.242 36C115.834 36 115.527 35.896 115.319 35.688C115.119 35.48 114.998 35.207 114.955 34.869H114.89C114.76 35.2763 114.521 35.5927 114.175 35.818C113.837 36.0433 113.403 36.156 112.875 36.156C112.19 36.156 111.644 35.9783 111.237 35.623C110.829 35.259 110.626 34.7607 110.626 34.128C110.626 33.478 110.864 32.984 111.341 32.646C111.826 32.2993 112.567 32.126 113.564 32.126H114.851V31.606C114.851 30.696 114.37 30.241 113.408 30.241C112.974 30.241 112.623 30.3277 112.355 30.501C112.086 30.6657 111.861 30.8867 111.679 31.164L110.834 30.475C111.024 30.111 111.345 29.799 111.796 29.539C112.246 29.2703 112.827 29.136 113.538 29.136C114.387 29.136 115.054 29.3397 115.54 29.747C116.025 30.1543 116.268 30.7437 116.268 31.515V34.882H117.113V36H116.242ZM113.278 35.116C113.737 35.116 114.114 35.012 114.409 34.804C114.703 34.596 114.851 34.3273 114.851 33.998V33.023H113.59C112.567 33.023 112.056 33.3307 112.056 33.946V34.206C112.056 34.5093 112.164 34.739 112.381 34.895C112.597 35.0423 112.896 35.116 113.278 35.116ZM118.213 36V29.292H119.422V30.163H119.487C119.591 29.877 119.738 29.6343 119.929 29.435C120.128 29.2357 120.41 29.136 120.774 29.136C121.129 29.136 121.402 29.2357 121.593 29.435C121.792 29.6257 121.918 29.89 121.97 30.228H122.022C122.143 29.9247 122.312 29.669 122.529 29.461C122.745 29.2443 123.057 29.136 123.465 29.136C123.985 29.136 124.344 29.318 124.544 29.682C124.752 30.046 124.856 30.579 124.856 31.281V36H123.647V31.463C123.647 30.995 123.59 30.6743 123.478 30.501C123.365 30.319 123.183 30.228 122.932 30.228C122.706 30.228 122.516 30.306 122.36 30.462C122.212 30.6093 122.139 30.8347 122.139 31.138V36H120.93V31.463C120.93 30.995 120.873 30.6743 120.761 30.501C120.657 30.319 120.479 30.228 120.228 30.228C119.994 30.228 119.799 30.306 119.643 30.462C119.495 30.6093 119.422 30.8347 119.422 31.138V36H118.213ZM134.205 36L133.555 26.926H134.829L135.154 32.204L135.297 34.531H135.401L136.428 29.123H137.871L138.898 34.531H139.002L139.145 32.204L139.483 26.926H140.705L140.055 36H138.105L137.182 30.748H137.078L136.155 36H134.205ZM144.925 36.156C144.431 36.156 143.985 36.0737 143.586 35.909C143.196 35.7443 142.863 35.5103 142.585 35.207C142.317 34.9037 142.109 34.5353 141.961 34.102C141.814 33.6687 141.74 33.1833 141.74 32.646C141.74 32.1087 141.814 31.6233 141.961 31.19C142.109 30.7567 142.317 30.3883 142.585 30.085C142.863 29.7817 143.196 29.5477 143.586 29.383C143.985 29.2183 144.431 29.136 144.925 29.136C145.419 29.136 145.861 29.2183 146.251 29.383C146.65 29.5477 146.984 29.7817 147.252 30.085C147.53 30.3883 147.742 30.7567 147.889 31.19C148.037 31.6233 148.11 32.1087 148.11 32.646C148.11 33.1833 148.037 33.6687 147.889 34.102C147.742 34.5353 147.53 34.9037 147.252 35.207C146.984 35.5103 146.65 35.7443 146.251 35.909C145.861 36.0737 145.419 36.156 144.925 36.156ZM144.925 35.038C145.445 35.038 145.857 34.882 146.16 34.57C146.472 34.2493 146.628 33.777 146.628 33.153V32.139C146.628 31.515 146.472 31.047 146.16 30.735C145.857 30.4143 145.445 30.254 144.925 30.254C144.405 30.254 143.989 30.4143 143.677 30.735C143.374 31.047 143.222 31.515 143.222 32.139V33.153C143.222 33.777 143.374 34.2493 143.677 34.57C143.989 34.882 144.405 35.038 144.925 35.038ZM149.808 34.856H151.589V30.436H149.808V29.292H153.006V31.073H153.084C153.145 30.839 153.232 30.6137 153.344 30.397C153.457 30.1803 153.6 29.994 153.773 29.838C153.947 29.6733 154.159 29.5433 154.41 29.448C154.662 29.344 154.956 29.292 155.294 29.292H156.1V30.644H154.774C154.254 30.644 153.83 30.8 153.5 31.112C153.171 31.4153 153.006 31.827 153.006 32.347V34.856H155.437V36H149.808V34.856ZM157.759 26.38H159.176V32.191H159.241L160.294 31.112L162.179 29.292H163.856L161.139 31.931L164.155 36H162.452L160.112 32.737L159.176 33.608V36H157.759V26.38ZM168.453 36.156C167.942 36.156 167.482 36.0737 167.075 35.909C166.668 35.7443 166.325 35.5103 166.048 35.207C165.771 34.9037 165.558 34.5397 165.411 34.115C165.264 33.6817 165.19 33.1963 165.19 32.659C165.19 32.1217 165.264 31.6363 165.411 31.203C165.567 30.7697 165.779 30.4013 166.048 30.098C166.325 29.786 166.659 29.5477 167.049 29.383C167.439 29.2183 167.872 29.136 168.349 29.136C168.817 29.136 169.242 29.2183 169.623 29.383C170.004 29.539 170.329 29.7643 170.598 30.059C170.867 30.3537 171.07 30.7047 171.209 31.112C171.356 31.5193 171.43 31.97 171.43 32.464V32.997H166.62V33.218C166.62 33.7467 166.785 34.18 167.114 34.518C167.443 34.8473 167.898 35.012 168.479 35.012C168.912 35.012 169.281 34.921 169.584 34.739C169.896 34.5483 170.147 34.297 170.338 33.985L171.222 34.765C170.997 35.155 170.65 35.4843 170.182 35.753C169.723 36.0217 169.146 36.156 168.453 36.156ZM168.349 30.215C168.098 30.215 167.864 30.2583 167.647 30.345C167.439 30.4317 167.257 30.5573 167.101 30.722C166.954 30.878 166.837 31.0643 166.75 31.281C166.663 31.4977 166.62 31.736 166.62 31.996V32.087H169.987V31.957C169.987 31.4283 169.835 31.008 169.532 30.696C169.237 30.3753 168.843 30.215 168.349 30.215ZM173.193 34.856H174.974V30.436H173.193V29.292H176.391V31.073H176.469C176.53 30.839 176.616 30.6137 176.729 30.397C176.842 30.1803 176.985 29.994 177.158 29.838C177.331 29.6733 177.544 29.5433 177.795 29.448C178.046 29.344 178.341 29.292 178.679 29.292H179.485V30.644H178.159C177.639 30.644 177.214 30.8 176.885 31.112C176.556 31.4153 176.391 31.827 176.391 32.347V34.856H178.822V36H173.193V34.856Z" fill="white"/>
<path d="M425.041 25.268H422.439L427.048 38.3589H429.975L434.59 25.268H431.982L428.582 35.572H428.448L425.041 25.268ZM444.567 25.268V33.6224C444.567 35.2651 443.423 36.4413 441.626 36.4413C439.824 36.4413 438.686 35.2651 438.686 33.6224V25.268H436.315V33.8205C436.315 36.633 438.424 38.557 441.626 38.557C444.816 38.557 446.938 36.633 446.938 33.8205V25.268H444.567ZM449.516 38.3589H458.081V36.371H451.887V32.7978H457.589V30.8099H451.887V27.2559H458.03V25.268H449.516V38.3589ZM461.773 38.4995C462.527 38.4995 463.172 37.8731 463.179 37.0933C463.172 36.3262 462.527 35.6998 461.773 35.6998C460.993 35.6998 460.36 36.3262 460.366 37.0933C460.36 37.8731 460.993 38.4995 461.773 38.4995ZM470.835 25.268V34.4725C470.828 35.8532 470.189 36.5883 469.051 36.5883C467.99 36.5883 467.281 35.9427 467.262 34.8816H464.903C464.903 37.2978 466.667 38.5379 468.962 38.5379C471.487 38.5379 473.181 37.0038 473.187 34.4725V25.268H470.835ZM482.874 28.8667H485.156C485.112 26.6551 483.226 25.089 480.439 25.089C477.69 25.089 475.626 26.6359 475.632 28.9498C475.632 30.8291 476.968 31.9093 479.122 32.4654L480.612 32.8489C482.024 33.2069 482.957 33.6479 482.964 34.6643C482.957 35.7829 481.896 36.5308 480.349 36.5308C478.866 36.5308 477.716 35.866 477.62 34.4917H475.287C475.383 37.0933 477.32 38.557 480.369 38.557C483.507 38.557 485.329 36.991 485.335 34.6835C485.329 32.4143 483.456 31.3788 481.487 30.9122L480.26 30.6053C479.186 30.3497 478.023 29.8958 478.036 28.8028C478.042 27.8184 478.924 27.0961 480.407 27.0961C481.82 27.0961 482.753 27.7545 482.874 28.8667Z" fill="white"/>
</svg>
