<svg width="13" height="14" viewBox="0 0 13 14" fill="none" xmlns="http://www.w3.org/2000/svg">
<g clip-path="url(#clip0)">
<path d="M6.5 1.71875C9.425 1.71875 11.7812 4.075 11.7812 7C11.7812 9.925 9.425 12.2812 6.5 12.2812C3.575 12.2812 1.21875 9.925 1.21875 7C1.21875 4.075 3.575 1.71875 6.5 1.71875ZM6.5 0.5C2.925 0.5 0 3.425 0 7C0 10.575 2.925 13.5 6.5 13.5C10.075 13.5 13 10.575 13 7C13 3.425 10.075 0.5 6.5 0.5Z" fill="white"/>
<path d="M8.04375 8.86875C7.6375 9.19375 7.06875 9.4375 6.5 9.4375C5.11875 9.4375 4.0625 8.38125 4.0625 7C4.0625 5.61875 5.11875 4.5625 6.5 4.5625C7.15 4.5625 7.8 4.80625 8.20625 5.29375L9.1 4.4C8.45 3.75 7.475 3.34375 6.5 3.34375C4.46875 3.34375 2.84375 4.96875 2.84375 7C2.84375 9.03125 4.46875 10.6562 6.5 10.6562C7.39375 10.6562 8.125 10.3313 8.775 9.84375L8.04375 8.86875Z" fill="white"/>
</g>
<defs>
<clipPath id="clip0">
<rect width="13" height="13" fill="white" transform="translate(0 0.5)"/>
</clipPath>
</defs>
</svg>
