<svg width="55" height="64" viewBox="0 0 55 64" fill="none" xmlns="http://www.w3.org/2000/svg">
<g style="mix-blend-mode:screen">
<path d="M1.46826 4.82721L21.4074 3.62073C29.971 3.10257 36.4406 5.17077 40.816 9.82534C45.2554 14.476 47.7493 21.5107 48.2976 30.9292C48.8459 40.3478 47.1858 47.6337 43.3172 52.7871C39.5125 57.9367 33.3283 60.7705 24.7647 61.2887L4.82552 62.4952L1.46826 4.82721ZM23.6512 53.7284C28.572 53.4306 32.133 51.8057 34.334 48.8536C36.5958 45.8425 37.5727 41.6932 37.2649 36.4056L36.707 26.8218C36.3991 21.5342 34.9492 17.5593 32.3572 14.8972C29.8259 12.1762 26.0998 10.9645 21.1789 11.2623L12.5514 11.7843L15.0236 54.2504L23.6512 53.7284Z" fill="url(#paint0_linear)"/>
</g>
<path d="M3.12085 5.82089L23.2333 4.0133C31.8713 3.23697 38.4764 5.12033 43.0484 9.66341C47.685 14.2007 50.4321 21.1899 51.2899 30.6312C52.1477 40.0724 50.7048 47.4383 46.9612 52.7287C43.282 58.0134 37.1234 61.0439 28.4853 61.8202L8.37291 63.6278L3.12085 5.82089ZM27.1162 54.2618C32.0799 53.8157 35.6263 52.0775 37.7556 49.0474C39.9444 45.9562 40.798 41.7604 40.3164 36.4601L39.4436 26.8532C38.962 21.5529 37.3685 17.6049 34.6631 15.0092C32.0171 12.3526 28.2123 11.2473 23.2487 11.6934L14.5462 12.4755L18.4137 55.0439L27.1162 54.2618Z" fill="url(#paint1_linear)"/>
<path d="M7.19482 5.11813L26.0297 3.78042C34.119 3.2059 40.2632 5.18212 44.4624 9.70909C48.722 14.2318 51.1742 21.1057 51.819 30.3308C52.4639 39.5559 50.9921 46.7085 47.4038 51.7886C43.8759 56.8643 38.0673 59.6895 29.978 60.264L11.1431 61.6017L7.19482 5.11813ZM28.8237 52.8642C33.472 52.5341 36.8169 50.914 38.8581 48.004C40.956 45.0358 41.824 40.9622 41.4619 35.7832L40.8058 26.3962C40.4438 21.2172 39.0196 17.3335 36.5333 14.7451C34.1036 12.0984 30.5645 10.9401 25.9162 11.2703L17.7665 11.8491L20.674 53.443L28.8237 52.8642Z" fill="url(#paint2_linear)"/>
<defs>
<linearGradient id="paint0_linear" x1="41.0953" y1="62.2155" x2="7.01411" y2="-16.7026" gradientUnits="userSpaceOnUse">
<stop offset="0.0434769" stop-color="#EB2454"/>
<stop offset="1" stop-color="#EB2454" stop-opacity="0"/>
</linearGradient>
<linearGradient id="paint1_linear" x1="6.23524" y1="9.44492" x2="45.5318" y2="52.0194" gradientUnits="userSpaceOnUse">
<stop offset="0.399607" stop-color="#2BEBC8"/>
<stop offset="1" stop-color="#2BEBC8" stop-opacity="0"/>
</linearGradient>
<linearGradient id="paint2_linear" x1="55.4879" y1="51.3415" x2="0.221367" y2="12.3279" gradientUnits="userSpaceOnUse">
<stop offset="0.223958" stop-color="#6846ED"/>
<stop offset="1" stop-color="#6846ED" stop-opacity="0"/>
</linearGradient>
</defs>
</svg>
