
<svg width="22" height="20" viewBox="0 0 22 20" fill="none" xmlns="http://www.w3.org/2000/svg">
<path d="M15 6.68421C16.5913 6.68421 18.1174 7.28308 19.2426 8.34908C20.3679 9.41507 21 10.8609 21 12.3684V19H17V12.3684C17 11.8659 16.7893 11.384 16.4142 11.0286C16.0391 10.6733 15.5304 10.4737 15 10.4737C14.4696 10.4737 13.9609 10.6733 13.5858 11.0286C13.2107 11.384 13 11.8659 13 12.3684V19H9V12.3684C9 10.8609 9.63214 9.41507 10.7574 8.34908C11.8826 7.28308 13.4087 6.68421 15 6.68421Z" stroke="#2BEBC8" stroke-width="1.5" stroke-linecap="round" stroke-linejoin="round"/>
<path d="M5 7.63158H1V19H5V7.63158Z" stroke="#2BEBC8" stroke-width="1.5" stroke-linecap="round" stroke-linejoin="round"/>
<path d="M3 4.78947C4.10457 4.78947 5 3.94117 5 2.89474C5 1.8483 4.10457 1 3 1C1.89543 1 1 1.8483 1 2.89474C1 3.94117 1.89543 4.78947 3 4.78947Z" stroke="#2BEBC8" stroke-width="1.5" stroke-linecap="round" stroke-linejoin="round"/>
</svg>
