<svg width="84" height="82" viewBox="0 0 84 82" fill="none" xmlns="http://www.w3.org/2000/svg">
<path d="M62.2812 39.8733C62.2889 42.8476 61.594 45.7816 60.2531 48.4365C58.6631 51.6178 56.2188 54.2936 53.194 56.1643C50.1691 58.0349 46.6832 59.0264 43.1267 59.0278C40.1524 59.0355 37.2184 58.3406 34.5635 56.9997L21.7188 61.2813L26.0003 48.4365C24.6594 45.7816 23.9645 42.8476 23.9722 39.8733C23.9736 36.3168 24.9651 32.8309 26.8357 29.806C28.7064 26.7812 31.3822 24.3369 34.5635 22.7469C37.2184 21.406 40.1524 20.7111 43.1267 20.7188H44.2534C48.9504 20.9779 53.3868 22.9605 56.7132 26.2868C60.0395 29.6132 62.0221 34.0496 62.2812 38.7466V39.8733Z" stroke="#2BEBC8" stroke-width="1.5" stroke-linecap="round" stroke-linejoin="round"/>
<path d="M50.4503 45.2031V47.7474C50.4513 47.9836 50.4028 48.2174 50.308 48.4338C50.2132 48.6502 50.0741 48.8445 49.8997 49.0041C49.7253 49.1638 49.5194 49.2854 49.2952 49.3611C49.071 49.4367 48.8335 49.4648 48.5978 49.4436C45.9829 49.16 43.4711 48.2682 41.2642 46.8399C39.211 45.5378 37.4702 43.8005 36.1655 41.7514C34.7294 39.5388 33.8356 37.0198 33.5567 34.3984C33.5355 34.1638 33.5634 33.9275 33.6387 33.7043C33.714 33.4811 33.8351 33.2761 33.9941 33.1022C34.1532 32.9282 34.3468 32.7893 34.5627 32.6941C34.7785 32.599 35.0118 32.5497 35.2478 32.5495H37.7971C38.2095 32.5455 38.6093 32.6912 38.922 32.9596C39.2347 33.228 39.4389 33.6007 39.4967 34.0082C39.6043 34.8225 39.8038 35.6219 40.0915 36.3914C40.2058 36.6949 40.2306 37.0248 40.1628 37.342C40.095 37.6592 39.9376 37.9503 39.7091 38.1809L38.6299 39.258C39.8396 41.3812 41.6011 43.1392 43.7285 44.3465L44.8078 43.2694C45.0388 43.0414 45.3305 42.8843 45.6483 42.8166C45.9661 42.749 46.2966 42.7737 46.6008 42.8878C47.3718 43.1749 48.1728 43.3741 48.9887 43.4815C49.4015 43.5396 49.7785 43.7471 50.048 44.0645C50.3174 44.382 50.4606 44.7872 50.4503 45.2031Z" stroke="#2BEBC8" stroke-width="1.2" stroke-linecap="round" stroke-linejoin="round"/>
<rect x="0.5" y="0.5" width="83" height="81" rx="40.5" stroke="#2BEBC8"/>
</svg>
